<?xml version="1.0" encoding="UTF-8"?>
<mxfile host="app.diagrams.net" modified="2024-01-26T09:40:34.000Z" agent="5.0 (X11; Linux x86_64) AppleWebKit/537.36 (KHTML, like Gecko) Chrome/101.0.0.0 Safari/537.36" etag="ETAG111111111111xx01" version="20.0.1" type="embed">
  <diagram id="DIAGRAM111111111xx01" name="Page-1">
    <mxGraphModel dx="1219" dy="1005" grid="1" gridSize="10" guides="1" tooltips="1" connect="1" arrows="1" fold="1" page="1" pageScale="1" pageWidth="850" pageHeight="1100" math="0" shadow="0">
      <root>
        <mxCell id="0" />
        <mxCell id="1" parent="0" />
        <UserObject label="" plantUmlData="{&#xa;  &quot;data&quot;: &quot;\n@startuml Goals\n!include &lt;archimate/Archimate&gt;\n\nMotivation_Constraint(&quot;Informationoutdated&quot;, &quot;Information\noutdated&quot;)\nMotivation_Constraint(&quot;Unauthorizedchangestoassetinformation&quot;, &quot;Unauthorized\nchanges\nto\nasset\ninformation&quot;)\nMotivation_Constraint(&quot;A08SoftwareandDataIntegrityFailures&quot;, &quot;A08\n–\nSoftware\nand\nData\nIntegrity\nFailures&quot;)\nMotivation_Constraint(&quot;Informationnotsufficient&quot;, &quot;Information\nnot\nsufficient&quot;)\nMotivation_Constraint(&quot;Externalsourcesunavailable&quot;, &quot;External\nsources\nunavailable&quot;)\nMotivation_Constraint(&quot;Lossofinfrastructure&quot;, &quot;Loss\nof\ninfrastructure&quot;)\nMotivation_Constraint(&quot;Accesstosensitiveassetinformation&quot;, &quot;Access\nto\nsensitive\nasset\ninformation&quot;)\nMotivation_Constraint(&quot;A02CryptographicFailures&quot;, &quot;A02\n–\nCryptographic\nFailures&quot;)\nMotivation_Constraint(&quot;A09SecurityLoggingandMonitoringFailures&quot;, &quot;A09\n–\nSecurity\nLogging\nand\nMonitoring\nFailures&quot;)\nMotivation_Constraint(&quot;A01BrokenAccessControl&quot;, &quot;A01\n–\nBroken\nAccess\nControl&quot;)\nMotivation_Constraint(&quot;A07IdentificationandAuthenticationFailures&quot;, &quot;A07\n–\nIdentification\nand\nAuthentication\nFailures&quot;)\nMotivation_Constraint(&quot;A03Injection&quot;, &quot;A03\n–\nInjection&quot;)\nMotivation_Constraint(&quot;A04InsecureDesign&quot;, &quot;A04\n–\nInsecure\nDesign&quot;)\nMotivation_Constraint(&quot;A05SecurityMisconfiguration&quot;, &quot;A05\n–\nSecurity\nMisconfiguration&quot;)\nMotivation_Constraint(&quot;A06VulnerableandOutdatedComponents&quot;, &quot;A06\n–\nVulnerable\nand\nOutdated\nComponents&quot;)\nMotivation_Constraint(&quot;A10ServerSideRequestForgery&quot;, &quot;A10\n-\nServer-Side\nRequest\nForgery&quot;)\nMotivation_Requirement(&quot;ARCH141AccessEnforcementPoints&quot;, &quot;ARCH-1.4.1\nAccess\nEnforcement\nPoints&quot;)\nJunction_Or(&quot;A01BrokenAccessControl_resolve&quot;, &quot; &quot;)\nRel_Association_dir(&quot;A01BrokenAccessControl_resolve&quot;, &quot;A01BrokenAccessControl&quot;)\nRel_Association_dir(&quot;ARCH141AccessEnforcementPoints&quot;, &quot;A01BrokenAccessControl_resolve&quot;)\nMotivation_Requirement(&quot;ARCH144AccessControlMechanism&quot;, &quot;ARCH-1.4.4\nAccess\nControl\nMechanism&quot;)\nRel_Association_dir(&quot;ARCH144AccessControlMechanism&quot;, &quot;A01BrokenAccessControl_resolve&quot;)\nMotivation_Requirement(&quot;ARCH123AuthenticationMechanism&quot;, &quot;ARCH-1.2.3\nAuthentication\nMechanism&quot;)\nJunction_Or(&quot;A07IdentificationandAuthenticationFailures_resolve&quot;, &quot; &quot;)\nRel_Association_dir(&quot;A07IdentificationandAuthenticationFailures_resolve&quot;, &quot;A07IdentificationandAuthenticationFailures&quot;)\nRel_Association_dir(&quot;ARCH123AuthenticationMechanism&quot;, &quot;A07IdentificationandAuthenticationFailures_resolve&quot;)\nMotivation_Requirement(&quot;ARCH124Authenticationpaths&quot;, &quot;ARCH-1.2.4\nAuthentication\npaths&quot;)\nRel_Association_dir(&quot;ARCH124Authenticationpaths&quot;, &quot;A07IdentificationandAuthenticationFailures_resolve&quot;)\nMotivation_Requirement(&quot;ARCH152Serialization&quot;, &quot;ARCH-1.5.2\nSerialization&quot;)\nJunction_Or(&quot;A08SoftwareandDataIntegrityFailures_resolve&quot;, &quot; &quot;)\nRel_Association_dir(&quot;A08SoftwareandDataIntegrityFailures_resolve&quot;, &quot;A08SoftwareandDataIntegrityFailures&quot;)\nRel_Association_dir(&quot;ARCH152Serialization&quot;, &quot;A08SoftwareandDataIntegrityFailures_resolve&quot;)\nMotivation_Requirement(&quot;ARCH153Inputvalidation&quot;, &quot;ARCH-1.5.3\nInput\nvalidation&quot;)\nRel_Association_dir(&quot;ARCH153Inputvalidation&quot;, &quot;A08SoftwareandDataIntegrityFailures_resolve&quot;)\nMotivation_Requirement(&quot;ARCH111SDLC&quot;, &quot;ARCH-1.1.1\nSDLC&quot;)\nRel_Association_dir(&quot;ARCH111SDLC&quot;, &quot;A08SoftwareandDataIntegrityFailures_resolve&quot;)\nMotivation_Requirement(&quot;ARCH171Logging&quot;, &quot;ARCH-1.7.1\nLogging&quot;)\nJunction_Or(&quot;A09SecurityLoggingandMonitoringFailures_resolve&quot;, &quot; &quot;)\nRel_Association_dir(&quot;A09SecurityLoggingandMonitoringFailures_resolve&quot;, &quot;A09SecurityLoggingandMonitoringFailures&quot;)\nRel_Association_dir(&quot;ARCH171Logging&quot;, &quot;A09SecurityLoggingandMonitoringFailures_resolve&quot;)\nMotivation_Requirement(&quot;ARCH116DesignandArchitectSecurityIn&quot;, &quot;ARCH-1.1.6\nDesign\nand\nArchitect\nSecurity\nIn&quot;)\nJunction_Or(&quot;A04InsecureDesign_resolve&quot;, &quot; &quot;)\nRel_Association_dir(&quot;A04InsecureDesign_resolve&quot;, &quot;A04InsecureDesign&quot;)\nRel_Association_dir(&quot;ARCH116DesignandArchitectSecurityIn&quot;, &quot;A04InsecureDesign_resolve&quot;)\nMotivation_Requirement(&quot;ARCH113FeaturesandUserstories&quot;, &quot;ARCH-1.1.3\nFeatures\nand\nUser\nstories&quot;)\nRel_Association_dir(&quot;ARCH113FeaturesandUserstories&quot;, &quot;A04InsecureDesign_resolve&quot;)\nMotivation_Requirement(&quot;ARCH112Threatmodeling&quot;, &quot;ARCH-1.1.2\nThreat\nmodeling&quot;)\nRel_Association_dir(&quot;ARCH112Threatmodeling&quot;, &quot;A04InsecureDesign_resolve&quot;)\nJunction_Or(&quot;A06VulnerableandOutdatedComponents_resolve&quot;, &quot; &quot;)\nRel_Association_dir(&quot;A06VulnerableandOutdatedComponents_resolve&quot;, &quot;A06VulnerableandOutdatedComponents&quot;)\nRel_Association_dir(&quot;ARCH111SDLC&quot;, &quot;A06VulnerableandOutdatedComponents_resolve&quot;)\nJunction_Or(&quot;A03Injection_resolve&quot;, &quot; &quot;)\nRel_Association_dir(&quot;A03Injection_resolve&quot;, &quot;A03Injection&quot;)\nRel_Association_dir(&quot;ARCH153Inputvalidation&quot;, &quot;A03Injection_resolve&quot;)\nMotivation_Requirement(&quot;ARCH154Outputencoding&quot;, &quot;ARCH-1.5.4\nOutput\nencoding&quot;)\nRel_Association_dir(&quot;ARCH154Outputencoding&quot;, &quot;A03Injection_resolve&quot;)\nMotivation_Requirement(&quot;INFO3LocalDatastore&quot;, &quot;INFO-3\nLocal\nData\nstore&quot;)\nJunction_Or(&quot;Externalsourcesunavailable_resolve&quot;, &quot; &quot;)\nRel_Association_dir(&quot;Externalsourcesunavailable_resolve&quot;, &quot;Externalsourcesunavailable&quot;)\nRel_Association_dir(&quot;INFO3LocalDatastore&quot;, &quot;Externalsourcesunavailable_resolve&quot;)\nJunction_Or(&quot;A05SecurityMisconfiguration_resolve&quot;, &quot; &quot;)\nRel_Association_dir(&quot;A05SecurityMisconfiguration_resolve&quot;, &quot;A05SecurityMisconfiguration&quot;)\nRel_Association_dir(&quot;ARCH111SDLC&quot;, &quot;A05SecurityMisconfiguration_resolve&quot;)\nMotivation_Requirement(&quot;ARCH162Keyprotection&quot;, &quot;ARCH-1.6.2\nKey\nprotection&quot;)\nJunction_Or(&quot;A02CryptographicFailures_resolve&quot;, &quot; &quot;)\nRel_Association_dir(&quot;A02CryptographicFailures_resolve&quot;, &quot;A02CryptographicFailures&quot;)\nRel_Association_dir(&quot;ARCH162Keyprotection&quot;, &quot;A02CryptographicFailures_resolve&quot;)\nMotivation_Requirement(&quot;ARCH163Keyreplacement&quot;, &quot;ARCH-1.6.3\nKey\nreplacement&quot;)\nRel_Association_dir(&quot;ARCH163Keyreplacement&quot;, &quot;A02CryptographicFailures_resolve&quot;)\nMotivation_Goal(&quot;Alwayscurrentinformation&quot;, &quot;Always\ncurrent\ninformation&quot;)\nRel_Influence(&quot;Unauthorizedchangestoassetinformation&quot;, &quot;Alwayscurrentinformation&quot;, &quot;Obstructs&quot;)\nRel_Influence(&quot;Externalsourcesunavailable&quot;, &quot;Alwayscurrentinformation&quot;, &quot;Obstructs&quot;)\nMotivation_Goal(&quot;HighlyAvailable&quot;, &quot;Highly\nAvailable&quot;)\nRel_Influence(&quot;Lossofinfrastructure&quot;, &quot;HighlyAvailable&quot;, &quot;Obstructs&quot;)\nMotivation_Goal(&quot;Enableriskbaseddecisionmaking&quot;, &quot;Enable\nrisk\nbased\ndecision\nmaking&quot;)\nRel_Influence(&quot;Informationnotsufficient&quot;, &quot;Enableriskbaseddecisionmaking&quot;, &quot;Obstructs&quot;)\nRel_Influence(&quot;Informationoutdated&quot;, &quot;Enableriskbaseddecisionmaking&quot;, &quot;Obstructs&quot;)\nMotivation_Goal(&quot;Customizable&quot;, &quot;Customizable&quot;)\nRel_Influence(&quot;A08SoftwareandDataIntegrityFailures&quot;, &quot;Customizable&quot;, &quot;Obstructs&quot;)\nMotivation_Goal(&quot;Extendable&quot;, &quot;Extendable&quot;)\nRel_Influence(&quot;A08SoftwareandDataIntegrityFailures&quot;, &quot;Extendable&quot;, &quot;Obstructs&quot;)\nMotivation_Goal(&quot;Secure&quot;, &quot;Secure&quot;)\nRel_Influence(&quot;A01BrokenAccessControl&quot;, &quot;Secure&quot;, &quot;Obstructs&quot;)\nRel_Influence(&quot;A08SoftwareandDataIntegrityFailures&quot;, &quot;Secure&quot;, &quot;Obstructs&quot;)\nRel_Influence(&quot;A09SecurityLoggingandMonitoringFailures&quot;, &quot;Secure&quot;, &quot;Obstructs&quot;)\nRel_Influence(&quot;A04InsecureDesign&quot;, &quot;Secure&quot;, &quot;Obstructs&quot;)\nRel_Influence(&quot;A06VulnerableandOutdatedComponents&quot;, &quot;Secure&quot;, &quot;Obstructs&quot;)\nRel_Influence(&quot;A03Injection&quot;, &quot;Secure&quot;, &quot;Obstructs&quot;)\nRel_Influence(&quot;A05SecurityMisconfiguration&quot;, &quot;Secure&quot;, &quot;Obstructs&quot;)\nRel_Influence(&quot;A02CryptographicFailures&quot;, &quot;Secure&quot;, &quot;Obstructs&quot;)\nRel_Influence(&quot;A10ServerSideRequestForgery&quot;, &quot;Secure&quot;, &quot;Obstructs&quot;)\nMotivation_Goal(&quot;Resilient&quot;, &quot;Resilient&quot;)\nRel_Association_dir(&quot;Resilient&quot;, &quot;Externalsourcesunavailable_resolve&quot;)\nMotivation_Goal(&quot;Representdependenciesbetweenassets&quot;, &quot;Represent\ndependencies\nbetween\nassets&quot;)\nJunction_Or(&quot;Informationnotsufficient_resolve&quot;, &quot; &quot;)\nRel_Association_dir(&quot;Informationnotsufficient_resolve&quot;, &quot;Informationnotsufficient&quot;)\nRel_Association_dir(&quot;Representdependenciesbetweenassets&quot;, &quot;Informationnotsufficient_resolve&quot;)\nMotivation_Goal(&quot;Representdifferenttypesofassets&quot;, &quot;Represent\ndifferent\ntypes\nof\nassets&quot;)\nRel_Association_dir(&quot;Representdifferenttypesofassets&quot;, &quot;Informationnotsufficient_resolve&quot;)\nJunction_Or(&quot;Informationoutdated_resolve&quot;, &quot; &quot;)\nRel_Association_dir(&quot;Informationoutdated_resolve&quot;, &quot;Informationoutdated&quot;)\nRel_Association_dir(&quot;Alwayscurrentinformation&quot;, &quot;Informationoutdated_resolve&quot;)\nMotivation_Goal(&quot;Presentrelevantinformation&quot;, &quot;Present\nrelevant\ninformation&quot;)\nRel_Association_dir(&quot;Presentrelevantinformation&quot;, &quot;Informationnotsufficient_resolve&quot;)\nJunction_And(&quot;A01BrokenAccessControl_and&quot;, &quot; &quot;)\nRel_Association_dir(&quot;A01BrokenAccessControl_and&quot;, &quot;A01BrokenAccessControl&quot;)\nRel_Association_dir(&quot;Accesstosensitiveassetinformation&quot;, &quot;A01BrokenAccessControl_and&quot;)\nRel_Association_dir(&quot;Unauthorizedchangestoassetinformation&quot;, &quot;A01BrokenAccessControl_and&quot;)\nRel_Association_dir(&quot;A07IdentificationandAuthenticationFailures&quot;, &quot;A01BrokenAccessControl_and&quot;)\nJunction_And(&quot;A09SecurityLoggingandMonitoringFailures_and&quot;, &quot; &quot;)\nRel_Association_dir(&quot;A09SecurityLoggingandMonitoringFailures_and&quot;, &quot;A09SecurityLoggingandMonitoringFailures&quot;)\nRel_Association_dir(&quot;A07IdentificationandAuthenticationFailures&quot;, &quot;A09SecurityLoggingandMonitoringFailures_and&quot;)\nJunction_And(&quot;Externalsourcesunavailable_and&quot;, &quot; &quot;)\nRel_Association_dir(&quot;Externalsourcesunavailable_and&quot;, &quot;Externalsourcesunavailable&quot;)\nRel_Association_dir(&quot;Lossofinfrastructure&quot;, &quot;Externalsourcesunavailable_and&quot;)\n@enduml\n    &quot;,&#xa;  &quot;format&quot;: &quot;svg&quot;&#xa;}" id="USEROBJECT111111xx01-1">
          <mxCell style="shape=image;noLabel=1;verticalAlign=top;aspect=fixed;imageAspect=0;image=data:image/svg+xml,PD94bWwgdmVyc2lvbj0iMS4wIiBlbmNvZGluZz0idXMtYXNjaWkiIHN0YW5kYWxvbmU9Im5vIj8+PHN2ZyB4bWxucz0iaHR0cDovL3d3dy53My5vcmcvMjAwMC9zdmciIHhtbG5zOnhsaW5rPSJodHRwOi8vd3d3LnczLm9yZy8xOTk5L3hsaW5rIiBjb250ZW50U3R5bGVUeXBlPSJ0ZXh0L2NzcyIgaGVpZ2h0PSIxMjI5cHgiIHByZXNlcnZlQXNwZWN0UmF0aW89Im5vbmUiIHN0eWxlPSJ3aWR0aDoyMzcxcHg7aGVpZ2h0OjEyMjlweDtiYWNrZ3JvdW5kOiNGRkZGRkY7IiB2ZXJzaW9uPSIxLjEiIHZpZXdCb3g9IjAgMCAyMzcxIDEyMjkiIHdpZHRoPSIyMzcxcHgiIHpvb21BbmRQYW49Im1hZ25pZnkiPjxkZWZzLz48Zz48IS0tZW50aXR5IEluZm9ybWF0aW9ub3V0ZGF0ZWQtLT48ZyBpZD0iZWxlbV9JbmZvcm1hdGlvbm91dGRhdGVkIj48cGF0aCBkPSJNMTM5NSw5NTUgTDE0NjgsOTU1IEwxNDgwLDk2NyBMMTQ4MCwxMDEwLjU5MzggTDE0NjgsMTAyMi41OTM4IEwxMzk1LDEwMjIuNTkzOCBMMTM4MywxMDEwLjU5MzggTDEzODMsOTY3IEwxMzk1LDk1NSAiIGZpbGw9IiNFRkVGRkYiIHN0eWxlPSJzdHJva2U6IzE4MTgxODtzdHJva2Utd2lkdGg6MC41OyIvPjxpbWFnZSBoZWlnaHQ9IjE2IiB3aWR0aD0iMTYiIHg9IjE0NTUiIHhsaW5rOmhyZWY9ImRhdGE6aW1hZ2UvcG5nO2Jhc2U2NCxpVkJPUncwS0dnb0FBQUFOU1VoRVVnQUFBQkFBQUFBUUNBWUFBQUFmOC85aEFBQUFNVWxFUVZSNFhtTmdHSmJnSDRrWUJmdzdjK2IvZnhoRzU2TmppZ3lnU0RQRkJsQ2ttV0lES05LTTB3QVM4U2hBQXdBcll4ejRVcHhwZUFBQUFBQkpSVTVFcmtKZ2dnPT0iIHk9Ijk2NSIvPjx0ZXh0IGZpbGw9IiMwMDAwMDAiIGZvbnQtZmFtaWx5PSJzYW5zLXNlcmlmIiBmb250LXNpemU9IjE0IiBsZW5ndGhBZGp1c3Q9InNwYWNpbmciIHRleHRMZW5ndGg9Ijc3IiB4PSIxMzkzIiB5PSI5OTIuOTk1MSI+SW5mb3JtYXRpb248L3RleHQ+PHRleHQgZmlsbD0iIzAwMDAwMCIgZm9udC1mYW1pbHk9InNhbnMtc2VyaWYiIGZvbnQtc2l6ZT0iMTQiIGxlbmd0aEFkanVzdD0ic3BhY2luZyIgdGV4dExlbmd0aD0iNjMiIHg9IjE0MDAiIHk9IjEwMDkuMjkyIj5vdXRkYXRlZDwvdGV4dD48L2c+PCEtLWVudGl0eSBVbmF1dGhvcml6ZWRjaGFuZ2VzdG9hc3NldGluZm9ybWF0aW9uLS0+PGcgaWQ9ImVsZW1fVW5hdXRob3JpemVkY2hhbmdlc3RvYXNzZXRpbmZvcm1hdGlvbiI+PHBhdGggZD0iTTIwMjUsMzMyLjUgTDIxMTQsMzMyLjUgTDIxMjYsMzQ0LjUgTDIxMjYsNDM2Ljk4NDQgTDIxMTQsNDQ4Ljk4NDQgTDIwMjUsNDQ4Ljk4NDQgTDIwMTMsNDM2Ljk4NDQgTDIwMTMsMzQ0LjUgTDIwMjUsMzMyLjUgIiBmaWxsPSIjRUZFRkZGIiBzdHlsZT0ic3Ryb2tlOiMxODE4MTg7c3Ryb2tlLXdpZHRoOjAuNTsiLz48aW1hZ2UgaGVpZ2h0PSIxNiIgd2lkdGg9IjE2IiB4PSIyMTAxIiB4bGluazpocmVmPSJkYXRhOmltYWdlL3BuZztiYXNlNjQsaVZCT1J3MEtHZ29BQUFBTlNVaEVVZ0FBQUJBQUFBQVFDQVlBQUFBZjgvOWhBQUFBTVVsRVFWUjRYbU5nR0piZ0g0a1lCZnc3YytiL2Z4aEc1Nk5qaWd5Z1NEUEZCbENrbVdJREtOS00wd0FTOFNoQUF3QXJZeHo0VXB4cGVBQUFBQUJKUlU1RXJrSmdnZz09IiB5PSIzNDIuNSIvPjx0ZXh0IGZpbGw9IiMwMDAwMDAiIGZvbnQtZmFtaWx5PSJzYW5zLXNlcmlmIiBmb250LXNpemU9IjE0IiBsZW5ndGhBZGp1c3Q9InNwYWNpbmciIHRleHRMZW5ndGg9IjkzIiB4PSIyMDIzIiB5PSIzNzAuNDk1MSI+VW5hdXRob3JpemVkPC90ZXh0Pjx0ZXh0IGZpbGw9IiMwMDAwMDAiIGZvbnQtZmFtaWx5PSJzYW5zLXNlcmlmIiBmb250LXNpemU9IjE0IiBsZW5ndGhBZGp1c3Q9InNwYWNpbmciIHRleHRMZW5ndGg9IjYwIiB4PSIyMDM5LjUiIHk9IjM4Ni43OTIiPmNoYW5nZXM8L3RleHQ+PHRleHQgZmlsbD0iIzAwMDAwMCIgZm9udC1mYW1pbHk9InNhbnMtc2VyaWYiIGZvbnQtc2l6ZT0iMTQiIGxlbmd0aEFkanVzdD0ic3BhY2luZyIgdGV4dExlbmd0aD0iMTQiIHg9IjIwNjIuNSIgeT0iNDAzLjA4ODkiPnRvPC90ZXh0Pjx0ZXh0IGZpbGw9IiMwMDAwMDAiIGZvbnQtZmFtaWx5PSJzYW5zLXNlcmlmIiBmb250LXNpemU9IjE0IiBsZW5ndGhBZGp1c3Q9InNwYWNpbmciIHRleHRMZW5ndGg9IjM4IiB4PSIyMDUwLjUiIHk9IjQxOS4zODU3Ij5hc3NldDwvdGV4dD48dGV4dCBmaWxsPSIjMDAwMDAwIiBmb250LWZhbWlseT0ic2Fucy1zZXJpZiIgZm9udC1zaXplPSIxNCIgbGVuZ3RoQWRqdXN0PSJzcGFjaW5nIiB0ZXh0TGVuZ3RoPSI3NyIgeD0iMjAzMSIgeT0iNDM1LjY4MjYiPmluZm9ybWF0aW9uPC90ZXh0PjwvZz48IS0tZW50aXR5IEEwOFNvZnR3YXJlYW5kRGF0YUludGVncml0eUZhaWx1cmVzLS0+PGcgaWQ9ImVsZW1fQTA4U29mdHdhcmVhbmREYXRhSW50ZWdyaXR5RmFpbHVyZXMiPjxwYXRoIGQ9Ik00MzUuNSw3MjMgTDQ5MS41LDcyMyBMNTAzLjUsNzM1IEw1MDMuNSw4NjAuMDc4MSBMNDkxLjUsODcyLjA3ODEgTDQzNS41LDg3Mi4wNzgxIEw0MjMuNSw4NjAuMDc4MSBMNDIzLjUsNzM1IEw0MzUuNSw3MjMgIiBmaWxsPSIjRUZFRkZGIiBzdHlsZT0ic3Ryb2tlOiMxODE4MTg7c3Ryb2tlLXdpZHRoOjAuNTsiLz48aW1hZ2UgaGVpZ2h0PSIxNiIgd2lkdGg9IjE2IiB4PSI0NzguNSIgeGxpbms6aHJlZj0iZGF0YTppbWFnZS9wbmc7YmFzZTY0LGlWQk9SdzBLR2dvQUFBQU5TVWhFVWdBQUFCQUFBQUFRQ0FZQUFBQWY4LzloQUFBQU1VbEVRVlI0WG1OZ0dKYmdINGtZQmZ3N2MrYi9meGhHNTZOamlneWdTRFBGQmxDa21XSURLTktNMHdBUzhTaEFBd0FyWXh6NFVweHBlQUFBQUFCSlJVNUVya0pnZ2c9PSIgeT0iNzMzIi8+PHRleHQgZmlsbD0iIzAwMDAwMCIgZm9udC1mYW1pbHk9InNhbnMtc2VyaWYiIGZvbnQtc2l6ZT0iMTQiIGxlbmd0aEFkanVzdD0ic3BhY2luZyIgdGV4dExlbmd0aD0iMjciIHg9IjQ1MCIgeT0iNzYwLjk5NTEiPkEwODwvdGV4dD48dGV4dCBmaWxsPSIjMDAwMDAwIiBmb250LWZhbWlseT0ic2Fucy1zZXJpZiIgZm9udC1zaXplPSIxNCIgbGVuZ3RoQWRqdXN0PSJzcGFjaW5nIiB0ZXh0TGVuZ3RoPSIxNCIgeD0iNDU2LjUiIHk9Ijc3Ny4yOTIiPiYjNjU1MzM7PC90ZXh0Pjx0ZXh0IGZpbGw9IiMwMDAwMDAiIGZvbnQtZmFtaWx5PSJzYW5zLXNlcmlmIiBmb250LXNpemU9IjE0IiBsZW5ndGhBZGp1c3Q9InNwYWNpbmciIHRleHRMZW5ndGg9IjYwIiB4PSI0MzMuNSIgeT0iNzkzLjU4ODkiPlNvZnR3YXJlPC90ZXh0Pjx0ZXh0IGZpbGw9IiMwMDAwMDAiIGZvbnQtZmFtaWx5PSJzYW5zLXNlcmlmIiBmb250LXNpemU9IjE0IiBsZW5ndGhBZGp1c3Q9InNwYWNpbmciIHRleHRMZW5ndGg9IjI2IiB4PSI0NTAuNSIgeT0iODA5Ljg4NTciPmFuZDwvdGV4dD48dGV4dCBmaWxsPSIjMDAwMDAwIiBmb250LWZhbWlseT0ic2Fucy1zZXJpZiIgZm9udC1zaXplPSIxNCIgbGVuZ3RoQWRqdXN0PSJzcGFjaW5nIiB0ZXh0TGVuZ3RoPSIzMiIgeD0iNDQ3LjUiIHk9IjgyNi4xODI2Ij5EYXRhPC90ZXh0Pjx0ZXh0IGZpbGw9IiMwMDAwMDAiIGZvbnQtZmFtaWx5PSJzYW5zLXNlcmlmIiBmb250LXNpemU9IjE0IiBsZW5ndGhBZGp1c3Q9InNwYWNpbmciIHRleHRMZW5ndGg9IjU1IiB4PSI0MzYiIHk9Ijg0Mi40Nzk1Ij5JbnRlZ3JpdHk8L3RleHQ+PHRleHQgZmlsbD0iIzAwMDAwMCIgZm9udC1mYW1pbHk9InNhbnMtc2VyaWYiIGZvbnQtc2l6ZT0iMTQiIGxlbmd0aEFkanVzdD0ic3BhY2luZyIgdGV4dExlbmd0aD0iNTMiIHg9IjQzNyIgeT0iODU4Ljc3NjQiPkZhaWx1cmVzPC90ZXh0PjwvZz48IS0tZW50aXR5IEluZm9ybWF0aW9ubm90c3VmZmljaWVudC0tPjxnIGlkPSJlbGVtX0luZm9ybWF0aW9ubm90c3VmZmljaWVudCI+PHBhdGggZD0iTTIyMiw5NDcgTDI5NSw5NDcgTDMwNyw5NTkgTDMwNywxMDE4Ljg5MDYgTDI5NSwxMDMwLjg5MDYgTDIyMiwxMDMwLjg5MDYgTDIxMCwxMDE4Ljg5MDYgTDIxMCw5NTkgTDIyMiw5NDcgIiBmaWxsPSIjRUZFRkZGIiBzdHlsZT0ic3Ryb2tlOiMxODE4MTg7c3Ryb2tlLXdpZHRoOjAuNTsiLz48aW1hZ2UgaGVpZ2h0PSIxNiIgd2lkdGg9IjE2IiB4PSIyODIiIHhsaW5rOmhyZWY9ImRhdGE6aW1hZ2UvcG5nO2Jhc2U2NCxpVkJPUncwS0dnb0FBQUFOU1VoRVVnQUFBQkFBQUFBUUNBWUFBQUFmOC85aEFBQUFNVWxFUVZSNFhtTmdHSmJnSDRrWUJmdzdjK2IvZnhoRzU2TmppZ3lnU0RQRkJsQ2ttV0lES05LTTB3QVM4U2hBQXdBcll4ejRVcHhwZUFBQUFBQkpSVTVFcmtKZ2dnPT0iIHk9Ijk1NyIvPjx0ZXh0IGZpbGw9IiMwMDAwMDAiIGZvbnQtZmFtaWx5PSJzYW5zLXNlcmlmIiBmb250LXNpemU9IjE0IiBsZW5ndGhBZGp1c3Q9InNwYWNpbmciIHRleHRMZW5ndGg9Ijc3IiB4PSIyMjAiIHk9Ijk4NC45OTUxIj5JbmZvcm1hdGlvbjwvdGV4dD48dGV4dCBmaWxsPSIjMDAwMDAwIiBmb250LWZhbWlseT0ic2Fucy1zZXJpZiIgZm9udC1zaXplPSIxNCIgbGVuZ3RoQWRqdXN0PSJzcGFjaW5nIiB0ZXh0TGVuZ3RoPSIyMyIgeD0iMjQ3IiB5PSIxMDAxLjI5MiI+bm90PC90ZXh0Pjx0ZXh0IGZpbGw9IiMwMDAwMDAiIGZvbnQtZmFtaWx5PSJzYW5zLXNlcmlmIiBmb250LXNpemU9IjE0IiBsZW5ndGhBZGp1c3Q9InNwYWNpbmciIHRleHRMZW5ndGg9IjYyIiB4PSIyMjcuNSIgeT0iMTAxNy41ODg5Ij5zdWZmaWNpZW50PC90ZXh0PjwvZz48IS0tZW50aXR5IEV4dGVybmFsc291cmNlc3VuYXZhaWxhYmxlLS0+PGcgaWQ9ImVsZW1fRXh0ZXJuYWxzb3VyY2VzdW5hdmFpbGFibGUiPjxwYXRoIGQ9Ik0yMTczLjUsMzQ4LjUgTDIyNDUuNSwzNDguNSBMMjI1Ny41LDM2MC41IEwyMjU3LjUsNDIwLjM5MDYgTDIyNDUuNSw0MzIuMzkwNiBMMjE3My41LDQzMi4zOTA2IEwyMTYxLjUsNDIwLjM5MDYgTDIxNjEuNSwzNjAuNSBMMjE3My41LDM0OC41ICIgZmlsbD0iI0VGRUZGRiIgc3R5bGU9InN0cm9rZTojMTgxODE4O3N0cm9rZS13aWR0aDowLjU7Ii8+PGltYWdlIGhlaWdodD0iMTYiIHdpZHRoPSIxNiIgeD0iMjIzMi41IiB4bGluazpocmVmPSJkYXRhOmltYWdlL3BuZztiYXNlNjQsaVZCT1J3MEtHZ29BQUFBTlNVaEVVZ0FBQUJBQUFBQVFDQVlBQUFBZjgvOWhBQUFBTVVsRVFWUjRYbU5nR0piZ0g0a1lCZnc3YytiL2Z4aEc1Nk5qaWd5Z1NEUEZCbENrbVdJREtOS00wd0FTOFNoQUF3QXJZeHo0VXB4cGVBQUFBQUJKUlU1RXJrSmdnZz09IiB5PSIzNTguNSIvPjx0ZXh0IGZpbGw9IiMwMDAwMDAiIGZvbnQtZmFtaWx5PSJzYW5zLXNlcmlmIiBmb250LXNpemU9IjE0IiBsZW5ndGhBZGp1c3Q9InNwYWNpbmciIHRleHRMZW5ndGg9IjU1IiB4PSIyMTgyIiB5PSIzODYuNDk1MSI+RXh0ZXJuYWw8L3RleHQ+PHRleHQgZmlsbD0iIzAwMDAwMCIgZm9udC1mYW1pbHk9InNhbnMtc2VyaWYiIGZvbnQtc2l6ZT0iMTQiIGxlbmd0aEFkanVzdD0ic3BhY2luZyIgdGV4dExlbmd0aD0iNTYiIHg9IjIxODEuNSIgeT0iNDAyLjc5MiI+c291cmNlczwvdGV4dD48dGV4dCBmaWxsPSIjMDAwMDAwIiBmb250LWZhbWlseT0ic2Fucy1zZXJpZiIgZm9udC1zaXplPSIxNCIgbGVuZ3RoQWRqdXN0PSJzcGFjaW5nIiB0ZXh0TGVuZ3RoPSI3NiIgeD0iMjE3MS41IiB5PSI0MTkuMDg4OSI+dW5hdmFpbGFibGU8L3RleHQ+PC9nPjwhLS1lbnRpdHkgTG9zc29maW5mcmFzdHJ1Y3R1cmUtLT48ZyBpZD0iZWxlbV9Mb3Nzb2ZpbmZyYXN0cnVjdHVyZSI+PHBhdGggZD0iTTIyNjQuNSwxNCBMMjM1Mi41LDE0IEwyMzY0LjUsMjYgTDIzNjQuNSw4NS44OTA2IEwyMzUyLjUsOTcuODkwNiBMMjI2NC41LDk3Ljg5MDYgTDIyNTIuNSw4NS44OTA2IEwyMjUyLjUsMjYgTDIyNjQuNSwxNCAiIGZpbGw9IiNFRkVGRkYiIHN0eWxlPSJzdHJva2U6IzE4MTgxODtzdHJva2Utd2lkdGg6MC41OyIvPjxpbWFnZSBoZWlnaHQ9IjE2IiB3aWR0aD0iMTYiIHg9IjIzMzkuNSIgeGxpbms6aHJlZj0iZGF0YTppbWFnZS9wbmc7YmFzZTY0LGlWQk9SdzBLR2dvQUFBQU5TVWhFVWdBQUFCQUFBQUFRQ0FZQUFBQWY4LzloQUFBQU1VbEVRVlI0WG1OZ0dKYmdINGtZQmZ3N2MrYi9meGhHNTZOamlneWdTRFBGQmxDa21XSURLTktNMHdBUzhTaEFBd0FyWXh6NFVweHBlQUFBQUFCSlJVNUVya0pnZ2c9PSIgeT0iMjQiLz48dGV4dCBmaWxsPSIjMDAwMDAwIiBmb250LWZhbWlseT0ic2Fucy1zZXJpZiIgZm9udC1zaXplPSIxNCIgbGVuZ3RoQWRqdXN0PSJzcGFjaW5nIiB0ZXh0TGVuZ3RoPSIzMiIgeD0iMjI5Mi41IiB5PSI1MS45OTUxIj5Mb3NzPC90ZXh0Pjx0ZXh0IGZpbGw9IiMwMDAwMDAiIGZvbnQtZmFtaWx5PSJzYW5zLXNlcmlmIiBmb250LXNpemU9IjE0IiBsZW5ndGhBZGp1c3Q9InNwYWNpbmciIHRleHRMZW5ndGg9IjEzIiB4PSIyMzAyIiB5PSI2OC4yOTIiPm9mPC90ZXh0Pjx0ZXh0IGZpbGw9IiMwMDAwMDAiIGZvbnQtZmFtaWx5PSJzYW5zLXNlcmlmIiBmb250LXNpemU9IjE0IiBsZW5ndGhBZGp1c3Q9InNwYWNpbmciIHRleHRMZW5ndGg9IjkyIiB4PSIyMjYyLjUiIHk9Ijg0LjU4ODkiPmluZnJhc3RydWN0dXJlPC90ZXh0PjwvZz48IS0tZW50aXR5IEFjY2Vzc3Rvc2Vuc2l0aXZlYXNzZXRpbmZvcm1hdGlvbi0tPjxnIGlkPSJlbGVtX0FjY2Vzc3Rvc2Vuc2l0aXZlYXNzZXRpbmZvcm1hdGlvbiI+PHBhdGggZD0iTTE4OTMsMzMyLjUgTDE5NjYsMzMyLjUgTDE5NzgsMzQ0LjUgTDE5NzgsNDM2Ljk4NDQgTDE5NjYsNDQ4Ljk4NDQgTDE4OTMsNDQ4Ljk4NDQgTDE4ODEsNDM2Ljk4NDQgTDE4ODEsMzQ0LjUgTDE4OTMsMzMyLjUgIiBmaWxsPSIjRUZFRkZGIiBzdHlsZT0ic3Ryb2tlOiMxODE4MTg7c3Ryb2tlLXdpZHRoOjAuNTsiLz48aW1hZ2UgaGVpZ2h0PSIxNiIgd2lkdGg9IjE2IiB4PSIxOTUzIiB4bGluazpocmVmPSJkYXRhOmltYWdlL3BuZztiYXNlNjQsaVZCT1J3MEtHZ29BQUFBTlNVaEVVZ0FBQUJBQUFBQVFDQVlBQUFBZjgvOWhBQUFBTVVsRVFWUjRYbU5nR0piZ0g0a1lCZnc3YytiL2Z4aEc1Nk5qaWd5Z1NEUEZCbENrbVdJREtOS00wd0FTOFNoQUF3QXJZeHo0VXB4cGVBQUFBQUJKUlU1RXJrSmdnZz09IiB5PSIzNDIuNSIvPjx0ZXh0IGZpbGw9IiMwMDAwMDAiIGZvbnQtZmFtaWx5PSJzYW5zLXNlcmlmIiBmb250LXNpemU9IjE0IiBsZW5ndGhBZGp1c3Q9InNwYWNpbmciIHRleHRMZW5ndGg9IjUwIiB4PSIxOTA0LjUiIHk9IjM3MC40OTUxIj5BY2Nlc3M8L3RleHQ+PHRleHQgZmlsbD0iIzAwMDAwMCIgZm9udC1mYW1pbHk9InNhbnMtc2VyaWYiIGZvbnQtc2l6ZT0iMTQiIGxlbmd0aEFkanVzdD0ic3BhY2luZyIgdGV4dExlbmd0aD0iMTQiIHg9IjE5MjIuNSIgeT0iMzg2Ljc5MiI+dG88L3RleHQ+PHRleHQgZmlsbD0iIzAwMDAwMCIgZm9udC1mYW1pbHk9InNhbnMtc2VyaWYiIGZvbnQtc2l6ZT0iMTQiIGxlbmd0aEFkanVzdD0ic3BhY2luZyIgdGV4dExlbmd0aD0iNjEiIHg9IjE4OTkiIHk9IjQwMy4wODg5Ij5zZW5zaXRpdmU8L3RleHQ+PHRleHQgZmlsbD0iIzAwMDAwMCIgZm9udC1mYW1pbHk9InNhbnMtc2VyaWYiIGZvbnQtc2l6ZT0iMTQiIGxlbmd0aEFkanVzdD0ic3BhY2luZyIgdGV4dExlbmd0aD0iMzgiIHg9IjE5MTAuNSIgeT0iNDE5LjM4NTciPmFzc2V0PC90ZXh0Pjx0ZXh0IGZpbGw9IiMwMDAwMDAiIGZvbnQtZmFtaWx5PSJzYW5zLXNlcmlmIiBmb250LXNpemU9IjE0IiBsZW5ndGhBZGp1c3Q9InNwYWNpbmciIHRleHRMZW5ndGg9Ijc3IiB4PSIxODkxIiB5PSI0MzUuNjgyNiI+aW5mb3JtYXRpb248L3RleHQ+PC9nPjwhLS1lbnRpdHkgQTAyQ3J5cHRvZ3JhcGhpY0ZhaWx1cmVzLS0+PGcgaWQ9ImVsZW1fQTAyQ3J5cHRvZ3JhcGhpY0ZhaWx1cmVzIj48cGF0aCBkPSJNODY2LjUsNzQ3LjUgTDk1OC41LDc0Ny41IEw5NzAuNSw3NTkuNSBMOTcwLjUsODM1LjY4NzUgTDk1OC41LDg0Ny42ODc1IEw4NjYuNSw4NDcuNjg3NSBMODU0LjUsODM1LjY4NzUgTDg1NC41LDc1OS41IEw4NjYuNSw3NDcuNSAiIGZpbGw9IiNFRkVGRkYiIHN0eWxlPSJzdHJva2U6IzE4MTgxODtzdHJva2Utd2lkdGg6MC41OyIvPjxpbWFnZSBoZWlnaHQ9IjE2IiB3aWR0aD0iMTYiIHg9Ijk0NS41IiB4bGluazpocmVmPSJkYXRhOmltYWdlL3BuZztiYXNlNjQsaVZCT1J3MEtHZ29BQUFBTlNVaEVVZ0FBQUJBQUFBQVFDQVlBQUFBZjgvOWhBQUFBTVVsRVFWUjRYbU5nR0piZ0g0a1lCZnc3YytiL2Z4aEc1Nk5qaWd5Z1NEUEZCbENrbVdJREtOS00wd0FTOFNoQUF3QXJZeHo0VXB4cGVBQUFBQUJKUlU1RXJrSmdnZz09IiB5PSI3NTcuNSIvPjx0ZXh0IGZpbGw9IiMwMDAwMDAiIGZvbnQtZmFtaWx5PSJzYW5zLXNlcmlmIiBmb250LXNpemU9IjE0IiBsZW5ndGhBZGp1c3Q9InNwYWNpbmciIHRleHRMZW5ndGg9IjI3IiB4PSI4OTkiIHk9Ijc4NS40OTUxIj5BMDI8L3RleHQ+PHRleHQgZmlsbD0iIzAwMDAwMCIgZm9udC1mYW1pbHk9InNhbnMtc2VyaWYiIGZvbnQtc2l6ZT0iMTQiIGxlbmd0aEFkanVzdD0ic3BhY2luZyIgdGV4dExlbmd0aD0iMTQiIHg9IjkwNS41IiB5PSI4MDEuNzkyIj4mIzY1NTMzOzwvdGV4dD48dGV4dCBmaWxsPSIjMDAwMDAwIiBmb250LWZhbWlseT0ic2Fucy1zZXJpZiIgZm9udC1zaXplPSIxNCIgbGVuZ3RoQWRqdXN0PSJzcGFjaW5nIiB0ZXh0TGVuZ3RoPSI5NiIgeD0iODY0LjUiIHk9IjgxOC4wODg5Ij5DcnlwdG9ncmFwaGljPC90ZXh0Pjx0ZXh0IGZpbGw9IiMwMDAwMDAiIGZvbnQtZmFtaWx5PSJzYW5zLXNlcmlmIiBmb250LXNpemU9IjE0IiBsZW5ndGhBZGp1c3Q9InNwYWNpbmciIHRleHRMZW5ndGg9IjUzIiB4PSI4ODYiIHk9IjgzNC4zODU3Ij5GYWlsdXJlczwvdGV4dD48L2c+PCEtLWVudGl0eSBBMDlTZWN1cml0eUxvZ2dpbmdhbmRNb25pdG9yaW5nRmFpbHVyZXMtLT48ZyBpZD0iZWxlbV9BMDlTZWN1cml0eUxvZ2dpbmdhbmRNb25pdG9yaW5nRmFpbHVyZXMiPjxwYXRoIGQ9Ik02ODgsNzIzIEw3NTcsNzIzIEw3NjksNzM1IEw3NjksODYwLjA3ODEgTDc1Nyw4NzIuMDc4MSBMNjg4LDg3Mi4wNzgxIEw2NzYsODYwLjA3ODEgTDY3Niw3MzUgTDY4OCw3MjMgIiBmaWxsPSIjRUZFRkZGIiBzdHlsZT0ic3Ryb2tlOiMxODE4MTg7c3Ryb2tlLXdpZHRoOjAuNTsiLz48aW1hZ2UgaGVpZ2h0PSIxNiIgd2lkdGg9IjE2IiB4PSI3NDQiIHhsaW5rOmhyZWY9ImRhdGE6aW1hZ2UvcG5nO2Jhc2U2NCxpVkJPUncwS0dnb0FBQUFOU1VoRVVnQUFBQkFBQUFBUUNBWUFBQUFmOC85aEFBQUFNVWxFUVZSNFhtTmdHSmJnSDRrWUJmdzdjK2IvZnhoRzU2TmppZ3lnU0RQRkJsQ2ttV0lES05LTTB3QVM4U2hBQXdBcll4ejRVcHhwZUFBQUFBQkpSVTVFcmtKZ2dnPT0iIHk9IjczMyIvPjx0ZXh0IGZpbGw9IiMwMDAwMDAiIGZvbnQtZmFtaWx5PSJzYW5zLXNlcmlmIiBmb250LXNpemU9IjE0IiBsZW5ndGhBZGp1c3Q9InNwYWNpbmciIHRleHRMZW5ndGg9IjI3IiB4PSI3MDkiIHk9Ijc2MC45OTUxIj5BMDk8L3RleHQ+PHRleHQgZmlsbD0iIzAwMDAwMCIgZm9udC1mYW1pbHk9InNhbnMtc2VyaWYiIGZvbnQtc2l6ZT0iMTQiIGxlbmd0aEFkanVzdD0ic3BhY2luZyIgdGV4dExlbmd0aD0iMTQiIHg9IjcxNS41IiB5PSI3NzcuMjkyIj4mIzY1NTMzOzwvdGV4dD48dGV4dCBmaWxsPSIjMDAwMDAwIiBmb250LWZhbWlseT0ic2Fucy1zZXJpZiIgZm9udC1zaXplPSIxNCIgbGVuZ3RoQWRqdXN0PSJzcGFjaW5nIiB0ZXh0TGVuZ3RoPSI1NSIgeD0iNjk1IiB5PSI3OTMuNTg4OSI+U2VjdXJpdHk8L3RleHQ+PHRleHQgZmlsbD0iIzAwMDAwMCIgZm9udC1mYW1pbHk9InNhbnMtc2VyaWYiIGZvbnQtc2l6ZT0iMTQiIGxlbmd0aEFkanVzdD0ic3BhY2luZyIgdGV4dExlbmd0aD0iNTUiIHg9IjY5NSIgeT0iODA5Ljg4NTciPkxvZ2dpbmc8L3RleHQ+PHRleHQgZmlsbD0iIzAwMDAwMCIgZm9udC1mYW1pbHk9InNhbnMtc2VyaWYiIGZvbnQtc2l6ZT0iMTQiIGxlbmd0aEFkanVzdD0ic3BhY2luZyIgdGV4dExlbmd0aD0iMjYiIHg9IjcwOS41IiB5PSI4MjYuMTgyNiI+YW5kPC90ZXh0Pjx0ZXh0IGZpbGw9IiMwMDAwMDAiIGZvbnQtZmFtaWx5PSJzYW5zLXNlcmlmIiBmb250LXNpemU9IjE0IiBsZW5ndGhBZGp1c3Q9InNwYWNpbmciIHRleHRMZW5ndGg9IjczIiB4PSI2ODYiIHk9Ijg0Mi40Nzk1Ij5Nb25pdG9yaW5nPC90ZXh0Pjx0ZXh0IGZpbGw9IiMwMDAwMDAiIGZvbnQtZmFtaWx5PSJzYW5zLXNlcmlmIiBmb250LXNpemU9IjE0IiBsZW5ndGhBZGp1c3Q9InNwYWNpbmciIHRleHRMZW5ndGg9IjUzIiB4PSI2OTYiIHk9Ijg1OC43NzY0Ij5GYWlsdXJlczwvdGV4dD48L2c+PCEtLWVudGl0eSBBMDFCcm9rZW5BY2Nlc3NDb250cm9sLS0+PGcgaWQ9ImVsZW1fQTAxQnJva2VuQWNjZXNzQ29udHJvbCI+PHBhdGggZD0iTTE2MzAuNSw3MzkuNSBMMTY3Ni41LDczOS41IEwxNjg4LjUsNzUxLjUgTDE2ODguNSw4NDMuOTg0NCBMMTY3Ni41LDg1NS45ODQ0IEwxNjMwLjUsODU1Ljk4NDQgTDE2MTguNSw4NDMuOTg0NCBMMTYxOC41LDc1MS41IEwxNjMwLjUsNzM5LjUgIiBmaWxsPSIjRUZFRkZGIiBzdHlsZT0ic3Ryb2tlOiMxODE4MTg7c3Ryb2tlLXdpZHRoOjAuNTsiLz48aW1hZ2UgaGVpZ2h0PSIxNiIgd2lkdGg9IjE2IiB4PSIxNjYzLjUiIHhsaW5rOmhyZWY9ImRhdGE6aW1hZ2UvcG5nO2Jhc2U2NCxpVkJPUncwS0dnb0FBQUFOU1VoRVVnQUFBQkFBQUFBUUNBWUFBQUFmOC85aEFBQUFNVWxFUVZSNFhtTmdHSmJnSDRrWUJmdzdjK2IvZnhoRzU2TmppZ3lnU0RQRkJsQ2ttV0lES05LTTB3QVM4U2hBQXdBcll4ejRVcHhwZUFBQUFBQkpSVTVFcmtKZ2dnPT0iIHk9Ijc0OS41Ii8+PHRleHQgZmlsbD0iIzAwMDAwMCIgZm9udC1mYW1pbHk9InNhbnMtc2VyaWYiIGZvbnQtc2l6ZT0iMTQiIGxlbmd0aEFkanVzdD0ic3BhY2luZyIgdGV4dExlbmd0aD0iMjciIHg9IjE2NDAiIHk9Ijc3Ny40OTUxIj5BMDE8L3RleHQ+PHRleHQgZmlsbD0iIzAwMDAwMCIgZm9udC1mYW1pbHk9InNhbnMtc2VyaWYiIGZvbnQtc2l6ZT0iMTQiIGxlbmd0aEFkanVzdD0ic3BhY2luZyIgdGV4dExlbmd0aD0iMTQiIHg9IjE2NDYuNSIgeT0iNzkzLjc5MiI+JiM2NTUzMzs8L3RleHQ+PHRleHQgZmlsbD0iIzAwMDAwMCIgZm9udC1mYW1pbHk9InNhbnMtc2VyaWYiIGZvbnQtc2l6ZT0iMTQiIGxlbmd0aEFkanVzdD0ic3BhY2luZyIgdGV4dExlbmd0aD0iNTAiIHg9IjE2MjguNSIgeT0iODEwLjA4ODkiPkJyb2tlbjwvdGV4dD48dGV4dCBmaWxsPSIjMDAwMDAwIiBmb250LWZhbWlseT0ic2Fucy1zZXJpZiIgZm9udC1zaXplPSIxNCIgbGVuZ3RoQWRqdXN0PSJzcGFjaW5nIiB0ZXh0TGVuZ3RoPSI1MCIgeD0iMTYyOC41IiB5PSI4MjYuMzg1NyI+QWNjZXNzPC90ZXh0Pjx0ZXh0IGZpbGw9IiMwMDAwMDAiIGZvbnQtZmFtaWx5PSJzYW5zLXNlcmlmIiBmb250LXNpemU9IjE0IiBsZW5ndGhBZGp1c3Q9InNwYWNpbmciIHRleHRMZW5ndGg9IjUwIiB4PSIxNjI4LjUiIHk9Ijg0Mi42ODI2Ij5Db250cm9sPC90ZXh0PjwvZz48IS0tZW50aXR5IEEwN0lkZW50aWZpY2F0aW9uYW5kQXV0aGVudGljYXRpb25GYWlsdXJlcy0tPjxnIGlkPSJlbGVtX0EwN0lkZW50aWZpY2F0aW9uYW5kQXV0aGVudGljYXRpb25GYWlsdXJlcyI+PHBhdGggZD0iTTEwNTcuNSwzMjQgTDExNTMuNSwzMjQgTDExNjUuNSwzMzYgTDExNjUuNSw0NDQuNzgxMyBMMTE1My41LDQ1Ni43ODEzIEwxMDU3LjUsNDU2Ljc4MTMgTDEwNDUuNSw0NDQuNzgxMyBMMTA0NS41LDMzNiBMMTA1Ny41LDMyNCAiIGZpbGw9IiNFRkVGRkYiIHN0eWxlPSJzdHJva2U6IzE4MTgxODtzdHJva2Utd2lkdGg6MC41OyIvPjxpbWFnZSBoZWlnaHQ9IjE2IiB3aWR0aD0iMTYiIHg9IjExNDAuNSIgeGxpbms6aHJlZj0iZGF0YTppbWFnZS9wbmc7YmFzZTY0LGlWQk9SdzBLR2dvQUFBQU5TVWhFVWdBQUFCQUFBQUFRQ0FZQUFBQWY4LzloQUFBQU1VbEVRVlI0WG1OZ0dKYmdINGtZQmZ3N2MrYi9meGhHNTZOamlneWdTRFBGQmxDa21XSURLTktNMHdBUzhTaEFBd0FyWXh6NFVweHBlQUFBQUFCSlJVNUVya0pnZ2c9PSIgeT0iMzM0Ii8+PHRleHQgZmlsbD0iIzAwMDAwMCIgZm9udC1mYW1pbHk9InNhbnMtc2VyaWYiIGZvbnQtc2l6ZT0iMTQiIGxlbmd0aEFkanVzdD0ic3BhY2luZyIgdGV4dExlbmd0aD0iMjciIHg9IjEwOTIiIHk9IjM2MS45OTUxIj5BMDc8L3RleHQ+PHRleHQgZmlsbD0iIzAwMDAwMCIgZm9udC1mYW1pbHk9InNhbnMtc2VyaWYiIGZvbnQtc2l6ZT0iMTQiIGxlbmd0aEFkanVzdD0ic3BhY2luZyIgdGV4dExlbmd0aD0iMTQiIHg9IjEwOTguNSIgeT0iMzc4LjI5MiI+JiM2NTUzMzs8L3RleHQ+PHRleHQgZmlsbD0iIzAwMDAwMCIgZm9udC1mYW1pbHk9InNhbnMtc2VyaWYiIGZvbnQtc2l6ZT0iMTQiIGxlbmd0aEFkanVzdD0ic3BhY2luZyIgdGV4dExlbmd0aD0iODciIHg9IjEwNjIiIHk9IjM5NC41ODg5Ij5JZGVudGlmaWNhdGlvbjwvdGV4dD48dGV4dCBmaWxsPSIjMDAwMDAwIiBmb250LWZhbWlseT0ic2Fucy1zZXJpZiIgZm9udC1zaXplPSIxNCIgbGVuZ3RoQWRqdXN0PSJzcGFjaW5nIiB0ZXh0TGVuZ3RoPSIyNiIgeD0iMTA5Mi41IiB5PSI0MTAuODg1NyI+YW5kPC90ZXh0Pjx0ZXh0IGZpbGw9IiMwMDAwMDAiIGZvbnQtZmFtaWx5PSJzYW5zLXNlcmlmIiBmb250LXNpemU9IjE0IiBsZW5ndGhBZGp1c3Q9InNwYWNpbmciIHRleHRMZW5ndGg9IjEwMCIgeD0iMTA1NS41IiB5PSI0MjcuMTgyNiI+QXV0aGVudGljYXRpb248L3RleHQ+PHRleHQgZmlsbD0iIzAwMDAwMCIgZm9udC1mYW1pbHk9InNhbnMtc2VyaWYiIGZvbnQtc2l6ZT0iMTQiIGxlbmd0aEFkanVzdD0ic3BhY2luZyIgdGV4dExlbmd0aD0iNTMiIHg9IjEwNzkiIHk9IjQ0My40Nzk1Ij5GYWlsdXJlczwvdGV4dD48L2c+PCEtLWVudGl0eSBBMDNJbmplY3Rpb24tLT48ZyBpZD0iZWxlbV9BMDNJbmplY3Rpb24iPjxwYXRoIGQ9Ik01NTUuNSw3NTUuNSBMNjA5LjUsNzU1LjUgTDYyMS41LDc2Ny41IEw2MjEuNSw4MjcuMzkwNiBMNjA5LjUsODM5LjM5MDYgTDU1NS41LDgzOS4zOTA2IEw1NDMuNSw4MjcuMzkwNiBMNTQzLjUsNzY3LjUgTDU1NS41LDc1NS41ICIgZmlsbD0iI0VGRUZGRiIgc3R5bGU9InN0cm9rZTojMTgxODE4O3N0cm9rZS13aWR0aDowLjU7Ii8+PGltYWdlIGhlaWdodD0iMTYiIHdpZHRoPSIxNiIgeD0iNTk2LjUiIHhsaW5rOmhyZWY9ImRhdGE6aW1hZ2UvcG5nO2Jhc2U2NCxpVkJPUncwS0dnb0FBQUFOU1VoRVVnQUFBQkFBQUFBUUNBWUFBQUFmOC85aEFBQUFNVWxFUVZSNFhtTmdHSmJnSDRrWUJmdzdjK2IvZnhoRzU2TmppZ3lnU0RQRkJsQ2ttV0lES05LTTB3QVM4U2hBQXdBcll4ejRVcHhwZUFBQUFBQkpSVTVFcmtKZ2dnPT0iIHk9Ijc2NS41Ii8+PHRleHQgZmlsbD0iIzAwMDAwMCIgZm9udC1mYW1pbHk9InNhbnMtc2VyaWYiIGZvbnQtc2l6ZT0iMTQiIGxlbmd0aEFkanVzdD0ic3BhY2luZyIgdGV4dExlbmd0aD0iMjciIHg9IjU2OSIgeT0iNzkzLjQ5NTEiPkEwMzwvdGV4dD48dGV4dCBmaWxsPSIjMDAwMDAwIiBmb250LWZhbWlseT0ic2Fucy1zZXJpZiIgZm9udC1zaXplPSIxNCIgbGVuZ3RoQWRqdXN0PSJzcGFjaW5nIiB0ZXh0TGVuZ3RoPSIxNCIgeD0iNTc1LjUiIHk9IjgwOS43OTIiPiYjNjU1MzM7PC90ZXh0Pjx0ZXh0IGZpbGw9IiMwMDAwMDAiIGZvbnQtZmFtaWx5PSJzYW5zLXNlcmlmIiBmb250LXNpemU9IjE0IiBsZW5ndGhBZGp1c3Q9InNwYWNpbmciIHRleHRMZW5ndGg9IjU4IiB4PSI1NTMuNSIgeT0iODI2LjA4ODkiPkluamVjdGlvbjwvdGV4dD48L2c+PCEtLWVudGl0eSBBMDRJbnNlY3VyZURlc2lnbi0tPjxnIGlkPSJlbGVtX0EwNEluc2VjdXJlRGVzaWduIj48cGF0aCBkPSJNMTIwMS41LDc0Ny41IEwxMjU3LjUsNzQ3LjUgTDEyNjkuNSw3NTkuNSBMMTI2OS41LDgzNS42ODc1IEwxMjU3LjUsODQ3LjY4NzUgTDEyMDEuNSw4NDcuNjg3NSBMMTE4OS41LDgzNS42ODc1IEwxMTg5LjUsNzU5LjUgTDEyMDEuNSw3NDcuNSAiIGZpbGw9IiNFRkVGRkYiIHN0eWxlPSJzdHJva2U6IzE4MTgxODtzdHJva2Utd2lkdGg6MC41OyIvPjxpbWFnZSBoZWlnaHQ9IjE2IiB3aWR0aD0iMTYiIHg9IjEyNDQuNSIgeGxpbms6aHJlZj0iZGF0YTppbWFnZS9wbmc7YmFzZTY0LGlWQk9SdzBLR2dvQUFBQU5TVWhFVWdBQUFCQUFBQUFRQ0FZQUFBQWY4LzloQUFBQU1VbEVRVlI0WG1OZ0dKYmdINGtZQmZ3N2MrYi9meGhHNTZOamlneWdTRFBGQmxDa21XSURLTktNMHdBUzhTaEFBd0FyWXh6NFVweHBlQUFBQUFCSlJVNUVya0pnZ2c9PSIgeT0iNzU3LjUiLz48dGV4dCBmaWxsPSIjMDAwMDAwIiBmb250LWZhbWlseT0ic2Fucy1zZXJpZiIgZm9udC1zaXplPSIxNCIgbGVuZ3RoQWRqdXN0PSJzcGFjaW5nIiB0ZXh0TGVuZ3RoPSIyNyIgeD0iMTIxNiIgeT0iNzg1LjQ5NTEiPkEwNDwvdGV4dD48dGV4dCBmaWxsPSIjMDAwMDAwIiBmb250LWZhbWlseT0ic2Fucy1zZXJpZiIgZm9udC1zaXplPSIxNCIgbGVuZ3RoQWRqdXN0PSJzcGFjaW5nIiB0ZXh0TGVuZ3RoPSIxNCIgeD0iMTIyMi41IiB5PSI4MDEuNzkyIj4mIzY1NTMzOzwvdGV4dD48dGV4dCBmaWxsPSIjMDAwMDAwIiBmb250LWZhbWlseT0ic2Fucy1zZXJpZiIgZm9udC1zaXplPSIxNCIgbGVuZ3RoQWRqdXN0PSJzcGFjaW5nIiB0ZXh0TGVuZ3RoPSI2MCIgeD0iMTE5OS41IiB5PSI4MTguMDg4OSI+SW5zZWN1cmU8L3RleHQ+PHRleHQgZmlsbD0iIzAwMDAwMCIgZm9udC1mYW1pbHk9InNhbnMtc2VyaWYiIGZvbnQtc2l6ZT0iMTQiIGxlbmd0aEFkanVzdD0ic3BhY2luZyIgdGV4dExlbmd0aD0iNDkiIHg9IjEyMDUiIHk9IjgzNC4zODU3Ij5EZXNpZ248L3RleHQ+PC9nPjwhLS1lbnRpdHkgQTA1U2VjdXJpdHlNaXNjb25maWd1cmF0aW9uLS0+PGcgaWQ9ImVsZW1fQTA1U2VjdXJpdHlNaXNjb25maWd1cmF0aW9uIj48cGF0aCBkPSJNMTQ2Miw3NDcuNSBMMTU3MSw3NDcuNSBMMTU4Myw3NTkuNSBMMTU4Myw4MzUuNjg3NSBMMTU3MSw4NDcuNjg3NSBMMTQ2Miw4NDcuNjg3NSBMMTQ1MCw4MzUuNjg3NSBMMTQ1MCw3NTkuNSBMMTQ2Miw3NDcuNSAiIGZpbGw9IiNFRkVGRkYiIHN0eWxlPSJzdHJva2U6IzE4MTgxODtzdHJva2Utd2lkdGg6MC41OyIvPjxpbWFnZSBoZWlnaHQ9IjE2IiB3aWR0aD0iMTYiIHg9IjE1NTgiIHhsaW5rOmhyZWY9ImRhdGE6aW1hZ2UvcG5nO2Jhc2U2NCxpVkJPUncwS0dnb0FBQUFOU1VoRVVnQUFBQkFBQUFBUUNBWUFBQUFmOC85aEFBQUFNVWxFUVZSNFhtTmdHSmJnSDRrWUJmdzdjK2IvZnhoRzU2TmppZ3lnU0RQRkJsQ2ttV0lES05LTTB3QVM4U2hBQXdBcll4ejRVcHhwZUFBQUFBQkpSVTVFcmtKZ2dnPT0iIHk9Ijc1Ny41Ii8+PHRleHQgZmlsbD0iIzAwMDAwMCIgZm9udC1mYW1pbHk9InNhbnMtc2VyaWYiIGZvbnQtc2l6ZT0iMTQiIGxlbmd0aEFkanVzdD0ic3BhY2luZyIgdGV4dExlbmd0aD0iMjciIHg9IjE1MDMiIHk9Ijc4NS40OTUxIj5BMDU8L3RleHQ+PHRleHQgZmlsbD0iIzAwMDAwMCIgZm9udC1mYW1pbHk9InNhbnMtc2VyaWYiIGZvbnQtc2l6ZT0iMTQiIGxlbmd0aEFkanVzdD0ic3BhY2luZyIgdGV4dExlbmd0aD0iMTQiIHg9IjE1MDkuNSIgeT0iODAxLjc5MiI+JiM2NTUzMzs8L3RleHQ+PHRleHQgZmlsbD0iIzAwMDAwMCIgZm9udC1mYW1pbHk9InNhbnMtc2VyaWYiIGZvbnQtc2l6ZT0iMTQiIGxlbmd0aEFkanVzdD0ic3BhY2luZyIgdGV4dExlbmd0aD0iNTUiIHg9IjE0ODkiIHk9IjgxOC4wODg5Ij5TZWN1cml0eTwvdGV4dD48dGV4dCBmaWxsPSIjMDAwMDAwIiBmb250LWZhbWlseT0ic2Fucy1zZXJpZiIgZm9udC1zaXplPSIxNCIgbGVuZ3RoQWRqdXN0PSJzcGFjaW5nIiB0ZXh0TGVuZ3RoPSIxMTMiIHg9IjE0NjAiIHk9IjgzNC4zODU3Ij5NaXNjb25maWd1cmF0aW9uPC90ZXh0PjwvZz48IS0tZW50aXR5IEEwNlZ1bG5lcmFibGVhbmRPdXRkYXRlZENvbXBvbmVudHMtLT48ZyBpZD0iZWxlbV9BMDZWdWxuZXJhYmxlYW5kT3V0ZGF0ZWRDb21wb25lbnRzIj48cGF0aCBkPSJNMTMxNi41LDczMSBMMTQwMi41LDczMSBMMTQxNC41LDc0MyBMMTQxNC41LDg1MS43ODEzIEwxNDAyLjUsODYzLjc4MTMgTDEzMTYuNSw4NjMuNzgxMyBMMTMwNC41LDg1MS43ODEzIEwxMzA0LjUsNzQzIEwxMzE2LjUsNzMxICIgZmlsbD0iI0VGRUZGRiIgc3R5bGU9InN0cm9rZTojMTgxODE4O3N0cm9rZS13aWR0aDowLjU7Ii8+PGltYWdlIGhlaWdodD0iMTYiIHdpZHRoPSIxNiIgeD0iMTM4OS41IiB4bGluazpocmVmPSJkYXRhOmltYWdlL3BuZztiYXNlNjQsaVZCT1J3MEtHZ29BQUFBTlNVaEVVZ0FBQUJBQUFBQVFDQVlBQUFBZjgvOWhBQUFBTVVsRVFWUjRYbU5nR0piZ0g0a1lCZnc3YytiL2Z4aEc1Nk5qaWd5Z1NEUEZCbENrbVdJREtOS00wd0FTOFNoQUF3QXJZeHo0VXB4cGVBQUFBQUJKUlU1RXJrSmdnZz09IiB5PSI3NDEiLz48dGV4dCBmaWxsPSIjMDAwMDAwIiBmb250LWZhbWlseT0ic2Fucy1zZXJpZiIgZm9udC1zaXplPSIxNCIgbGVuZ3RoQWRqdXN0PSJzcGFjaW5nIiB0ZXh0TGVuZ3RoPSIyNyIgeD0iMTM0NiIgeT0iNzY4Ljk5NTEiPkEwNjwvdGV4dD48dGV4dCBmaWxsPSIjMDAwMDAwIiBmb250LWZhbWlseT0ic2Fucy1zZXJpZiIgZm9udC1zaXplPSIxNCIgbGVuZ3RoQWRqdXN0PSJzcGFjaW5nIiB0ZXh0TGVuZ3RoPSIxNCIgeD0iMTM1Mi41IiB5PSI3ODUuMjkyIj4mIzY1NTMzOzwvdGV4dD48dGV4dCBmaWxsPSIjMDAwMDAwIiBmb250LWZhbWlseT0ic2Fucy1zZXJpZiIgZm9udC1zaXplPSIxNCIgbGVuZ3RoQWRqdXN0PSJzcGFjaW5nIiB0ZXh0TGVuZ3RoPSI3MyIgeD0iMTMyMyIgeT0iODAxLjU4ODkiPlZ1bG5lcmFibGU8L3RleHQ+PHRleHQgZmlsbD0iIzAwMDAwMCIgZm9udC1mYW1pbHk9InNhbnMtc2VyaWYiIGZvbnQtc2l6ZT0iMTQiIGxlbmd0aEFkanVzdD0ic3BhY2luZyIgdGV4dExlbmd0aD0iMjYiIHg9IjEzNDYuNSIgeT0iODE3Ljg4NTciPmFuZDwvdGV4dD48dGV4dCBmaWxsPSIjMDAwMDAwIiBmb250LWZhbWlseT0ic2Fucy1zZXJpZiIgZm9udC1zaXplPSIxNCIgbGVuZ3RoQWRqdXN0PSJzcGFjaW5nIiB0ZXh0TGVuZ3RoPSI2NSIgeD0iMTMyNyIgeT0iODM0LjE4MjYiPk91dGRhdGVkPC90ZXh0Pjx0ZXh0IGZpbGw9IiMwMDAwMDAiIGZvbnQtZmFtaWx5PSJzYW5zLXNlcmlmIiBmb250LXNpemU9IjE0IiBsZW5ndGhBZGp1c3Q9InNwYWNpbmciIHRleHRMZW5ndGg9IjkwIiB4PSIxMzE0LjUiIHk9Ijg1MC40Nzk1Ij5Db21wb25lbnRzPC90ZXh0PjwvZz48IS0tZW50aXR5IEExMFNlcnZlclNpZGVSZXF1ZXN0Rm9yZ2VyeS0tPjxnIGlkPSJlbGVtX0ExMFNlcnZlclNpZGVSZXF1ZXN0Rm9yZ2VyeSI+PHBhdGggZD0iTTEwNjcsNzM5LjUgTDExNDIsNzM5LjUgTDExNTQsNzUxLjUgTDExNTQsODQzLjk4NDQgTDExNDIsODU1Ljk4NDQgTDEwNjcsODU1Ljk4NDQgTDEwNTUsODQzLjk4NDQgTDEwNTUsNzUxLjUgTDEwNjcsNzM5LjUgIiBmaWxsPSIjRUZFRkZGIiBzdHlsZT0ic3Ryb2tlOiMxODE4MTg7c3Ryb2tlLXdpZHRoOjAuNTsiLz48aW1hZ2UgaGVpZ2h0PSIxNiIgd2lkdGg9IjE2IiB4PSIxMTI5IiB4bGluazpocmVmPSJkYXRhOmltYWdlL3BuZztiYXNlNjQsaVZCT1J3MEtHZ29BQUFBTlNVaEVVZ0FBQUJBQUFBQVFDQVlBQUFBZjgvOWhBQUFBTVVsRVFWUjRYbU5nR0piZ0g0a1lCZnc3YytiL2Z4aEc1Nk5qaWd5Z1NEUEZCbENrbVdJREtOS00wd0FTOFNoQUF3QXJZeHo0VXB4cGVBQUFBQUJKUlU1RXJrSmdnZz09IiB5PSI3NDkuNSIvPjx0ZXh0IGZpbGw9IiMwMDAwMDAiIGZvbnQtZmFtaWx5PSJzYW5zLXNlcmlmIiBmb250LXNpemU9IjE0IiBsZW5ndGhBZGp1c3Q9InNwYWNpbmciIHRleHRMZW5ndGg9IjI3IiB4PSIxMDkxIiB5PSI3NzcuNDk1MSI+QTEwPC90ZXh0Pjx0ZXh0IGZpbGw9IiMwMDAwMDAiIGZvbnQtZmFtaWx5PSJzYW5zLXNlcmlmIiBmb250LXNpemU9IjE0IiBsZW5ndGhBZGp1c3Q9InNwYWNpbmciIHRleHRMZW5ndGg9IjUiIHg9IjExMDIiIHk9Ijc5My43OTIiPi08L3RleHQ+PHRleHQgZmlsbD0iIzAwMDAwMCIgZm9udC1mYW1pbHk9InNhbnMtc2VyaWYiIGZvbnQtc2l6ZT0iMTQiIGxlbmd0aEFkanVzdD0ic3BhY2luZyIgdGV4dExlbmd0aD0iNzkiIHg9IjEwNjUiIHk9IjgxMC4wODg5Ij5TZXJ2ZXItU2lkZTwvdGV4dD48dGV4dCBmaWxsPSIjMDAwMDAwIiBmb250LWZhbWlseT0ic2Fucy1zZXJpZiIgZm9udC1zaXplPSIxNCIgbGVuZ3RoQWRqdXN0PSJzcGFjaW5nIiB0ZXh0TGVuZ3RoPSI1OSIgeD0iMTA3NSIgeT0iODI2LjM4NTciPlJlcXVlc3Q8L3RleHQ+PHRleHQgZmlsbD0iIzAwMDAwMCIgZm9udC1mYW1pbHk9InNhbnMtc2VyaWYiIGZvbnQtc2l6ZT0iMTQiIGxlbmd0aEFkanVzdD0ic3BhY2luZyIgdGV4dExlbmd0aD0iNTIiIHg9IjEwNzguNSIgeT0iODQyLjY4MjYiPkZvcmdlcnk8L3RleHQ+PC9nPjwhLS1lbnRpdHkgQVJDSDE0MUFjY2Vzc0VuZm9yY2VtZW50UG9pbnRzLS0+PGcgaWQ9ImVsZW1fQVJDSDE0MUFjY2Vzc0VuZm9yY2VtZW50UG9pbnRzIj48cGF0aCBkPSJNMTc0OSwzNDAuNSBMMTgzNCwzNDAuNSBMMTg0NiwzNTIuNSBMMTg0Niw0MjguNjg3NSBMMTgzNCw0NDAuNjg3NSBMMTc0OSw0NDAuNjg3NSBMMTczNyw0MjguNjg3NSBMMTczNywzNTIuNSBMMTc0OSwzNDAuNSAiIGZpbGw9IiNFRkVGRkYiIHN0eWxlPSJzdHJva2U6IzE4MTgxODtzdHJva2Utd2lkdGg6MC41OyIvPjxpbWFnZSBoZWlnaHQ9IjE2IiB3aWR0aD0iMTYiIHg9IjE4MjEiIHhsaW5rOmhyZWY9ImRhdGE6aW1hZ2UvcG5nO2Jhc2U2NCxpVkJPUncwS0dnb0FBQUFOU1VoRVVnQUFBQkFBQUFBUUNBWUFBQUFmOC85aEFBQUFMa2xFUVZSNFhtTmdHSmJnSDRrWUJmdzdjK2IvZjJJeFJRWlFwSmxpQXlqU1RMRUJGR25HYVFDSmVCU2dBUURtVVM4Z1lzckxzQUFBQUFCSlJVNUVya0pnZ2c9PSIgeT0iMzUwLjUiLz48dGV4dCBmaWxsPSIjMDAwMDAwIiBmb250LWZhbWlseT0ic2Fucy1zZXJpZiIgZm9udC1zaXplPSIxNCIgbGVuZ3RoQWRqdXN0PSJzcGFjaW5nIiB0ZXh0TGVuZ3RoPSI3OSIgeD0iMTc1MiIgeT0iMzc4LjQ5NTEiPkFSQ0gtMS40LjE8L3RleHQ+PHRleHQgZmlsbD0iIzAwMDAwMCIgZm9udC1mYW1pbHk9InNhbnMtc2VyaWYiIGZvbnQtc2l6ZT0iMTQiIGxlbmd0aEFkanVzdD0ic3BhY2luZyIgdGV4dExlbmd0aD0iNTAiIHg9IjE3NjYuNSIgeT0iMzk0Ljc5MiI+QWNjZXNzPC90ZXh0Pjx0ZXh0IGZpbGw9IiMwMDAwMDAiIGZvbnQtZmFtaWx5PSJzYW5zLXNlcmlmIiBmb250LXNpemU9IjE0IiBsZW5ndGhBZGp1c3Q9InNwYWNpbmciIHRleHRMZW5ndGg9Ijg5IiB4PSIxNzQ3IiB5PSI0MTEuMDg4OSI+RW5mb3JjZW1lbnQ8L3RleHQ+PHRleHQgZmlsbD0iIzAwMDAwMCIgZm9udC1mYW1pbHk9InNhbnMtc2VyaWYiIGZvbnQtc2l6ZT0iMTQiIGxlbmd0aEFkanVzdD0ic3BhY2luZyIgdGV4dExlbmd0aD0iNDMiIHg9IjE3NzAiIHk9IjQyNy4zODU3Ij5Qb2ludHM8L3RleHQ+PC9nPjwhLS1lbnRpdHkgQTAxQnJva2VuQWNjZXNzQ29udHJvbF9yZXNvbHZlLS0+PGcgaWQ9ImVsZW1fQTAxQnJva2VuQWNjZXNzQ29udHJvbF9yZXNvbHZlIj48ZWxsaXBzZSBjeD0iMTY1My41IiBjeT0iNTkwIiBmaWxsPSIjRjVGNUY1IiByeD0iOCIgcnk9IjgiIHN0eWxlPSJzdHJva2U6IzE4MTgxODtzdHJva2Utd2lkdGg6MC41OyIvPjwvZz48IS0tZW50aXR5IEFSQ0gxNDRBY2Nlc3NDb250cm9sTWVjaGFuaXNtLS0+PGcgaWQ9ImVsZW1fQVJDSDE0NEFjY2Vzc0NvbnRyb2xNZWNoYW5pc20iPjxwYXRoIGQ9Ik0xNjE1LDM0MC41IEwxNjkwLDM0MC41IEwxNzAyLDM1Mi41IEwxNzAyLDQyOC42ODc1IEwxNjkwLDQ0MC42ODc1IEwxNjE1LDQ0MC42ODc1IEwxNjAzLDQyOC42ODc1IEwxNjAzLDM1Mi41IEwxNjE1LDM0MC41ICIgZmlsbD0iI0VGRUZGRiIgc3R5bGU9InN0cm9rZTojMTgxODE4O3N0cm9rZS13aWR0aDowLjU7Ii8+PGltYWdlIGhlaWdodD0iMTYiIHdpZHRoPSIxNiIgeD0iMTY3NyIgeGxpbms6aHJlZj0iZGF0YTppbWFnZS9wbmc7YmFzZTY0LGlWQk9SdzBLR2dvQUFBQU5TVWhFVWdBQUFCQUFBQUFRQ0FZQUFBQWY4LzloQUFBQUxrbEVRVlI0WG1OZ0dKYmdINGtZQmZ3N2MrYi9mMkl4UlFaUXBKbGlBeWpTVExFQkZHbkdhUUNKZUJTZ0FRRG1VUzhnWXNyTHNBQUFBQUJKUlU1RXJrSmdnZz09IiB5PSIzNTAuNSIvPjx0ZXh0IGZpbGw9IiMwMDAwMDAiIGZvbnQtZmFtaWx5PSJzYW5zLXNlcmlmIiBmb250LXNpemU9IjE0IiBsZW5ndGhBZGp1c3Q9InNwYWNpbmciIHRleHRMZW5ndGg9Ijc5IiB4PSIxNjEzIiB5PSIzNzguNDk1MSI+QVJDSC0xLjQuNDwvdGV4dD48dGV4dCBmaWxsPSIjMDAwMDAwIiBmb250LWZhbWlseT0ic2Fucy1zZXJpZiIgZm9udC1zaXplPSIxNCIgbGVuZ3RoQWRqdXN0PSJzcGFjaW5nIiB0ZXh0TGVuZ3RoPSI1MCIgeD0iMTYyNy41IiB5PSIzOTQuNzkyIj5BY2Nlc3M8L3RleHQ+PHRleHQgZmlsbD0iIzAwMDAwMCIgZm9udC1mYW1pbHk9InNhbnMtc2VyaWYiIGZvbnQtc2l6ZT0iMTQiIGxlbmd0aEFkanVzdD0ic3BhY2luZyIgdGV4dExlbmd0aD0iNTAiIHg9IjE2MjcuNSIgeT0iNDExLjA4ODkiPkNvbnRyb2w8L3RleHQ+PHRleHQgZmlsbD0iIzAwMDAwMCIgZm9udC1mYW1pbHk9InNhbnMtc2VyaWYiIGZvbnQtc2l6ZT0iMTQiIGxlbmd0aEFkanVzdD0ic3BhY2luZyIgdGV4dExlbmd0aD0iNzkiIHg9IjE2MTMiIHk9IjQyNy4zODU3Ij5NZWNoYW5pc208L3RleHQ+PC9nPjwhLS1lbnRpdHkgQVJDSDEyM0F1dGhlbnRpY2F0aW9uTWVjaGFuaXNtLS0+PGcgaWQ9ImVsZW1fQVJDSDEyM0F1dGhlbnRpY2F0aW9uTWVjaGFuaXNtIj48cGF0aCBkPSJNOTc5LjUsMTQgTDEwNzUuNSwxNCBMMTA4Ny41LDI2IEwxMDg3LjUsODUuODkwNiBMMTA3NS41LDk3Ljg5MDYgTDk3OS41LDk3Ljg5MDYgTDk2Ny41LDg1Ljg5MDYgTDk2Ny41LDI2IEw5NzkuNSwxNCAiIGZpbGw9IiNFRkVGRkYiIHN0eWxlPSJzdHJva2U6IzE4MTgxODtzdHJva2Utd2lkdGg6MC41OyIvPjxpbWFnZSBoZWlnaHQ9IjE2IiB3aWR0aD0iMTYiIHg9IjEwNjIuNSIgeGxpbms6aHJlZj0iZGF0YTppbWFnZS9wbmc7YmFzZTY0LGlWQk9SdzBLR2dvQUFBQU5TVWhFVWdBQUFCQUFBQUFRQ0FZQUFBQWY4LzloQUFBQUxrbEVRVlI0WG1OZ0dKYmdINGtZQmZ3N2MrYi9mMkl4UlFaUXBKbGlBeWpTVExFQkZHbkdhUUNKZUJTZ0FRRG1VUzhnWXNyTHNBQUFBQUJKUlU1RXJrSmdnZz09IiB5PSIyNCIvPjx0ZXh0IGZpbGw9IiMwMDAwMDAiIGZvbnQtZmFtaWx5PSJzYW5zLXNlcmlmIiBmb250LXNpemU9IjE0IiBsZW5ndGhBZGp1c3Q9InNwYWNpbmciIHRleHRMZW5ndGg9Ijc5IiB4PSI5ODgiIHk9IjUxLjk5NTEiPkFSQ0gtMS4yLjM8L3RleHQ+PHRleHQgZmlsbD0iIzAwMDAwMCIgZm9udC1mYW1pbHk9InNhbnMtc2VyaWYiIGZvbnQtc2l6ZT0iMTQiIGxlbmd0aEFkanVzdD0ic3BhY2luZyIgdGV4dExlbmd0aD0iMTAwIiB4PSI5NzcuNSIgeT0iNjguMjkyIj5BdXRoZW50aWNhdGlvbjwvdGV4dD48dGV4dCBmaWxsPSIjMDAwMDAwIiBmb250LWZhbWlseT0ic2Fucy1zZXJpZiIgZm9udC1zaXplPSIxNCIgbGVuZ3RoQWRqdXN0PSJzcGFjaW5nIiB0ZXh0TGVuZ3RoPSI3OSIgeD0iOTg4IiB5PSI4NC41ODg5Ij5NZWNoYW5pc208L3RleHQ+PC9nPjwhLS1lbnRpdHkgQTA3SWRlbnRpZmljYXRpb25hbmRBdXRoZW50aWNhdGlvbkZhaWx1cmVzX3Jlc29sdmUtLT48ZyBpZD0iZWxlbV9BMDdJZGVudGlmaWNhdGlvbmFuZEF1dGhlbnRpY2F0aW9uRmFpbHVyZXNfcmVzb2x2ZSI+PGVsbGlwc2UgY3g9IjExMDUuNSIgY3k9IjIxNSIgZmlsbD0iI0Y1RjVGNSIgcng9IjgiIHJ5PSI4IiBzdHlsZT0ic3Ryb2tlOiMxODE4MTg7c3Ryb2tlLXdpZHRoOjAuNTsiLz48L2c+PCEtLWVudGl0eSBBUkNIMTI0QXV0aGVudGljYXRpb25wYXRocy0tPjxnIGlkPSJlbGVtX0FSQ0gxMjRBdXRoZW50aWNhdGlvbnBhdGhzIj48cGF0aCBkPSJNMTEzNC41LDE0IEwxMjMwLjUsMTQgTDEyNDIuNSwyNiBMMTI0Mi41LDg1Ljg5MDYgTDEyMzAuNSw5Ny44OTA2IEwxMTM0LjUsOTcuODkwNiBMMTEyMi41LDg1Ljg5MDYgTDExMjIuNSwyNiBMMTEzNC41LDE0ICIgZmlsbD0iI0VGRUZGRiIgc3R5bGU9InN0cm9rZTojMTgxODE4O3N0cm9rZS13aWR0aDowLjU7Ii8+PGltYWdlIGhlaWdodD0iMTYiIHdpZHRoPSIxNiIgeD0iMTIxNy41IiB4bGluazpocmVmPSJkYXRhOmltYWdlL3BuZztiYXNlNjQsaVZCT1J3MEtHZ29BQUFBTlNVaEVVZ0FBQUJBQUFBQVFDQVlBQUFBZjgvOWhBQUFBTGtsRVFWUjRYbU5nR0piZ0g0a1lCZnc3YytiL2YySXhSUVpRcEpsaUF5alNUTEVCRkduR2FRQ0plQlNnQVFEbVVTOGdZc3JMc0FBQUFBQkpSVTVFcmtKZ2dnPT0iIHk9IjI0Ii8+PHRleHQgZmlsbD0iIzAwMDAwMCIgZm9udC1mYW1pbHk9InNhbnMtc2VyaWYiIGZvbnQtc2l6ZT0iMTQiIGxlbmd0aEFkanVzdD0ic3BhY2luZyIgdGV4dExlbmd0aD0iNzkiIHg9IjExNDMiIHk9IjUxLjk5NTEiPkFSQ0gtMS4yLjQ8L3RleHQ+PHRleHQgZmlsbD0iIzAwMDAwMCIgZm9udC1mYW1pbHk9InNhbnMtc2VyaWYiIGZvbnQtc2l6ZT0iMTQiIGxlbmd0aEFkanVzdD0ic3BhY2luZyIgdGV4dExlbmd0aD0iMTAwIiB4PSIxMTMyLjUiIHk9IjY4LjI5MiI+QXV0aGVudGljYXRpb248L3RleHQ+PHRleHQgZmlsbD0iIzAwMDAwMCIgZm9udC1mYW1pbHk9InNhbnMtc2VyaWYiIGZvbnQtc2l6ZT0iMTQiIGxlbmd0aEFkanVzdD0ic3BhY2luZyIgdGV4dExlbmd0aD0iMzkiIHg9IjExNjMiIHk9Ijg0LjU4ODkiPnBhdGhzPC90ZXh0PjwvZz48IS0tZW50aXR5IEFSQ0gxNTJTZXJpYWxpemF0aW9uLS0+PGcgaWQ9ImVsZW1fQVJDSDE1MlNlcmlhbGl6YXRpb24iPjxwYXRoIGQ9Ik0xMDcuNSwzNTYuNSBMMTg1LjUsMzU2LjUgTDE5Ny41LDM2OC41IEwxOTcuNSw0MTIuMDkzOCBMMTg1LjUsNDI0LjA5MzggTDEwNy41LDQyNC4wOTM4IEw5NS41LDQxMi4wOTM4IEw5NS41LDM2OC41IEwxMDcuNSwzNTYuNSAiIGZpbGw9IiNFRkVGRkYiIHN0eWxlPSJzdHJva2U6IzE4MTgxODtzdHJva2Utd2lkdGg6MC41OyIvPjxpbWFnZSBoZWlnaHQ9IjE2IiB3aWR0aD0iMTYiIHg9IjE3Mi41IiB4bGluazpocmVmPSJkYXRhOmltYWdlL3BuZztiYXNlNjQsaVZCT1J3MEtHZ29BQUFBTlNVaEVVZ0FBQUJBQUFBQVFDQVlBQUFBZjgvOWhBQUFBTGtsRVFWUjRYbU5nR0piZ0g0a1lCZnc3YytiL2YySXhSUVpRcEpsaUF5alNUTEVCRkduR2FRQ0plQlNnQVFEbVVTOGdZc3JMc0FBQUFBQkpSVTVFcmtKZ2dnPT0iIHk9IjM2Ni41Ii8+PHRleHQgZmlsbD0iIzAwMDAwMCIgZm9udC1mYW1pbHk9InNhbnMtc2VyaWYiIGZvbnQtc2l6ZT0iMTQiIGxlbmd0aEFkanVzdD0ic3BhY2luZyIgdGV4dExlbmd0aD0iNzkiIHg9IjEwNyIgeT0iMzk0LjQ5NTEiPkFSQ0gtMS41LjI8L3RleHQ+PHRleHQgZmlsbD0iIzAwMDAwMCIgZm9udC1mYW1pbHk9InNhbnMtc2VyaWYiIGZvbnQtc2l6ZT0iMTQiIGxlbmd0aEFkanVzdD0ic3BhY2luZyIgdGV4dExlbmd0aD0iODIiIHg9IjEwNS41IiB5PSI0MTAuNzkyIj5TZXJpYWxpemF0aW9uPC90ZXh0PjwvZz48IS0tZW50aXR5IEEwOFNvZnR3YXJlYW5kRGF0YUludGVncml0eUZhaWx1cmVzX3Jlc29sdmUtLT48ZyBpZD0iZWxlbV9BMDhTb2Z0d2FyZWFuZERhdGFJbnRlZ3JpdHlGYWlsdXJlc19yZXNvbHZlIj48ZWxsaXBzZSBjeD0iNDQ5LjUiIGN5PSI1OTAiIGZpbGw9IiNGNUY1RjUiIHJ4PSI4IiByeT0iOCIgc3R5bGU9InN0cm9rZTojMTgxODE4O3N0cm9rZS13aWR0aDowLjU7Ii8+PC9nPjwhLS1lbnRpdHkgQVJDSDE1M0lucHV0dmFsaWRhdGlvbi0tPjxnIGlkPSJlbGVtX0FSQ0gxNTNJbnB1dHZhbGlkYXRpb24iPjxwYXRoIGQ9Ik0yNDUsMzQ4LjUgTDMyMCwzNDguNSBMMzMyLDM2MC41IEwzMzIsNDIwLjM5MDYgTDMyMCw0MzIuMzkwNiBMMjQ1LDQzMi4zOTA2IEwyMzMsNDIwLjM5MDYgTDIzMywzNjAuNSBMMjQ1LDM0OC41ICIgZmlsbD0iI0VGRUZGRiIgc3R5bGU9InN0cm9rZTojMTgxODE4O3N0cm9rZS13aWR0aDowLjU7Ii8+PGltYWdlIGhlaWdodD0iMTYiIHdpZHRoPSIxNiIgeD0iMzA3IiB4bGluazpocmVmPSJkYXRhOmltYWdlL3BuZztiYXNlNjQsaVZCT1J3MEtHZ29BQUFBTlNVaEVVZ0FBQUJBQUFBQVFDQVlBQUFBZjgvOWhBQUFBTGtsRVFWUjRYbU5nR0piZ0g0a1lCZnc3YytiL2YySXhSUVpRcEpsaUF5alNUTEVCRkduR2FRQ0plQlNnQVFEbVVTOGdZc3JMc0FBQUFBQkpSVTVFcmtKZ2dnPT0iIHk9IjM1OC41Ii8+PHRleHQgZmlsbD0iIzAwMDAwMCIgZm9udC1mYW1pbHk9InNhbnMtc2VyaWYiIGZvbnQtc2l6ZT0iMTQiIGxlbmd0aEFkanVzdD0ic3BhY2luZyIgdGV4dExlbmd0aD0iNzkiIHg9IjI0MyIgeT0iMzg2LjQ5NTEiPkFSQ0gtMS41LjM8L3RleHQ+PHRleHQgZmlsbD0iIzAwMDAwMCIgZm9udC1mYW1pbHk9InNhbnMtc2VyaWYiIGZvbnQtc2l6ZT0iMTQiIGxlbmd0aEFkanVzdD0ic3BhY2luZyIgdGV4dExlbmd0aD0iMzUiIHg9IjI2NSIgeT0iNDAyLjc5MiI+SW5wdXQ8L3RleHQ+PHRleHQgZmlsbD0iIzAwMDAwMCIgZm9udC1mYW1pbHk9InNhbnMtc2VyaWYiIGZvbnQtc2l6ZT0iMTQiIGxlbmd0aEFkanVzdD0ic3BhY2luZyIgdGV4dExlbmd0aD0iNjQiIHg9IjI1MC41IiB5PSI0MTkuMDg4OSI+dmFsaWRhdGlvbjwvdGV4dD48L2c+PCEtLWVudGl0eSBBUkNIMTExU0RMQy0tPjxnIGlkPSJlbGVtX0FSQ0gxMTFTRExDIj48cGF0aCBkPSJNMTQ4MSwzNTYuNSBMMTU1NiwzNTYuNSBMMTU2OCwzNjguNSBMMTU2OCw0MTIuMDkzOCBMMTU1Niw0MjQuMDkzOCBMMTQ4MSw0MjQuMDkzOCBMMTQ2OSw0MTIuMDkzOCBMMTQ2OSwzNjguNSBMMTQ4MSwzNTYuNSAiIGZpbGw9IiNFRkVGRkYiIHN0eWxlPSJzdHJva2U6IzE4MTgxODtzdHJva2Utd2lkdGg6MC41OyIvPjxpbWFnZSBoZWlnaHQ9IjE2IiB3aWR0aD0iMTYiIHg9IjE1NDMiIHhsaW5rOmhyZWY9ImRhdGE6aW1hZ2UvcG5nO2Jhc2U2NCxpVkJPUncwS0dnb0FBQUFOU1VoRVVnQUFBQkFBQUFBUUNBWUFBQUFmOC85aEFBQUFMa2xFUVZSNFhtTmdHSmJnSDRrWUJmdzdjK2IvZjJJeFJRWlFwSmxpQXlqU1RMRUJGR25HYVFDSmVCU2dBUURtVVM4Z1lzckxzQUFBQUFCSlJVNUVya0pnZ2c9PSIgeT0iMzY2LjUiLz48dGV4dCBmaWxsPSIjMDAwMDAwIiBmb250LWZhbWlseT0ic2Fucy1zZXJpZiIgZm9udC1zaXplPSIxNCIgbGVuZ3RoQWRqdXN0PSJzcGFjaW5nIiB0ZXh0TGVuZ3RoPSI3OSIgeD0iMTQ3OSIgeT0iMzk0LjQ5NTEiPkFSQ0gtMS4xLjE8L3RleHQ+PHRleHQgZmlsbD0iIzAwMDAwMCIgZm9udC1mYW1pbHk9InNhbnMtc2VyaWYiIGZvbnQtc2l6ZT0iMTQiIGxlbmd0aEFkanVzdD0ic3BhY2luZyIgdGV4dExlbmd0aD0iMzciIHg9IjE1MDAiIHk9IjQxMC43OTIiPlNETEM8L3RleHQ+PC9nPjwhLS1lbnRpdHkgQVJDSDE3MUxvZ2dpbmctLT48ZyBpZD0iZWxlbV9BUkNIMTcxTG9nZ2luZyI+PHBhdGggZD0iTTUxMywzNTYuNSBMNTg4LDM1Ni41IEw2MDAsMzY4LjUgTDYwMCw0MTIuMDkzOCBMNTg4LDQyNC4wOTM4IEw1MTMsNDI0LjA5MzggTDUwMSw0MTIuMDkzOCBMNTAxLDM2OC41IEw1MTMsMzU2LjUgIiBmaWxsPSIjRUZFRkZGIiBzdHlsZT0ic3Ryb2tlOiMxODE4MTg7c3Ryb2tlLXdpZHRoOjAuNTsiLz48aW1hZ2UgaGVpZ2h0PSIxNiIgd2lkdGg9IjE2IiB4PSI1NzUiIHhsaW5rOmhyZWY9ImRhdGE6aW1hZ2UvcG5nO2Jhc2U2NCxpVkJPUncwS0dnb0FBQUFOU1VoRVVnQUFBQkFBQUFBUUNBWUFBQUFmOC85aEFBQUFMa2xFUVZSNFhtTmdHSmJnSDRrWUJmdzdjK2IvZjJJeFJRWlFwSmxpQXlqU1RMRUJGR25HYVFDSmVCU2dBUURtVVM4Z1lzckxzQUFBQUFCSlJVNUVya0pnZ2c9PSIgeT0iMzY2LjUiLz48dGV4dCBmaWxsPSIjMDAwMDAwIiBmb250LWZhbWlseT0ic2Fucy1zZXJpZiIgZm9udC1zaXplPSIxNCIgbGVuZ3RoQWRqdXN0PSJzcGFjaW5nIiB0ZXh0TGVuZ3RoPSI3OSIgeD0iNTExIiB5PSIzOTQuNDk1MSI+QVJDSC0xLjcuMTwvdGV4dD48dGV4dCBmaWxsPSIjMDAwMDAwIiBmb250LWZhbWlseT0ic2Fucy1zZXJpZiIgZm9udC1zaXplPSIxNCIgbGVuZ3RoQWRqdXN0PSJzcGFjaW5nIiB0ZXh0TGVuZ3RoPSI1NSIgeD0iNTIzIiB5PSI0MTAuNzkyIj5Mb2dnaW5nPC90ZXh0PjwvZz48IS0tZW50aXR5IEEwOVNlY3VyaXR5TG9nZ2luZ2FuZE1vbml0b3JpbmdGYWlsdXJlc19yZXNvbHZlLS0+PGcgaWQ9ImVsZW1fQTA5U2VjdXJpdHlMb2dnaW5nYW5kTW9uaXRvcmluZ0ZhaWx1cmVzX3Jlc29sdmUiPjxlbGxpcHNlIGN4PSI2MzEuNSIgY3k9IjU5MCIgZmlsbD0iI0Y1RjVGNSIgcng9IjgiIHJ5PSI4IiBzdHlsZT0ic3Ryb2tlOiMxODE4MTg7c3Ryb2tlLXdpZHRoOjAuNTsiLz48L2c+PCEtLWVudGl0eSBBUkNIMTE2RGVzaWduYW5kQXJjaGl0ZWN0U2VjdXJpdHlJbi0tPjxnIGlkPSJlbGVtX0FSQ0gxMTZEZXNpZ25hbmRBcmNoaXRlY3RTZWN1cml0eUluIj48cGF0aCBkPSJNMTM0NywzMjQgTDE0MjIsMzI0IEwxNDM0LDMzNiBMMTQzNCw0NDQuNzgxMyBMMTQyMiw0NTYuNzgxMyBMMTM0Nyw0NTYuNzgxMyBMMTMzNSw0NDQuNzgxMyBMMTMzNSwzMzYgTDEzNDcsMzI0ICIgZmlsbD0iI0VGRUZGRiIgc3R5bGU9InN0cm9rZTojMTgxODE4O3N0cm9rZS13aWR0aDowLjU7Ii8+PGltYWdlIGhlaWdodD0iMTYiIHdpZHRoPSIxNiIgeD0iMTQwOSIgeGxpbms6aHJlZj0iZGF0YTppbWFnZS9wbmc7YmFzZTY0LGlWQk9SdzBLR2dvQUFBQU5TVWhFVWdBQUFCQUFBQUFRQ0FZQUFBQWY4LzloQUFBQUxrbEVRVlI0WG1OZ0dKYmdINGtZQmZ3N2MrYi9mMkl4UlFaUXBKbGlBeWpTVExFQkZHbkdhUUNKZUJTZ0FRRG1VUzhnWXNyTHNBQUFBQUJKUlU1RXJrSmdnZz09IiB5PSIzMzQiLz48dGV4dCBmaWxsPSIjMDAwMDAwIiBmb250LWZhbWlseT0ic2Fucy1zZXJpZiIgZm9udC1zaXplPSIxNCIgbGVuZ3RoQWRqdXN0PSJzcGFjaW5nIiB0ZXh0TGVuZ3RoPSI3OSIgeD0iMTM0NSIgeT0iMzYxLjk5NTEiPkFSQ0gtMS4xLjY8L3RleHQ+PHRleHQgZmlsbD0iIzAwMDAwMCIgZm9udC1mYW1pbHk9InNhbnMtc2VyaWYiIGZvbnQtc2l6ZT0iMTQiIGxlbmd0aEFkanVzdD0ic3BhY2luZyIgdGV4dExlbmd0aD0iNDkiIHg9IjEzNjAiIHk9IjM3OC4yOTIiPkRlc2lnbjwvdGV4dD48dGV4dCBmaWxsPSIjMDAwMDAwIiBmb250LWZhbWlseT0ic2Fucy1zZXJpZiIgZm9udC1zaXplPSIxNCIgbGVuZ3RoQWRqdXN0PSJzcGFjaW5nIiB0ZXh0TGVuZ3RoPSIyNiIgeD0iMTM3MS41IiB5PSIzOTQuNTg4OSI+YW5kPC90ZXh0Pjx0ZXh0IGZpbGw9IiMwMDAwMDAiIGZvbnQtZmFtaWx5PSJzYW5zLXNlcmlmIiBmb250LXNpemU9IjE0IiBsZW5ndGhBZGp1c3Q9InNwYWNpbmciIHRleHRMZW5ndGg9IjYxIiB4PSIxMzU0IiB5PSI0MTAuODg1NyI+QXJjaGl0ZWN0PC90ZXh0Pjx0ZXh0IGZpbGw9IiMwMDAwMDAiIGZvbnQtZmFtaWx5PSJzYW5zLXNlcmlmIiBmb250LXNpemU9IjE0IiBsZW5ndGhBZGp1c3Q9InNwYWNpbmciIHRleHRMZW5ndGg9IjU1IiB4PSIxMzU3IiB5PSI0MjcuMTgyNiI+U2VjdXJpdHk8L3RleHQ+PHRleHQgZmlsbD0iIzAwMDAwMCIgZm9udC1mYW1pbHk9InNhbnMtc2VyaWYiIGZvbnQtc2l6ZT0iMTQiIGxlbmd0aEFkanVzdD0ic3BhY2luZyIgdGV4dExlbmd0aD0iMTIiIHg9IjEzNzguNSIgeT0iNDQzLjQ3OTUiPkluPC90ZXh0PjwvZz48IS0tZW50aXR5IEEwNEluc2VjdXJlRGVzaWduX3Jlc29sdmUtLT48ZyBpZD0iZWxlbV9BMDRJbnNlY3VyZURlc2lnbl9yZXNvbHZlIj48ZWxsaXBzZSBjeD0iMTI0NS41IiBjeT0iNTkwIiBmaWxsPSIjRjVGNUY1IiByeD0iOCIgcnk9IjgiIHN0eWxlPSJzdHJva2U6IzE4MTgxODtzdHJva2Utd2lkdGg6MC41OyIvPjwvZz48IS0tZW50aXR5IEFSQ0gxMTNGZWF0dXJlc2FuZFVzZXJzdG9yaWVzLS0+PGcgaWQ9ImVsZW1fQVJDSDExM0ZlYXR1cmVzYW5kVXNlcnN0b3JpZXMiPjxwYXRoIGQ9Ik05MjMsMzMyLjUgTDk5OCwzMzIuNSBMMTAxMCwzNDQuNSBMMTAxMCw0MzYuOTg0NCBMOTk4LDQ0OC45ODQ0IEw5MjMsNDQ4Ljk4NDQgTDkxMSw0MzYuOTg0NCBMOTExLDM0NC41IEw5MjMsMzMyLjUgIiBmaWxsPSIjRUZFRkZGIiBzdHlsZT0ic3Ryb2tlOiMxODE4MTg7c3Ryb2tlLXdpZHRoOjAuNTsiLz48aW1hZ2UgaGVpZ2h0PSIxNiIgd2lkdGg9IjE2IiB4PSI5ODUiIHhsaW5rOmhyZWY9ImRhdGE6aW1hZ2UvcG5nO2Jhc2U2NCxpVkJPUncwS0dnb0FBQUFOU1VoRVVnQUFBQkFBQUFBUUNBWUFBQUFmOC85aEFBQUFMa2xFUVZSNFhtTmdHSmJnSDRrWUJmdzdjK2IvZjJJeFJRWlFwSmxpQXlqU1RMRUJGR25HYVFDSmVCU2dBUURtVVM4Z1lzckxzQUFBQUFCSlJVNUVya0pnZ2c9PSIgeT0iMzQyLjUiLz48dGV4dCBmaWxsPSIjMDAwMDAwIiBmb250LWZhbWlseT0ic2Fucy1zZXJpZiIgZm9udC1zaXplPSIxNCIgbGVuZ3RoQWRqdXN0PSJzcGFjaW5nIiB0ZXh0TGVuZ3RoPSI3OSIgeD0iOTIxIiB5PSIzNzAuNDk1MSI+QVJDSC0xLjEuMzwvdGV4dD48dGV4dCBmaWxsPSIjMDAwMDAwIiBmb250LWZhbWlseT0ic2Fucy1zZXJpZiIgZm9udC1zaXplPSIxNCIgbGVuZ3RoQWRqdXN0PSJzcGFjaW5nIiB0ZXh0TGVuZ3RoPSI2MSIgeD0iOTMwIiB5PSIzODYuNzkyIj5GZWF0dXJlczwvdGV4dD48dGV4dCBmaWxsPSIjMDAwMDAwIiBmb250LWZhbWlseT0ic2Fucy1zZXJpZiIgZm9udC1zaXplPSIxNCIgbGVuZ3RoQWRqdXN0PSJzcGFjaW5nIiB0ZXh0TGVuZ3RoPSIyNiIgeD0iOTQ3LjUiIHk9IjQwMy4wODg5Ij5hbmQ8L3RleHQ+PHRleHQgZmlsbD0iIzAwMDAwMCIgZm9udC1mYW1pbHk9InNhbnMtc2VyaWYiIGZvbnQtc2l6ZT0iMTQiIGxlbmd0aEFkanVzdD0ic3BhY2luZyIgdGV4dExlbmd0aD0iMzIiIHg9Ijk0NC41IiB5PSI0MTkuMzg1NyI+VXNlcjwvdGV4dD48dGV4dCBmaWxsPSIjMDAwMDAwIiBmb250LWZhbWlseT0ic2Fucy1zZXJpZiIgZm9udC1zaXplPSIxNCIgbGVuZ3RoQWRqdXN0PSJzcGFjaW5nIiB0ZXh0TGVuZ3RoPSI0NyIgeD0iOTM3IiB5PSI0MzUuNjgyNiI+c3RvcmllczwvdGV4dD48L2c+PCEtLWVudGl0eSBBUkNIMTEyVGhyZWF0bW9kZWxpbmctLT48ZyBpZD0iZWxlbV9BUkNIMTEyVGhyZWF0bW9kZWxpbmciPjxwYXRoIGQ9Ik0xMjEzLDM0OC41IEwxMjg4LDM0OC41IEwxMzAwLDM2MC41IEwxMzAwLDQyMC4zOTA2IEwxMjg4LDQzMi4zOTA2IEwxMjEzLDQzMi4zOTA2IEwxMjAxLDQyMC4zOTA2IEwxMjAxLDM2MC41IEwxMjEzLDM0OC41ICIgZmlsbD0iI0VGRUZGRiIgc3R5bGU9InN0cm9rZTojMTgxODE4O3N0cm9rZS13aWR0aDowLjU7Ii8+PGltYWdlIGhlaWdodD0iMTYiIHdpZHRoPSIxNiIgeD0iMTI3NSIgeGxpbms6aHJlZj0iZGF0YTppbWFnZS9wbmc7YmFzZTY0LGlWQk9SdzBLR2dvQUFBQU5TVWhFVWdBQUFCQUFBQUFRQ0FZQUFBQWY4LzloQUFBQUxrbEVRVlI0WG1OZ0dKYmdINGtZQmZ3N2MrYi9mMkl4UlFaUXBKbGlBeWpTVExFQkZHbkdhUUNKZUJTZ0FRRG1VUzhnWXNyTHNBQUFBQUJKUlU1RXJrSmdnZz09IiB5PSIzNTguNSIvPjx0ZXh0IGZpbGw9IiMwMDAwMDAiIGZvbnQtZmFtaWx5PSJzYW5zLXNlcmlmIiBmb250LXNpemU9IjE0IiBsZW5ndGhBZGp1c3Q9InNwYWNpbmciIHRleHRMZW5ndGg9Ijc5IiB4PSIxMjExIiB5PSIzODYuNDk1MSI+QVJDSC0xLjEuMjwvdGV4dD48dGV4dCBmaWxsPSIjMDAwMDAwIiBmb250LWZhbWlseT0ic2Fucy1zZXJpZiIgZm9udC1zaXplPSIxNCIgbGVuZ3RoQWRqdXN0PSJzcGFjaW5nIiB0ZXh0TGVuZ3RoPSI0NSIgeD0iMTIyOCIgeT0iNDAyLjc5MiI+VGhyZWF0PC90ZXh0Pjx0ZXh0IGZpbGw9IiMwMDAwMDAiIGZvbnQtZmFtaWx5PSJzYW5zLXNlcmlmIiBmb250LXNpemU9IjE0IiBsZW5ndGhBZGp1c3Q9InNwYWNpbmciIHRleHRMZW5ndGg9IjY0IiB4PSIxMjE4LjUiIHk9IjQxOS4wODg5Ij5tb2RlbGluZzwvdGV4dD48L2c+PCEtLWVudGl0eSBBMDZWdWxuZXJhYmxlYW5kT3V0ZGF0ZWRDb21wb25lbnRzX3Jlc29sdmUtLT48ZyBpZD0iZWxlbV9BMDZWdWxuZXJhYmxlYW5kT3V0ZGF0ZWRDb21wb25lbnRzX3Jlc29sdmUiPjxlbGxpcHNlIGN4PSIxMzk0LjUiIGN5PSI1OTAiIGZpbGw9IiNGNUY1RjUiIHJ4PSI4IiByeT0iOCIgc3R5bGU9InN0cm9rZTojMTgxODE4O3N0cm9rZS13aWR0aDowLjU7Ii8+PC9nPjwhLS1lbnRpdHkgQTAzSW5qZWN0aW9uX3Jlc29sdmUtLT48ZyBpZD0iZWxlbV9BMDNJbmplY3Rpb25fcmVzb2x2ZSI+PGVsbGlwc2UgY3g9IjUzOC41IiBjeT0iNTkwIiBmaWxsPSIjRjVGNUY1IiByeD0iOCIgcnk9IjgiIHN0eWxlPSJzdHJva2U6IzE4MTgxODtzdHJva2Utd2lkdGg6MC41OyIvPjwvZz48IS0tZW50aXR5IEFSQ0gxNTRPdXRwdXRlbmNvZGluZy0tPjxnIGlkPSJlbGVtX0FSQ0gxNTRPdXRwdXRlbmNvZGluZyI+PHBhdGggZD0iTTM3OSwzNDguNSBMNDU0LDM0OC41IEw0NjYsMzYwLjUgTDQ2Niw0MjAuMzkwNiBMNDU0LDQzMi4zOTA2IEwzNzksNDMyLjM5MDYgTDM2Nyw0MjAuMzkwNiBMMzY3LDM2MC41IEwzNzksMzQ4LjUgIiBmaWxsPSIjRUZFRkZGIiBzdHlsZT0ic3Ryb2tlOiMxODE4MTg7c3Ryb2tlLXdpZHRoOjAuNTsiLz48aW1hZ2UgaGVpZ2h0PSIxNiIgd2lkdGg9IjE2IiB4PSI0NDEiIHhsaW5rOmhyZWY9ImRhdGE6aW1hZ2UvcG5nO2Jhc2U2NCxpVkJPUncwS0dnb0FBQUFOU1VoRVVnQUFBQkFBQUFBUUNBWUFBQUFmOC85aEFBQUFMa2xFUVZSNFhtTmdHSmJnSDRrWUJmdzdjK2IvZjJJeFJRWlFwSmxpQXlqU1RMRUJGR25HYVFDSmVCU2dBUURtVVM4Z1lzckxzQUFBQUFCSlJVNUVya0pnZ2c9PSIgeT0iMzU4LjUiLz48dGV4dCBmaWxsPSIjMDAwMDAwIiBmb250LWZhbWlseT0ic2Fucy1zZXJpZiIgZm9udC1zaXplPSIxNCIgbGVuZ3RoQWRqdXN0PSJzcGFjaW5nIiB0ZXh0TGVuZ3RoPSI3OSIgeD0iMzc3IiB5PSIzODYuNDk1MSI+QVJDSC0xLjUuNDwvdGV4dD48dGV4dCBmaWxsPSIjMDAwMDAwIiBmb250LWZhbWlseT0ic2Fucy1zZXJpZiIgZm9udC1zaXplPSIxNCIgbGVuZ3RoQWRqdXN0PSJzcGFjaW5nIiB0ZXh0TGVuZ3RoPSI0OCIgeD0iMzkyLjUiIHk9IjQwMi43OTIiPk91dHB1dDwvdGV4dD48dGV4dCBmaWxsPSIjMDAwMDAwIiBmb250LWZhbWlseT0ic2Fucy1zZXJpZiIgZm9udC1zaXplPSIxNCIgbGVuZ3RoQWRqdXN0PSJzcGFjaW5nIiB0ZXh0TGVuZ3RoPSI2NSIgeD0iMzg0IiB5PSI0MTkuMDg4OSI+ZW5jb2Rpbmc8L3RleHQ+PC9nPjwhLS1lbnRpdHkgSU5GTzNMb2NhbERhdGFzdG9yZS0tPjxnIGlkPSJlbGVtX0lORk8zTG9jYWxEYXRhc3RvcmUiPjxwYXRoIGQ9Ik0yMDI1LjUsNiBMMjA2Ny41LDYgTDIwNzkuNSwxOCBMMjA3OS41LDk0LjE4NzUgTDIwNjcuNSwxMDYuMTg3NSBMMjAyNS41LDEwNi4xODc1IEwyMDEzLjUsOTQuMTg3NSBMMjAxMy41LDE4IEwyMDI1LjUsNiAiIGZpbGw9IiNFRkVGRkYiIHN0eWxlPSJzdHJva2U6IzE4MTgxODtzdHJva2Utd2lkdGg6MC41OyIvPjxpbWFnZSBoZWlnaHQ9IjE2IiB3aWR0aD0iMTYiIHg9IjIwNTQuNSIgeGxpbms6aHJlZj0iZGF0YTppbWFnZS9wbmc7YmFzZTY0LGlWQk9SdzBLR2dvQUFBQU5TVWhFVWdBQUFCQUFBQUFRQ0FZQUFBQWY4LzloQUFBQUxrbEVRVlI0WG1OZ0dKYmdINGtZQmZ3N2MrYi9mMkl4UlFaUXBKbGlBeWpTVExFQkZHbkdhUUNKZUJTZ0FRRG1VUzhnWXNyTHNBQUFBQUJKUlU1RXJrSmdnZz09IiB5PSIxNiIvPjx0ZXh0IGZpbGw9IiMwMDAwMDAiIGZvbnQtZmFtaWx5PSJzYW5zLXNlcmlmIiBmb250LXNpemU9IjE0IiBsZW5ndGhBZGp1c3Q9InNwYWNpbmciIHRleHRMZW5ndGg9IjQ2IiB4PSIyMDIzLjUiIHk9IjQzLjk5NTEiPklORk8tMzwvdGV4dD48dGV4dCBmaWxsPSIjMDAwMDAwIiBmb250LWZhbWlseT0ic2Fucy1zZXJpZiIgZm9udC1zaXplPSIxNCIgbGVuZ3RoQWRqdXN0PSJzcGFjaW5nIiB0ZXh0TGVuZ3RoPSIzNSIgeD0iMjAyOSIgeT0iNjAuMjkyIj5Mb2NhbDwvdGV4dD48dGV4dCBmaWxsPSIjMDAwMDAwIiBmb250LWZhbWlseT0ic2Fucy1zZXJpZiIgZm9udC1zaXplPSIxNCIgbGVuZ3RoQWRqdXN0PSJzcGFjaW5nIiB0ZXh0TGVuZ3RoPSIzMiIgeD0iMjAzMC41IiB5PSI3Ni41ODg5Ij5EYXRhPC90ZXh0Pjx0ZXh0IGZpbGw9IiMwMDAwMDAiIGZvbnQtZmFtaWx5PSJzYW5zLXNlcmlmIiBmb250LXNpemU9IjE0IiBsZW5ndGhBZGp1c3Q9InNwYWNpbmciIHRleHRMZW5ndGg9IjM2IiB4PSIyMDI4LjUiIHk9IjkyLjg4NTciPnN0b3JlPC90ZXh0PjwvZz48IS0tZW50aXR5IEV4dGVybmFsc291cmNlc3VuYXZhaWxhYmxlX3Jlc29sdmUtLT48ZyBpZD0iZWxlbV9FeHRlcm5hbHNvdXJjZXN1bmF2YWlsYWJsZV9yZXNvbHZlIj48ZWxsaXBzZSBjeD0iMjEyNi41IiBjeT0iMjE1IiBmaWxsPSIjRjVGNUY1IiByeD0iOCIgcnk9IjgiIHN0eWxlPSJzdHJva2U6IzE4MTgxODtzdHJva2Utd2lkdGg6MC41OyIvPjwvZz48IS0tZW50aXR5IEEwNVNlY3VyaXR5TWlzY29uZmlndXJhdGlvbl9yZXNvbHZlLS0+PGcgaWQ9ImVsZW1fQTA1U2VjdXJpdHlNaXNjb25maWd1cmF0aW9uX3Jlc29sdmUiPjxlbGxpcHNlIGN4PSIxNTE4LjUiIGN5PSI1OTAiIGZpbGw9IiNGNUY1RjUiIHJ4PSI4IiByeT0iOCIgc3R5bGU9InN0cm9rZTojMTgxODE4O3N0cm9rZS13aWR0aDowLjU7Ii8+PC9nPjwhLS1lbnRpdHkgQVJDSDE2MktleXByb3RlY3Rpb24tLT48ZyBpZD0iZWxlbV9BUkNIMTYyS2V5cHJvdGVjdGlvbiI+PHBhdGggZD0iTTY0NywzNDguNSBMNzIyLDM0OC41IEw3MzQsMzYwLjUgTDczNCw0MjAuMzkwNiBMNzIyLDQzMi4zOTA2IEw2NDcsNDMyLjM5MDYgTDYzNSw0MjAuMzkwNiBMNjM1LDM2MC41IEw2NDcsMzQ4LjUgIiBmaWxsPSIjRUZFRkZGIiBzdHlsZT0ic3Ryb2tlOiMxODE4MTg7c3Ryb2tlLXdpZHRoOjAuNTsiLz48aW1hZ2UgaGVpZ2h0PSIxNiIgd2lkdGg9IjE2IiB4PSI3MDkiIHhsaW5rOmhyZWY9ImRhdGE6aW1hZ2UvcG5nO2Jhc2U2NCxpVkJPUncwS0dnb0FBQUFOU1VoRVVnQUFBQkFBQUFBUUNBWUFBQUFmOC85aEFBQUFMa2xFUVZSNFhtTmdHSmJnSDRrWUJmdzdjK2IvZjJJeFJRWlFwSmxpQXlqU1RMRUJGR25HYVFDSmVCU2dBUURtVVM4Z1lzckxzQUFBQUFCSlJVNUVya0pnZ2c9PSIgeT0iMzU4LjUiLz48dGV4dCBmaWxsPSIjMDAwMDAwIiBmb250LWZhbWlseT0ic2Fucy1zZXJpZiIgZm9udC1zaXplPSIxNCIgbGVuZ3RoQWRqdXN0PSJzcGFjaW5nIiB0ZXh0TGVuZ3RoPSI3OSIgeD0iNjQ1IiB5PSIzODYuNDk1MSI+QVJDSC0xLjYuMjwvdGV4dD48dGV4dCBmaWxsPSIjMDAwMDAwIiBmb250LWZhbWlseT0ic2Fucy1zZXJpZiIgZm9udC1zaXplPSIxNCIgbGVuZ3RoQWRqdXN0PSJzcGFjaW5nIiB0ZXh0TGVuZ3RoPSIyNSIgeD0iNjcyIiB5PSI0MDIuNzkyIj5LZXk8L3RleHQ+PHRleHQgZmlsbD0iIzAwMDAwMCIgZm9udC1mYW1pbHk9InNhbnMtc2VyaWYiIGZvbnQtc2l6ZT0iMTQiIGxlbmd0aEFkanVzdD0ic3BhY2luZyIgdGV4dExlbmd0aD0iNzEiIHg9IjY0OSIgeT0iNDE5LjA4ODkiPnByb3RlY3Rpb248L3RleHQ+PC9nPjwhLS1lbnRpdHkgQTAyQ3J5cHRvZ3JhcGhpY0ZhaWx1cmVzX3Jlc29sdmUtLT48ZyBpZD0iZWxlbV9BMDJDcnlwdG9ncmFwaGljRmFpbHVyZXNfcmVzb2x2ZSI+PGVsbGlwc2UgY3g9IjgyMi41IiBjeT0iNTkwIiBmaWxsPSIjRjVGNUY1IiByeD0iOCIgcnk9IjgiIHN0eWxlPSJzdHJva2U6IzE4MTgxODtzdHJva2Utd2lkdGg6MC41OyIvPjwvZz48IS0tZW50aXR5IEFSQ0gxNjNLZXlyZXBsYWNlbWVudC0tPjxnIGlkPSJlbGVtX0FSQ0gxNjNLZXlyZXBsYWNlbWVudCI+PHBhdGggZD0iTTc4MSwzNDguNSBMODY0LDM0OC41IEw4NzYsMzYwLjUgTDg3Niw0MjAuMzkwNiBMODY0LDQzMi4zOTA2IEw3ODEsNDMyLjM5MDYgTDc2OSw0MjAuMzkwNiBMNzY5LDM2MC41IEw3ODEsMzQ4LjUgIiBmaWxsPSIjRUZFRkZGIiBzdHlsZT0ic3Ryb2tlOiMxODE4MTg7c3Ryb2tlLXdpZHRoOjAuNTsiLz48aW1hZ2UgaGVpZ2h0PSIxNiIgd2lkdGg9IjE2IiB4PSI4NTEiIHhsaW5rOmhyZWY9ImRhdGE6aW1hZ2UvcG5nO2Jhc2U2NCxpVkJPUncwS0dnb0FBQUFOU1VoRVVnQUFBQkFBQUFBUUNBWUFBQUFmOC85aEFBQUFMa2xFUVZSNFhtTmdHSmJnSDRrWUJmdzdjK2IvZjJJeFJRWlFwSmxpQXlqU1RMRUJGR25HYVFDSmVCU2dBUURtVVM4Z1lzckxzQUFBQUFCSlJVNUVya0pnZ2c9PSIgeT0iMzU4LjUiLz48dGV4dCBmaWxsPSIjMDAwMDAwIiBmb250LWZhbWlseT0ic2Fucy1zZXJpZiIgZm9udC1zaXplPSIxNCIgbGVuZ3RoQWRqdXN0PSJzcGFjaW5nIiB0ZXh0TGVuZ3RoPSI3OSIgeD0iNzgzIiB5PSIzODYuNDk1MSI+QVJDSC0xLjYuMzwvdGV4dD48dGV4dCBmaWxsPSIjMDAwMDAwIiBmb250LWZhbWlseT0ic2Fucy1zZXJpZiIgZm9udC1zaXplPSIxNCIgbGVuZ3RoQWRqdXN0PSJzcGFjaW5nIiB0ZXh0TGVuZ3RoPSIyNSIgeD0iODEwIiB5PSI0MDIuNzkyIj5LZXk8L3RleHQ+PHRleHQgZmlsbD0iIzAwMDAwMCIgZm9udC1mYW1pbHk9InNhbnMtc2VyaWYiIGZvbnQtc2l6ZT0iMTQiIGxlbmd0aEFkanVzdD0ic3BhY2luZyIgdGV4dExlbmd0aD0iODciIHg9Ijc3OSIgeT0iNDE5LjA4ODkiPnJlcGxhY2VtZW50PC90ZXh0PjwvZz48IS0tZW50aXR5IEFsd2F5c2N1cnJlbnRpbmZvcm1hdGlvbi0tPjxnIGlkPSJlbGVtX0Fsd2F5c2N1cnJlbnRpbmZvcm1hdGlvbiI+PHBhdGggZD0iTTIwMzMsNTQ4IEwyMTA2LDU0OCBMMjExOCw1NjAgTDIxMTgsNjE5Ljg5MDYgTDIxMDYsNjMxLjg5MDYgTDIwMzMsNjMxLjg5MDYgTDIwMjEsNjE5Ljg5MDYgTDIwMjEsNTYwIEwyMDMzLDU0OCAiIGZpbGw9IiNFRkVGRkYiIHN0eWxlPSJzdHJva2U6IzE4MTgxODtzdHJva2Utd2lkdGg6MC41OyIvPjxpbWFnZSBoZWlnaHQ9IjE2IiB3aWR0aD0iMTYiIHg9IjIwOTMiIHhsaW5rOmhyZWY9ImRhdGE6aW1hZ2UvcG5nO2Jhc2U2NCxpVkJPUncwS0dnb0FBQUFOU1VoRVVnQUFBQkFBQUFBUUNBWUFBQUFmOC85aEFBQUFkRWxFUVZSNFhxMlNBUTdBSUFnRC9mL2JmSk1hakd4WUM3SmtsNUFJdG1WYlZvcFBNL1dKYWFxMWR5MmRnWTZ5R2JIa0hnMFdieXViSHh5aVd3LytWNEJpTnBkenloejFOb1FHTE1IMkRmQWNCdHg2R3hDR3NEbWFCWGVUMTROL3drVHAvMENoajU4MUs5N1dsTm55dkFKZS9Nb0FkVHFVMWtpZWhjOEFBQUFBU1VWT1JLNUNZSUk9IiB5PSI1NTgiLz48dGV4dCBmaWxsPSIjMDAwMDAwIiBmb250LWZhbWlseT0ic2Fucy1zZXJpZiIgZm9udC1zaXplPSIxNCIgbGVuZ3RoQWRqdXN0PSJzcGFjaW5nIiB0ZXh0TGVuZ3RoPSI0NiIgeD0iMjA0Ni41IiB5PSI1ODUuOTk1MSI+QWx3YXlzPC90ZXh0Pjx0ZXh0IGZpbGw9IiMwMDAwMDAiIGZvbnQtZmFtaWx5PSJzYW5zLXNlcmlmIiBmb250LXNpemU9IjE0IiBsZW5ndGhBZGp1c3Q9InNwYWNpbmciIHRleHRMZW5ndGg9IjUwIiB4PSIyMDQ0LjUiIHk9IjYwMi4yOTIiPmN1cnJlbnQ8L3RleHQ+PHRleHQgZmlsbD0iIzAwMDAwMCIgZm9udC1mYW1pbHk9InNhbnMtc2VyaWYiIGZvbnQtc2l6ZT0iMTQiIGxlbmd0aEFkanVzdD0ic3BhY2luZyIgdGV4dExlbmd0aD0iNzciIHg9IjIwMzEiIHk9IjYxOC41ODg5Ij5pbmZvcm1hdGlvbjwvdGV4dD48L2c+PCEtLWVudGl0eSBIaWdobHlBdmFpbGFibGUtLT48ZyBpZD0iZWxlbV9IaWdobHlBdmFpbGFibGUiPjxwYXRoIGQ9Ik0yMjAxLDE4MSBMMjI1NiwxODEgTDIyNjgsMTkzIEwyMjY4LDIzNi41OTM4IEwyMjU2LDI0OC41OTM4IEwyMjAxLDI0OC41OTM4IEwyMTg5LDIzNi41OTM4IEwyMTg5LDE5MyBMMjIwMSwxODEgIiBmaWxsPSIjRUZFRkZGIiBzdHlsZT0ic3Ryb2tlOiMxODE4MTg7c3Ryb2tlLXdpZHRoOjAuNTsiLz48aW1hZ2UgaGVpZ2h0PSIxNiIgd2lkdGg9IjE2IiB4PSIyMjQzIiB4bGluazpocmVmPSJkYXRhOmltYWdlL3BuZztiYXNlNjQsaVZCT1J3MEtHZ29BQUFBTlNVaEVVZ0FBQUJBQUFBQVFDQVlBQUFBZjgvOWhBQUFBZEVsRVFWUjRYcTJTQVE3QUlBZ0QvZi9iZkpNYWpHeFlDN0prbDVBSXRtVmJWb3BQTS9XSmFhcTFkeTJkZ1k2eUdiSGtIZzBXYnl1Ykh4eWlXdy8rVjRCaU5wZHp5aHoxTm9RR0xNSDJEZkFjQnR4Nkd4Q0dzRG1hQlhlVDE0Ti93a1RwLzBDaGo1ODFLOTdXbE5ueXZBSmUvTW9BZFRxVTFraWVoYzhBQUFBQVNVVk9SSzVDWUlJPSIgeT0iMTkxIi8+PHRleHQgZmlsbD0iIzAwMDAwMCIgZm9udC1mYW1pbHk9InNhbnMtc2VyaWYiIGZvbnQtc2l6ZT0iMTQiIGxlbmd0aEFkanVzdD0ic3BhY2luZyIgdGV4dExlbmd0aD0iNDEiIHg9IjIyMDgiIHk9IjIxOC45OTUxIj5IaWdobHk8L3RleHQ+PHRleHQgZmlsbD0iIzAwMDAwMCIgZm9udC1mYW1pbHk9InNhbnMtc2VyaWYiIGZvbnQtc2l6ZT0iMTQiIGxlbmd0aEFkanVzdD0ic3BhY2luZyIgdGV4dExlbmd0aD0iNTkiIHg9IjIxOTkiIHk9IjIzNS4yOTIiPkF2YWlsYWJsZTwvdGV4dD48L2c+PCEtLWVudGl0eSBFbmFibGVyaXNrYmFzZWRkZWNpc2lvbm1ha2luZy0tPjxnIGlkPSJlbGVtX0VuYWJsZXJpc2tiYXNlZGRlY2lzaW9ubWFraW5nIj48cGF0aCBkPSJNNjgzLjUsMTEwNiBMNzM3LjUsMTEwNiBMNzQ5LjUsMTExOCBMNzQ5LjUsMTIxMC40ODQ0IEw3MzcuNSwxMjIyLjQ4NDQgTDY4My41LDEyMjIuNDg0NCBMNjcxLjUsMTIxMC40ODQ0IEw2NzEuNSwxMTE4IEw2ODMuNSwxMTA2ICIgZmlsbD0iI0VGRUZGRiIgc3R5bGU9InN0cm9rZTojMTgxODE4O3N0cm9rZS13aWR0aDowLjU7Ii8+PGltYWdlIGhlaWdodD0iMTYiIHdpZHRoPSIxNiIgeD0iNzI0LjUiIHhsaW5rOmhyZWY9ImRhdGE6aW1hZ2UvcG5nO2Jhc2U2NCxpVkJPUncwS0dnb0FBQUFOU1VoRVVnQUFBQkFBQUFBUUNBWUFBQUFmOC85aEFBQUFkRWxFUVZSNFhxMlNBUTdBSUFnRC9mL2JmSk1hakd4WUM3SmtsNUFJdG1WYlZvcFBNL1dKYWFxMWR5MmRnWTZ5R2JIa0hnMFdieXViSHh5aVd3LytWNEJpTnBkenloejFOb1FHTE1IMkRmQWNCdHg2R3hDR3NEbWFCWGVUMTROL3drVHAvMENoajU4MUs5N1dsTm55dkFKZS9Nb0FkVHFVMWtpZWhjOEFBQUFBU1VWT1JLNUNZSUk9IiB5PSIxMTE2Ii8+PHRleHQgZmlsbD0iIzAwMDAwMCIgZm9udC1mYW1pbHk9InNhbnMtc2VyaWYiIGZvbnQtc2l6ZT0iMTQiIGxlbmd0aEFkanVzdD0ic3BhY2luZyIgdGV4dExlbmd0aD0iNDciIHg9IjY4NyIgeT0iMTE0My45OTUxIj5FbmFibGU8L3RleHQ+PHRleHQgZmlsbD0iIzAwMDAwMCIgZm9udC1mYW1pbHk9InNhbnMtc2VyaWYiIGZvbnQtc2l6ZT0iMTQiIGxlbmd0aEFkanVzdD0ic3BhY2luZyIgdGV4dExlbmd0aD0iMjQiIHg9IjY5OC41IiB5PSIxMTYwLjI5MiI+cmlzazwvdGV4dD48dGV4dCBmaWxsPSIjMDAwMDAwIiBmb250LWZhbWlseT0ic2Fucy1zZXJpZiIgZm9udC1zaXplPSIxNCIgbGVuZ3RoQWRqdXN0PSJzcGFjaW5nIiB0ZXh0TGVuZ3RoPSI0MyIgeD0iNjg5IiB5PSIxMTc2LjU4ODkiPmJhc2VkPC90ZXh0Pjx0ZXh0IGZpbGw9IiMwMDAwMDAiIGZvbnQtZmFtaWx5PSJzYW5zLXNlcmlmIiBmb250LXNpemU9IjE0IiBsZW5ndGhBZGp1c3Q9InNwYWNpbmciIHRleHRMZW5ndGg9IjU4IiB4PSI2ODEuNSIgeT0iMTE5Mi44ODU3Ij5kZWNpc2lvbjwvdGV4dD48dGV4dCBmaWxsPSIjMDAwMDAwIiBmb250LWZhbWlseT0ic2Fucy1zZXJpZiIgZm9udC1zaXplPSIxNCIgbGVuZ3RoQWRqdXN0PSJzcGFjaW5nIiB0ZXh0TGVuZ3RoPSI1MCIgeD0iNjg1LjUiIHk9IjEyMDkuMTgyNiI+bWFraW5nPC90ZXh0PjwvZz48IS0tZW50aXR5IEN1c3RvbWl6YWJsZS0tPjxnIGlkPSJlbGVtX0N1c3RvbWl6YWJsZSI+PHBhdGggZD0iTTUxNS41LDk2My41IEw2MDUuNSw5NjMuNSBMNjE3LjUsOTc1LjUgTDYxNy41LDEwMDIuNzk2OSBMNjA1LjUsMTAxNC43OTY5IEw1MTUuNSwxMDE0Ljc5NjkgTDUwMy41LDEwMDIuNzk2OSBMNTAzLjUsOTc1LjUgTDUxNS41LDk2My41ICIgZmlsbD0iI0VGRUZGRiIgc3R5bGU9InN0cm9rZTojMTgxODE4O3N0cm9rZS13aWR0aDowLjU7Ii8+PGltYWdlIGhlaWdodD0iMTYiIHdpZHRoPSIxNiIgeD0iNTkyLjUiIHhsaW5rOmhyZWY9ImRhdGE6aW1hZ2UvcG5nO2Jhc2U2NCxpVkJPUncwS0dnb0FBQUFOU1VoRVVnQUFBQkFBQUFBUUNBWUFBQUFmOC85aEFBQUFkRWxFUVZSNFhxMlNBUTdBSUFnRC9mL2JmSk1hakd4WUM3SmtsNUFJdG1WYlZvcFBNL1dKYWFxMWR5MmRnWTZ5R2JIa0hnMFdieXViSHh5aVd3LytWNEJpTnBkenloejFOb1FHTE1IMkRmQWNCdHg2R3hDR3NEbWFCWGVUMTROL3drVHAvMENoajU4MUs5N1dsTm55dkFKZS9Nb0FkVHFVMWtpZWhjOEFBQUFBU1VWT1JLNUNZSUk9IiB5PSI5NzMuNSIvPjx0ZXh0IGZpbGw9IiMwMDAwMDAiIGZvbnQtZmFtaWx5PSJzYW5zLXNlcmlmIiBmb250LXNpemU9IjE0IiBsZW5ndGhBZGp1c3Q9InNwYWNpbmciIHRleHRMZW5ndGg9Ijk0IiB4PSI1MTMuNSIgeT0iMTAwMS40OTUxIj5DdXN0b21pemFibGU8L3RleHQ+PC9nPjwhLS1lbnRpdHkgRXh0ZW5kYWJsZS0tPjxnIGlkPSJlbGVtX0V4dGVuZGFibGUiPjxwYXRoIGQ9Ik0zODMsOTYzLjUgTDQ1Niw5NjMuNSBMNDY4LDk3NS41IEw0NjgsMTAwMi43OTY5IEw0NTYsMTAxNC43OTY5IEwzODMsMTAxNC43OTY5IEwzNzEsMTAwMi43OTY5IEwzNzEsOTc1LjUgTDM4Myw5NjMuNSAiIGZpbGw9IiNFRkVGRkYiIHN0eWxlPSJzdHJva2U6IzE4MTgxODtzdHJva2Utd2lkdGg6MC41OyIvPjxpbWFnZSBoZWlnaHQ9IjE2IiB3aWR0aD0iMTYiIHg9IjQ0MyIgeGxpbms6aHJlZj0iZGF0YTppbWFnZS9wbmc7YmFzZTY0LGlWQk9SdzBLR2dvQUFBQU5TVWhFVWdBQUFCQUFBQUFRQ0FZQUFBQWY4LzloQUFBQWRFbEVRVlI0WHEyU0FRN0FJQWdEL2YvYmZKTWFqR3hZQzdKa2w1QUl0bVZiVm9wUE0vV0phYXExZHkyZGdZNnlHYkhrSGcwV2J5dWJIeHlpV3cvK1Y0QmlOcGR6eWh6MU5vUUdMTUgyRGZBY0J0eDZHeENHc0RtYUJYZVQxNE4vd2tUcC8wQ2hqNTgxSzk3V2xObnl2QUplL01vQWRUcVUxa2llaGM4QUFBQUFTVVZPUks1Q1lJST0iIHk9Ijk3My41Ii8+PHRleHQgZmlsbD0iIzAwMDAwMCIgZm9udC1mYW1pbHk9InNhbnMtc2VyaWYiIGZvbnQtc2l6ZT0iMTQiIGxlbmd0aEFkanVzdD0ic3BhY2luZyIgdGV4dExlbmd0aD0iNzciIHg9IjM4MSIgeT0iMTAwMS40OTUxIj5FeHRlbmRhYmxlPC90ZXh0PjwvZz48IS0tZW50aXR5IFNlY3VyZS0tPjxnIGlkPSJlbGVtX1NlY3VyZSI+PHBhdGggZD0iTTEwODIsOTYzLjUgTDExMjcsOTYzLjUgTDExMzksOTc1LjUgTDExMzksMTAwMi43OTY5IEwxMTI3LDEwMTQuNzk2OSBMMTA4MiwxMDE0Ljc5NjkgTDEwNzAsMTAwMi43OTY5IEwxMDcwLDk3NS41IEwxMDgyLDk2My41ICIgZmlsbD0iI0VGRUZGRiIgc3R5bGU9InN0cm9rZTojMTgxODE4O3N0cm9rZS13aWR0aDowLjU7Ii8+PGltYWdlIGhlaWdodD0iMTYiIHdpZHRoPSIxNiIgeD0iMTExNCIgeGxpbms6aHJlZj0iZGF0YTppbWFnZS9wbmc7YmFzZTY0LGlWQk9SdzBLR2dvQUFBQU5TVWhFVWdBQUFCQUFBQUFRQ0FZQUFBQWY4LzloQUFBQWRFbEVRVlI0WHEyU0FRN0FJQWdEL2YvYmZKTWFqR3hZQzdKa2w1QUl0bVZiVm9wUE0vV0phYXExZHkyZGdZNnlHYkhrSGcwV2J5dWJIeHlpV3cvK1Y0QmlOcGR6eWh6MU5vUUdMTUgyRGZBY0J0eDZHeENHc0RtYUJYZVQxNE4vd2tUcC8wQ2hqNTgxSzk3V2xObnl2QUplL01vQWRUcVUxa2llaGM4QUFBQUFTVVZPUks1Q1lJST0iIHk9Ijk3My41Ii8+PHRleHQgZmlsbD0iIzAwMDAwMCIgZm9udC1mYW1pbHk9InNhbnMtc2VyaWYiIGZvbnQtc2l6ZT0iMTQiIGxlbmd0aEFkanVzdD0ic3BhY2luZyIgdGV4dExlbmd0aD0iNDkiIHg9IjEwODAiIHk9IjEwMDEuNDk1MSI+U2VjdXJlPC90ZXh0PjwvZz48IS0tZW50aXR5IFJlc2lsaWVudC0tPjxnIGlkPSJlbGVtX1Jlc2lsaWVudCI+PHBhdGggZD0iTTIxMjcsMzAuNSBMMjE4MiwzMC41IEwyMTk0LDQyLjUgTDIxOTQsNjkuNzk2OSBMMjE4Miw4MS43OTY5IEwyMTI3LDgxLjc5NjkgTDIxMTUsNjkuNzk2OSBMMjExNSw0Mi41IEwyMTI3LDMwLjUgIiBmaWxsPSIjRUZFRkZGIiBzdHlsZT0ic3Ryb2tlOiMxODE4MTg7c3Ryb2tlLXdpZHRoOjAuNTsiLz48aW1hZ2UgaGVpZ2h0PSIxNiIgd2lkdGg9IjE2IiB4PSIyMTY5IiB4bGluazpocmVmPSJkYXRhOmltYWdlL3BuZztiYXNlNjQsaVZCT1J3MEtHZ29BQUFBTlNVaEVVZ0FBQUJBQUFBQVFDQVlBQUFBZjgvOWhBQUFBZEVsRVFWUjRYcTJTQVE3QUlBZ0QvZi9iZkpNYWpHeFlDN0prbDVBSXRtVmJWb3BQTS9XSmFhcTFkeTJkZ1k2eUdiSGtIZzBXYnl1Ykh4eWlXdy8rVjRCaU5wZHp5aHoxTm9RR0xNSDJEZkFjQnR4Nkd4Q0dzRG1hQlhlVDE0Ti93a1RwLzBDaGo1ODFLOTdXbE5ueXZBSmUvTW9BZFRxVTFraWVoYzhBQUFBQVNVVk9SSzVDWUlJPSIgeT0iNDAuNSIvPjx0ZXh0IGZpbGw9IiMwMDAwMDAiIGZvbnQtZmFtaWx5PSJzYW5zLXNlcmlmIiBmb250LXNpemU9IjE0IiBsZW5ndGhBZGp1c3Q9InNwYWNpbmciIHRleHRMZW5ndGg9IjU5IiB4PSIyMTI1IiB5PSI2OC40OTUxIj5SZXNpbGllbnQ8L3RleHQ+PC9nPjwhLS1lbnRpdHkgUmVwcmVzZW50ZGVwZW5kZW5jaWVzYmV0d2VlbmFzc2V0cy0tPjxnIGlkPSJlbGVtX1JlcHJlc2VudGRlcGVuZGVuY2llc2JldHdlZW5hc3NldHMiPjxwYXRoIGQ9Ik0xNTAuNSw1NDAgTDI0Ni41LDU0MCBMMjU4LjUsNTUyIEwyNTguNSw2MjguMTg3NSBMMjQ2LjUsNjQwLjE4NzUgTDE1MC41LDY0MC4xODc1IEwxMzguNSw2MjguMTg3NSBMMTM4LjUsNTUyIEwxNTAuNSw1NDAgIiBmaWxsPSIjRUZFRkZGIiBzdHlsZT0ic3Ryb2tlOiMxODE4MTg7c3Ryb2tlLXdpZHRoOjAuNTsiLz48aW1hZ2UgaGVpZ2h0PSIxNiIgd2lkdGg9IjE2IiB4PSIyMzMuNSIgeGxpbms6aHJlZj0iZGF0YTppbWFnZS9wbmc7YmFzZTY0LGlWQk9SdzBLR2dvQUFBQU5TVWhFVWdBQUFCQUFBQUFRQ0FZQUFBQWY4LzloQUFBQWRFbEVRVlI0WHEyU0FRN0FJQWdEL2YvYmZKTWFqR3hZQzdKa2w1QUl0bVZiVm9wUE0vV0phYXExZHkyZGdZNnlHYkhrSGcwV2J5dWJIeHlpV3cvK1Y0QmlOcGR6eWh6MU5vUUdMTUgyRGZBY0J0eDZHeENHc0RtYUJYZVQxNE4vd2tUcC8wQ2hqNTgxSzk3V2xObnl2QUplL01vQWRUcVUxa2llaGM4QUFBQUFTVVZPUks1Q1lJST0iIHk9IjU1MCIvPjx0ZXh0IGZpbGw9IiMwMDAwMDAiIGZvbnQtZmFtaWx5PSJzYW5zLXNlcmlmIiBmb250LXNpemU9IjE0IiBsZW5ndGhBZGp1c3Q9InNwYWNpbmciIHRleHRMZW5ndGg9IjczIiB4PSIxNjIiIHk9IjU3Ny45OTUxIj5SZXByZXNlbnQ8L3RleHQ+PHRleHQgZmlsbD0iIzAwMDAwMCIgZm9udC1mYW1pbHk9InNhbnMtc2VyaWYiIGZvbnQtc2l6ZT0iMTQiIGxlbmd0aEFkanVzdD0ic3BhY2luZyIgdGV4dExlbmd0aD0iMTAwIiB4PSIxNDguNSIgeT0iNTk0LjI5MiI+ZGVwZW5kZW5jaWVzPC90ZXh0Pjx0ZXh0IGZpbGw9IiMwMDAwMDAiIGZvbnQtZmFtaWx5PSJzYW5zLXNlcmlmIiBmb250LXNpemU9IjE0IiBsZW5ndGhBZGp1c3Q9InNwYWNpbmciIHRleHRMZW5ndGg9IjYxIiB4PSIxNjgiIHk9IjYxMC41ODg5Ij5iZXR3ZWVuPC90ZXh0Pjx0ZXh0IGZpbGw9IiMwMDAwMDAiIGZvbnQtZmFtaWx5PSJzYW5zLXNlcmlmIiBmb250LXNpemU9IjE0IiBsZW5ndGhBZGp1c3Q9InNwYWNpbmciIHRleHRMZW5ndGg9IjQ2IiB4PSIxNzUuNSIgeT0iNjI2Ljg4NTciPmFzc2V0czwvdGV4dD48L2c+PCEtLWVudGl0eSBJbmZvcm1hdGlvbm5vdHN1ZmZpY2llbnRfcmVzb2x2ZS0tPjxnIGlkPSJlbGVtX0luZm9ybWF0aW9ubm90c3VmZmljaWVudF9yZXNvbHZlIj48ZWxsaXBzZSBjeD0iMTk4LjUiIGN5PSI3OTcuNSIgZmlsbD0iI0Y1RjVGNSIgcng9IjgiIHJ5PSI4IiBzdHlsZT0ic3Ryb2tlOiMxODE4MTg7c3Ryb2tlLXdpZHRoOjAuNTsiLz48L2c+PCEtLWVudGl0eSBSZXByZXNlbnRkaWZmZXJlbnR0eXBlc29mYXNzZXRzLS0+PGcgaWQ9ImVsZW1fUmVwcmVzZW50ZGlmZmVyZW50dHlwZXNvZmFzc2V0cyI+PHBhdGggZD0iTTMwNiw1MzIgTDM3NSw1MzIgTDM4Nyw1NDQgTDM4Nyw2MzYuNDg0NCBMMzc1LDY0OC40ODQ0IEwzMDYsNjQ4LjQ4NDQgTDI5NCw2MzYuNDg0NCBMMjk0LDU0NCBMMzA2LDUzMiAiIGZpbGw9IiNFRkVGRkYiIHN0eWxlPSJzdHJva2U6IzE4MTgxODtzdHJva2Utd2lkdGg6MC41OyIvPjxpbWFnZSBoZWlnaHQ9IjE2IiB3aWR0aD0iMTYiIHg9IjM2MiIgeGxpbms6aHJlZj0iZGF0YTppbWFnZS9wbmc7YmFzZTY0LGlWQk9SdzBLR2dvQUFBQU5TVWhFVWdBQUFCQUFBQUFRQ0FZQUFBQWY4LzloQUFBQWRFbEVRVlI0WHEyU0FRN0FJQWdEL2YvYmZKTWFqR3hZQzdKa2w1QUl0bVZiVm9wUE0vV0phYXExZHkyZGdZNnlHYkhrSGcwV2J5dWJIeHlpV3cvK1Y0QmlOcGR6eWh6MU5vUUdMTUgyRGZBY0J0eDZHeENHc0RtYUJYZVQxNE4vd2tUcC8wQ2hqNTgxSzk3V2xObnl2QUplL01vQWRUcVUxa2llaGM4QUFBQUFTVVZPUks1Q1lJST0iIHk9IjU0MiIvPjx0ZXh0IGZpbGw9IiMwMDAwMDAiIGZvbnQtZmFtaWx5PSJzYW5zLXNlcmlmIiBmb250LXNpemU9IjE0IiBsZW5ndGhBZGp1c3Q9InNwYWNpbmciIHRleHRMZW5ndGg9IjczIiB4PSIzMDQiIHk9IjU2OS45OTUxIj5SZXByZXNlbnQ8L3RleHQ+PHRleHQgZmlsbD0iIzAwMDAwMCIgZm9udC1mYW1pbHk9InNhbnMtc2VyaWYiIGZvbnQtc2l6ZT0iMTQiIGxlbmd0aEFkanVzdD0ic3BhY2luZyIgdGV4dExlbmd0aD0iNTciIHg9IjMxMiIgeT0iNTg2LjI5MiI+ZGlmZmVyZW50PC90ZXh0Pjx0ZXh0IGZpbGw9IiMwMDAwMDAiIGZvbnQtZmFtaWx5PSJzYW5zLXNlcmlmIiBmb250LXNpemU9IjE0IiBsZW5ndGhBZGp1c3Q9InNwYWNpbmciIHRleHRMZW5ndGg9IjM4IiB4PSIzMjEuNSIgeT0iNjAyLjU4ODkiPnR5cGVzPC90ZXh0Pjx0ZXh0IGZpbGw9IiMwMDAwMDAiIGZvbnQtZmFtaWx5PSJzYW5zLXNlcmlmIiBmb250LXNpemU9IjE0IiBsZW5ndGhBZGp1c3Q9InNwYWNpbmciIHRleHRMZW5ndGg9IjEzIiB4PSIzMzQiIHk9IjYxOC44ODU3Ij5vZjwvdGV4dD48dGV4dCBmaWxsPSIjMDAwMDAwIiBmb250LWZhbWlseT0ic2Fucy1zZXJpZiIgZm9udC1zaXplPSIxNCIgbGVuZ3RoQWRqdXN0PSJzcGFjaW5nIiB0ZXh0TGVuZ3RoPSI0NiIgeD0iMzE3LjUiIHk9IjYzNS4xODI2Ij5hc3NldHM8L3RleHQ+PC9nPjwhLS1lbnRpdHkgSW5mb3JtYXRpb25vdXRkYXRlZF9yZXNvbHZlLS0+PGcgaWQ9ImVsZW1fSW5mb3JtYXRpb25vdXRkYXRlZF9yZXNvbHZlIj48ZWxsaXBzZSBjeD0iMTgxNS41IiBjeT0iNzk3LjUiIGZpbGw9IiNGNUY1RjUiIHJ4PSI4IiByeT0iOCIgc3R5bGU9InN0cm9rZTojMTgxODE4O3N0cm9rZS13aWR0aDowLjU7Ii8+PC9nPjwhLS1lbnRpdHkgUHJlc2VudHJlbGV2YW50aW5mb3JtYXRpb24tLT48ZyBpZD0iZWxlbV9QcmVzZW50cmVsZXZhbnRpbmZvcm1hdGlvbiI+PHBhdGggZD0iTTE4LDU0OCBMOTEsNTQ4IEwxMDMsNTYwIEwxMDMsNjE5Ljg5MDYgTDkxLDYzMS44OTA2IEwxOCw2MzEuODkwNiBMNiw2MTkuODkwNiBMNiw1NjAgTDE4LDU0OCAiIGZpbGw9IiNFRkVGRkYiIHN0eWxlPSJzdHJva2U6IzE4MTgxODtzdHJva2Utd2lkdGg6MC41OyIvPjxpbWFnZSBoZWlnaHQ9IjE2IiB3aWR0aD0iMTYiIHg9Ijc4IiB4bGluazpocmVmPSJkYXRhOmltYWdlL3BuZztiYXNlNjQsaVZCT1J3MEtHZ29BQUFBTlNVaEVVZ0FBQUJBQUFBQVFDQVlBQUFBZjgvOWhBQUFBZEVsRVFWUjRYcTJTQVE3QUlBZ0QvZi9iZkpNYWpHeFlDN0prbDVBSXRtVmJWb3BQTS9XSmFhcTFkeTJkZ1k2eUdiSGtIZzBXYnl1Ykh4eWlXdy8rVjRCaU5wZHp5aHoxTm9RR0xNSDJEZkFjQnR4Nkd4Q0dzRG1hQlhlVDE0Ti93a1RwLzBDaGo1ODFLOTdXbE5ueXZBSmUvTW9BZFRxVTFraWVoYzhBQUFBQVNVVk9SSzVDWUlJPSIgeT0iNTU4Ii8+PHRleHQgZmlsbD0iIzAwMDAwMCIgZm9udC1mYW1pbHk9InNhbnMtc2VyaWYiIGZvbnQtc2l6ZT0iMTQiIGxlbmd0aEFkanVzdD0ic3BhY2luZyIgdGV4dExlbmd0aD0iNTQiIHg9IjI3LjUiIHk9IjU4NS45OTUxIj5QcmVzZW50PC90ZXh0Pjx0ZXh0IGZpbGw9IiMwMDAwMDAiIGZvbnQtZmFtaWx5PSJzYW5zLXNlcmlmIiBmb250LXNpemU9IjE0IiBsZW5ndGhBZGp1c3Q9InNwYWNpbmciIHRleHRMZW5ndGg9IjU1IiB4PSIyNyIgeT0iNjAyLjI5MiI+cmVsZXZhbnQ8L3RleHQ+PHRleHQgZmlsbD0iIzAwMDAwMCIgZm9udC1mYW1pbHk9InNhbnMtc2VyaWYiIGZvbnQtc2l6ZT0iMTQiIGxlbmd0aEFkanVzdD0ic3BhY2luZyIgdGV4dExlbmd0aD0iNzciIHg9IjE2IiB5PSI2MTguNTg4OSI+aW5mb3JtYXRpb248L3RleHQ+PC9nPjwhLS1lbnRpdHkgQTAxQnJva2VuQWNjZXNzQ29udHJvbF9hbmQtLT48ZyBpZD0iZWxlbV9BMDFCcm9rZW5BY2Nlc3NDb250cm9sX2FuZCI+PGVsbGlwc2UgY3g9IjE4MzUuNSIgY3k9IjU5MCIgZmlsbD0iIzAwMDAwMCIgcng9IjgiIHJ5PSI4IiBzdHlsZT0ic3Ryb2tlOiMxODE4MTg7c3Ryb2tlLXdpZHRoOjAuNTsiLz48L2c+PCEtLWVudGl0eSBBMDlTZWN1cml0eUxvZ2dpbmdhbmRNb25pdG9yaW5nRmFpbHVyZXNfYW5kLS0+PGcgaWQ9ImVsZW1fQTA5U2VjdXJpdHlMb2dnaW5nYW5kTW9uaXRvcmluZ0ZhaWx1cmVzX2FuZCI+PGVsbGlwc2UgY3g9IjcyMi41IiBjeT0iNTkwIiBmaWxsPSIjMDAwMDAwIiByeD0iOCIgcnk9IjgiIHN0eWxlPSJzdHJva2U6IzE4MTgxODtzdHJva2Utd2lkdGg6MC41OyIvPjwvZz48IS0tZW50aXR5IEV4dGVybmFsc291cmNlc3VuYXZhaWxhYmxlX2FuZC0tPjxnIGlkPSJlbGVtX0V4dGVybmFsc291cmNlc3VuYXZhaWxhYmxlX2FuZCI+PGVsbGlwc2UgY3g9IjIzMzEuNSIgY3k9IjIxNSIgZmlsbD0iIzAwMDAwMCIgcng9IjgiIHJ5PSI4IiBzdHlsZT0ic3Ryb2tlOiMxODE4MTg7c3Ryb2tlLXdpZHRoOjAuNTsiLz48L2c+PCEtLWxpbmsgQTAxQnJva2VuQWNjZXNzQ29udHJvbF9yZXNvbHZlIHRvIEEwMUJyb2tlbkFjY2Vzc0NvbnRyb2wtLT48ZyBpZD0ibGlua19BMDFCcm9rZW5BY2Nlc3NDb250cm9sX3Jlc29sdmVfQTAxQnJva2VuQWNjZXNzQ29udHJvbCI+PHBhdGggZD0iTTE2NTMuNSw1OTkuMDYgQzE2NTMuNSw2MjIuMDYgMTY1My41LDY4My41OSAxNjUzLjUsNzMzLjI5ICIgZmlsbD0ibm9uZSIgaWQ9IkEwMUJyb2tlbkFjY2Vzc0NvbnRyb2xfcmVzb2x2ZS10by1BMDFCcm9rZW5BY2Nlc3NDb250cm9sIiBzdHlsZT0ic3Ryb2tlOiMwMDAwMDA7c3Ryb2tlLXdpZHRoOjIuMDsiLz48cG9seWdvbiBmaWxsPSIjMDAwMDAwIiBwb2ludHM9IjE2NTMuNSw3MzkuMjksMTY1Ny41LDczMC4yOSwxNjUzLjUsNzM0LjI5LDE2NDkuNSw3MzAuMjksMTY1My41LDczOS4yOSIgc3R5bGU9InN0cm9rZTojMDAwMDAwO3N0cm9rZS13aWR0aDoyLjA7Ii8+PHRleHQgZmlsbD0iIzAwMDAwMCIgZm9udC1mYW1pbHk9InNhbnMtc2VyaWYiIGZvbnQtc2l6ZT0iMTIiIGxlbmd0aEFkanVzdD0ic3BhY2luZyIgdGV4dExlbmd0aD0iNCIgeD0iMTY1NC41IiB5PSI2OTAuMTM4NyI+JiMxNjA7PC90ZXh0PjwvZz48IS0tbGluayBBUkNIMTQxQWNjZXNzRW5mb3JjZW1lbnRQb2ludHMgdG8gQTAxQnJva2VuQWNjZXNzQ29udHJvbF9yZXNvbHZlLS0+PGcgaWQ9ImxpbmtfQVJDSDE0MUFjY2Vzc0VuZm9yY2VtZW50UG9pbnRzX0EwMUJyb2tlbkFjY2Vzc0NvbnRyb2xfcmVzb2x2ZSI+PHBhdGggZD0iTTE3NzAuOTQsNDQwLjYgQzE3NjEuNjYsNDYwLjQzIDE3NDkuNzksNDgzLjA2IDE3MzYuNSw1MDIgQzE3MTMuNzIsNTM0LjQ3IDE2ODMuNTI4Miw1NjIuNjg5NCAxNjY3LjE1ODIsNTc3LjEzOTQgIiBmaWxsPSJub25lIiBpZD0iQVJDSDE0MUFjY2Vzc0VuZm9yY2VtZW50UG9pbnRzLXRvLUEwMUJyb2tlbkFjY2Vzc0NvbnRyb2xfcmVzb2x2ZSIgc3R5bGU9InN0cm9rZTojMDAwMDAwO3N0cm9rZS13aWR0aDoyLjA7Ii8+PHBvbHlnb24gZmlsbD0iIzAwMDAwMCIgcG9pbnRzPSIxNjYyLjY2LDU4MS4xMSwxNjcyLjA1NDQsNTc4LjE1MjksMTY2Ni40MDg1LDU3Ny44MDExLDE2NjYuNzYwMiw1NzIuMTU1MiwxNjYyLjY2LDU4MS4xMSIgc3R5bGU9InN0cm9rZTojMDAwMDAwO3N0cm9rZS13aWR0aDoyLjA7Ii8+PHRleHQgZmlsbD0iIzAwMDAwMCIgZm9udC1mYW1pbHk9InNhbnMtc2VyaWYiIGZvbnQtc2l6ZT0iMTIiIGxlbmd0aEFkanVzdD0ic3BhY2luZyIgdGV4dExlbmd0aD0iNCIgeD0iMTc0Ny41IiB5PSI0OTkuMTM4NyI+JiMxNjA7PC90ZXh0PjwvZz48IS0tbGluayBBUkNIMTQ0QWNjZXNzQ29udHJvbE1lY2hhbmlzbSB0byBBMDFCcm9rZW5BY2Nlc3NDb250cm9sX3Jlc29sdmUtLT48ZyBpZD0ibGlua19BUkNIMTQ0QWNjZXNzQ29udHJvbE1lY2hhbmlzbV9BMDFCcm9rZW5BY2Nlc3NDb250cm9sX3Jlc29sdmUiPjxwYXRoIGQ9Ik0xNjUyLjc1LDQ0MC41NyBDMTY1Mi45OSw0ODguNTYgMTY1My4zMDkxLDU1MS43MDAxIDE2NTMuNDI5MSw1NzQuOTkwMSAiIGZpbGw9Im5vbmUiIGlkPSJBUkNIMTQ0QWNjZXNzQ29udHJvbE1lY2hhbmlzbS10by1BMDFCcm9rZW5BY2Nlc3NDb250cm9sX3Jlc29sdmUiIHN0eWxlPSJzdHJva2U6IzAwMDAwMDtzdHJva2Utd2lkdGg6Mi4wOyIvPjxwb2x5Z29uIGZpbGw9IiMwMDAwMDAiIHBvaW50cz0iMTY1My40Niw1ODAuOTksMTY1Ny40MTM2LDU3MS45Njk1LDE2NTMuNDM0Miw1NzUuOTkwMSwxNjQ5LjQxMzcsNTcyLjAxMDcsMTY1My40Niw1ODAuOTkiIHN0eWxlPSJzdHJva2U6IzAwMDAwMDtzdHJva2Utd2lkdGg6Mi4wOyIvPjx0ZXh0IGZpbGw9IiMwMDAwMDAiIGZvbnQtZmFtaWx5PSJzYW5zLXNlcmlmIiBmb250LXNpemU9IjEyIiBsZW5ndGhBZGp1c3Q9InNwYWNpbmciIHRleHRMZW5ndGg9IjQiIHg9IjE2NTQuNSIgeT0iNDk5LjEzODciPiYjMTYwOzwvdGV4dD48L2c+PCEtLWxpbmsgQTA3SWRlbnRpZmljYXRpb25hbmRBdXRoZW50aWNhdGlvbkZhaWx1cmVzX3Jlc29sdmUgdG8gQTA3SWRlbnRpZmljYXRpb25hbmRBdXRoZW50aWNhdGlvbkZhaWx1cmVzLS0+PGcgaWQ9ImxpbmtfQTA3SWRlbnRpZmljYXRpb25hbmRBdXRoZW50aWNhdGlvbkZhaWx1cmVzX3Jlc29sdmVfQTA3SWRlbnRpZmljYXRpb25hbmRBdXRoZW50aWNhdGlvbkZhaWx1cmVzIj48cGF0aCBkPSJNMTEwNS41LDIyNC4zNyBDMTEwNS41LDI0Mi4zMSAxMTA1LjUsMjc5LjkxIDExMDUuNSwzMTcuODEgIiBmaWxsPSJub25lIiBpZD0iQTA3SWRlbnRpZmljYXRpb25hbmRBdXRoZW50aWNhdGlvbkZhaWx1cmVzX3Jlc29sdmUtdG8tQTA3SWRlbnRpZmljYXRpb25hbmRBdXRoZW50aWNhdGlvbkZhaWx1cmVzIiBzdHlsZT0ic3Ryb2tlOiMwMDAwMDA7c3Ryb2tlLXdpZHRoOjIuMDsiLz48cG9seWdvbiBmaWxsPSIjMDAwMDAwIiBwb2ludHM9IjExMDUuNSwzMjMuODEsMTEwOS41LDMxNC44MSwxMTA1LjUsMzE4LjgxLDExMDEuNSwzMTQuODEsMTEwNS41LDMyMy44MSIgc3R5bGU9InN0cm9rZTojMDAwMDAwO3N0cm9rZS13aWR0aDoyLjA7Ii8+PHRleHQgZmlsbD0iIzAwMDAwMCIgZm9udC1mYW1pbHk9InNhbnMtc2VyaWYiIGZvbnQtc2l6ZT0iMTIiIGxlbmd0aEFkanVzdD0ic3BhY2luZyIgdGV4dExlbmd0aD0iNCIgeD0iMTEwNi41IiB5PSIyOTEuMTM4NyI+JiMxNjA7PC90ZXh0PjwvZz48IS0tbGluayBBUkNIMTIzQXV0aGVudGljYXRpb25NZWNoYW5pc20gdG8gQTA3SWRlbnRpZmljYXRpb25hbmRBdXRoZW50aWNhdGlvbkZhaWx1cmVzX3Jlc29sdmUtLT48ZyBpZD0ibGlua19BUkNIMTIzQXV0aGVudGljYXRpb25NZWNoYW5pc21fQTA3SWRlbnRpZmljYXRpb25hbmRBdXRoZW50aWNhdGlvbkZhaWx1cmVzX3Jlc29sdmUiPjxwYXRoIGQ9Ik0xMDQ3Ljk5LDk4LjI1IEMxMDY2LjMyLDEzNS4xNCAxMDg5LjA2OTksMTgwLjkzNjkgMTA5OC44MDk5LDIwMC41MzY5ICIgZmlsbD0ibm9uZSIgaWQ9IkFSQ0gxMjNBdXRoZW50aWNhdGlvbk1lY2hhbmlzbS10by1BMDdJZGVudGlmaWNhdGlvbmFuZEF1dGhlbnRpY2F0aW9uRmFpbHVyZXNfcmVzb2x2ZSIgc3R5bGU9InN0cm9rZTojMDAwMDAwO3N0cm9rZS13aWR0aDoyLjA7Ii8+PHBvbHlnb24gZmlsbD0iIzAwMDAwMCIgcG9pbnRzPSIxMTAxLjQ4LDIwNS45MSwxMTAxLjA1NjksMTk2LjA3MDIsMTA5OS4yNTQ5LDIwMS40MzI0LDEwOTMuODkyNywxOTkuNjMwNCwxMTAxLjQ4LDIwNS45MSIgc3R5bGU9InN0cm9rZTojMDAwMDAwO3N0cm9rZS13aWR0aDoyLjA7Ii8+PHRleHQgZmlsbD0iIzAwMDAwMCIgZm9udC1mYW1pbHk9InNhbnMtc2VyaWYiIGZvbnQtc2l6ZT0iMTIiIGxlbmd0aEFkanVzdD0ic3BhY2luZyIgdGV4dExlbmd0aD0iNCIgeD0iMTA3NC41IiB5PSIxNDguMTM4NyI+JiMxNjA7PC90ZXh0PjwvZz48IS0tbGluayBBUkNIMTI0QXV0aGVudGljYXRpb25wYXRocyB0byBBMDdJZGVudGlmaWNhdGlvbmFuZEF1dGhlbnRpY2F0aW9uRmFpbHVyZXNfcmVzb2x2ZS0tPjxnIGlkPSJsaW5rX0FSQ0gxMjRBdXRoZW50aWNhdGlvbnBhdGhzX0EwN0lkZW50aWZpY2F0aW9uYW5kQXV0aGVudGljYXRpb25GYWlsdXJlc19yZXNvbHZlIj48cGF0aCBkPSJNMTE2Mi4yNyw5OC4yNSBDMTE0NC4xOCwxMzUuMTQgMTEyMS43MjE0LDE4MC45MjI3IDExMTIuMTExNCwyMDAuNTIyNyAiIGZpbGw9Im5vbmUiIGlkPSJBUkNIMTI0QXV0aGVudGljYXRpb25wYXRocy10by1BMDdJZGVudGlmaWNhdGlvbmFuZEF1dGhlbnRpY2F0aW9uRmFpbHVyZXNfcmVzb2x2ZSIgc3R5bGU9InN0cm9rZTojMDAwMDAwO3N0cm9rZS13aWR0aDoyLjA7Ii8+PHBvbHlnb24gZmlsbD0iIzAwMDAwMCIgcG9pbnRzPSIxMTA5LjQ3LDIwNS45MSwxMTE3LjAyMzcsMTk5LjU5LDExMTEuNjcxMiwyMDEuNDIwNiwxMTA5Ljg0MDYsMTk2LjA2ODEsMTEwOS40NywyMDUuOTEiIHN0eWxlPSJzdHJva2U6IzAwMDAwMDtzdHJva2Utd2lkdGg6Mi4wOyIvPjx0ZXh0IGZpbGw9IiMwMDAwMDAiIGZvbnQtZmFtaWx5PSJzYW5zLXNlcmlmIiBmb250LXNpemU9IjEyIiBsZW5ndGhBZGp1c3Q9InNwYWNpbmciIHRleHRMZW5ndGg9IjQiIHg9IjExNDMuNSIgeT0iMTQ4LjEzODciPiYjMTYwOzwvdGV4dD48L2c+PCEtLWxpbmsgQTA4U29mdHdhcmVhbmREYXRhSW50ZWdyaXR5RmFpbHVyZXNfcmVzb2x2ZSB0byBBMDhTb2Z0d2FyZWFuZERhdGFJbnRlZ3JpdHlGYWlsdXJlcy0tPjxnIGlkPSJsaW5rX0EwOFNvZnR3YXJlYW5kRGF0YUludGVncml0eUZhaWx1cmVzX3Jlc29sdmVfQTA4U29mdHdhcmVhbmREYXRhSW50ZWdyaXR5RmFpbHVyZXMiPjxwYXRoIGQ9Ik00NTAuMDUsNTk5LjA2IEM0NTEuNDUsNjE5LjYxIDQ1NC44NjE0LDY2OS43MzM5IDQ1OC4wODE0LDcxNi45MDM5ICIgZmlsbD0ibm9uZSIgaWQ9IkEwOFNvZnR3YXJlYW5kRGF0YUludGVncml0eUZhaWx1cmVzX3Jlc29sdmUtdG8tQTA4U29mdHdhcmVhbmREYXRhSW50ZWdyaXR5RmFpbHVyZXMiIHN0eWxlPSJzdHJva2U6IzAwMDAwMDtzdHJva2Utd2lkdGg6Mi4wOyIvPjxwb2x5Z29uIGZpbGw9IiMwMDAwMDAiIHBvaW50cz0iNDU4LjQ5LDcyMi44OSw0NjEuODY3OCw3MTMuNjM4NSw0NTguMTQ5NSw3MTcuOTAxNiw0NTMuODg2Myw3MTQuMTgzMyw0NTguNDksNzIyLjg5IiBzdHlsZT0ic3Ryb2tlOiMwMDAwMDA7c3Ryb2tlLXdpZHRoOjIuMDsiLz48dGV4dCBmaWxsPSIjMDAwMDAwIiBmb250LWZhbWlseT0ic2Fucy1zZXJpZiIgZm9udC1zaXplPSIxMiIgbGVuZ3RoQWRqdXN0PSJzcGFjaW5nIiB0ZXh0TGVuZ3RoPSI0IiB4PSI0NTcuNSIgeT0iNjkwLjEzODciPiYjMTYwOzwvdGV4dD48L2c+PCEtLWxpbmsgQVJDSDE1MlNlcmlhbGl6YXRpb24gdG8gQTA4U29mdHdhcmVhbmREYXRhSW50ZWdyaXR5RmFpbHVyZXNfcmVzb2x2ZS0tPjxnIGlkPSJsaW5rX0FSQ0gxNTJTZXJpYWxpemF0aW9uX0EwOFNvZnR3YXJlYW5kRGF0YUludGVncml0eUZhaWx1cmVzX3Jlc29sdmUiPjxwYXRoIGQ9Ik0xNzkuNzMsNDI0LjczIEMxOTAuODIsNDM1LjM2IDIwMy40Myw0NDYuOTcgMjE1LjUsNDU3IEMyNDEuNjgsNDc4Ljc3IDI0Ni41NSw0ODcuODEgMjc3LjUsNTAyIEMzMzAuMjIsNTI2LjE3IDM1NS41OSw1MDAuODQgNDA0LjUsNTMyIEM0MjQuMDcsNTQ0LjQ2IDQzNS45MTA3LDU2My4xNzQzIDQ0Mi42MzA3LDU3NS42ODQzICIgZmlsbD0ibm9uZSIgaWQ9IkFSQ0gxNTJTZXJpYWxpemF0aW9uLXRvLUEwOFNvZnR3YXJlYW5kRGF0YUludGVncml0eUZhaWx1cmVzX3Jlc29sdmUiIHN0eWxlPSJzdHJva2U6IzAwMDAwMDtzdHJva2Utd2lkdGg6Mi4wOyIvPjxwb2x5Z29uIGZpbGw9IiMwMDAwMDAiIHBvaW50cz0iNDQ1LjQ3LDU4MC45Nyw0NDQuNzM0OCw1NzEuMTQ4Niw0NDMuMTAzOSw1NzYuNTY1Myw0MzcuNjg3Myw1NzQuOTM0NCw0NDUuNDcsNTgwLjk3IiBzdHlsZT0ic3Ryb2tlOiMwMDAwMDA7c3Ryb2tlLXdpZHRoOjIuMDsiLz48dGV4dCBmaWxsPSIjMDAwMDAwIiBmb250LWZhbWlseT0ic2Fucy1zZXJpZiIgZm9udC1zaXplPSIxMiIgbGVuZ3RoQWRqdXN0PSJzcGFjaW5nIiB0ZXh0TGVuZ3RoPSI0IiB4PSIyNzguNSIgeT0iNDk5LjEzODciPiYjMTYwOzwvdGV4dD48L2c+PCEtLWxpbmsgQVJDSDE1M0lucHV0dmFsaWRhdGlvbiB0byBBMDhTb2Z0d2FyZWFuZERhdGFJbnRlZ3JpdHlGYWlsdXJlc19yZXNvbHZlLS0+PGcgaWQ9ImxpbmtfQVJDSDE1M0lucHV0dmFsaWRhdGlvbl9BMDhTb2Z0d2FyZWFuZERhdGFJbnRlZ3JpdHlGYWlsdXJlc19yZXNvbHZlIj48cGF0aCBkPSJNMjc5LjExLDQzMi41MiBDMjc5LjQ1LDQ1NS41NSAyODMuOTIsNDgzLjMyIDMwMC41LDUwMiBDMzMyLjQzLDUzNy45OSAzNjQuNTcsNTA1LjE3IDQwNC41LDUzMiBDNDIzLjU1LDU0NC44IDQzNS4zNTAxLDU2Mi45NjI5IDQ0Mi4yNjAxLDU3NS40MjI5ICIgZmlsbD0ibm9uZSIgaWQ9IkFSQ0gxNTNJbnB1dHZhbGlkYXRpb24tdG8tQTA4U29mdHdhcmVhbmREYXRhSW50ZWdyaXR5RmFpbHVyZXNfcmVzb2x2ZSIgc3R5bGU9InN0cm9rZTojMDAwMDAwO3N0cm9rZS13aWR0aDoyLjA7Ii8+PHBvbHlnb24gZmlsbD0iIzAwMDAwMCIgcG9pbnRzPSI0NDUuMTcsNTgwLjY3LDQ0NC4zMDMyLDU3MC44NTk0LDQ0Mi43NDUxLDU3Ni4yOTc0LDQzNy4zMDcsNTc0LjczOTMsNDQ1LjE3LDU4MC42NyIgc3R5bGU9InN0cm9rZTojMDAwMDAwO3N0cm9rZS13aWR0aDoyLjA7Ii8+PHRleHQgZmlsbD0iIzAwMDAwMCIgZm9udC1mYW1pbHk9InNhbnMtc2VyaWYiIGZvbnQtc2l6ZT0iMTIiIGxlbmd0aEFkanVzdD0ic3BhY2luZyIgdGV4dExlbmd0aD0iNCIgeD0iMzAxLjUiIHk9IjQ5OS4xMzg3Ij4mIzE2MDs8L3RleHQ+PC9nPjwhLS1saW5rIEFSQ0gxMTFTRExDIHRvIEEwOFNvZnR3YXJlYW5kRGF0YUludGVncml0eUZhaWx1cmVzX3Jlc29sdmUtLT48ZyBpZD0ibGlua19BUkNIMTExU0RMQ19BMDhTb2Z0d2FyZWFuZERhdGFJbnRlZ3JpdHlGYWlsdXJlc19yZXNvbHZlIj48cGF0aCBkPSJNMTQ4OS44Myw0MjQuOCBDMTQ3OC43NSw0MzYuMTcgMTQ2NS4zOSw0NDguMjIgMTQ1MS41LDQ1NyBDMTQwMi42NSw0ODcuODggMTM4Ni4yLDQ5MC44MiAxMzI5LjUsNTAyIEMxMjM4LjMxLDUxOS45OCA1NzYuMTcsNDg5LjUyIDQ5My41LDUzMiBDNDcyLjgyLDU0Mi42MyA0NjEuNDc5OSw1NjIuNDU0OCA0NTUuNDQ5OSw1NzUuNDg0OCAiIGZpbGw9Im5vbmUiIGlkPSJBUkNIMTExU0RMQy10by1BMDhTb2Z0d2FyZWFuZERhdGFJbnRlZ3JpdHlGYWlsdXJlc19yZXNvbHZlIiBzdHlsZT0ic3Ryb2tlOiMwMDAwMDA7c3Ryb2tlLXdpZHRoOjIuMDsiLz48cG9seWdvbiBmaWxsPSIjMDAwMDAwIiBwb2ludHM9IjQ1Mi45Myw1ODAuOTMsNDYwLjM0LDU3NC40NDIyLDQ1NS4wMjk5LDU3Ni4zOTIzLDQ1My4wNzk3LDU3MS4wODIzLDQ1Mi45Myw1ODAuOTMiIHN0eWxlPSJzdHJva2U6IzAwMDAwMDtzdHJva2Utd2lkdGg6Mi4wOyIvPjx0ZXh0IGZpbGw9IiMwMDAwMDAiIGZvbnQtZmFtaWx5PSJzYW5zLXNlcmlmIiBmb250LXNpemU9IjEyIiBsZW5ndGhBZGp1c3Q9InNwYWNpbmciIHRleHRMZW5ndGg9IjQiIHg9IjEzOTIuNSIgeT0iNDk5LjEzODciPiYjMTYwOzwvdGV4dD48L2c+PCEtLWxpbmsgQTA5U2VjdXJpdHlMb2dnaW5nYW5kTW9uaXRvcmluZ0ZhaWx1cmVzX3Jlc29sdmUgdG8gQTA5U2VjdXJpdHlMb2dnaW5nYW5kTW9uaXRvcmluZ0ZhaWx1cmVzLS0+PGcgaWQ9ImxpbmtfQTA5U2VjdXJpdHlMb2dnaW5nYW5kTW9uaXRvcmluZ0ZhaWx1cmVzX3Jlc29sdmVfQTA5U2VjdXJpdHlMb2dnaW5nYW5kTW9uaXRvcmluZ0ZhaWx1cmVzIj48cGF0aCBkPSJNNjM1LjA3LDU5OS4wNiBDNjQ0LjE3LDYxOS42MSA2NjYuNTgwNCw2NzAuMjMzOSA2ODcuNDcwNCw3MTcuNDAzOSAiIGZpbGw9Im5vbmUiIGlkPSJBMDlTZWN1cml0eUxvZ2dpbmdhbmRNb25pdG9yaW5nRmFpbHVyZXNfcmVzb2x2ZS10by1BMDlTZWN1cml0eUxvZ2dpbmdhbmRNb25pdG9yaW5nRmFpbHVyZXMiIHN0eWxlPSJzdHJva2U6IzAwMDAwMDtzdHJva2Utd2lkdGg6Mi4wOyIvPjxwb2x5Z29uIGZpbGw9IiMwMDAwMDAiIHBvaW50cz0iNjg5LjksNzIyLjg5LDY4OS45MTMsNzEzLjA0MTIsNjg3Ljg3NTMsNzE4LjMxODMsNjgyLjU5ODIsNzE2LjI4MDYsNjg5LjksNzIyLjg5IiBzdHlsZT0ic3Ryb2tlOiMwMDAwMDA7c3Ryb2tlLXdpZHRoOjIuMDsiLz48dGV4dCBmaWxsPSIjMDAwMDAwIiBmb250LWZhbWlseT0ic2Fucy1zZXJpZiIgZm9udC1zaXplPSIxMiIgbGVuZ3RoQWRqdXN0PSJzcGFjaW5nIiB0ZXh0TGVuZ3RoPSI0IiB4PSI2NzUuNSIgeT0iNjkwLjEzODciPiYjMTYwOzwvdGV4dD48L2c+PCEtLWxpbmsgQVJDSDE3MUxvZ2dpbmcgdG8gQTA5U2VjdXJpdHlMb2dnaW5nYW5kTW9uaXRvcmluZ0ZhaWx1cmVzX3Jlc29sdmUtLT48ZyBpZD0ibGlua19BUkNIMTcxTG9nZ2luZ19BMDlTZWN1cml0eUxvZ2dpbmdhbmRNb25pdG9yaW5nRmFpbHVyZXNfcmVzb2x2ZSI+PHBhdGggZD0iTTU2NC4wNiw0MjQuNTYgQzU4My4zMyw0NzEuNTYgNjE1LjIzMjYsNTQ5LjMzOSA2MjUuOTMyNiw1NzUuNDE5ICIgZmlsbD0ibm9uZSIgaWQ9IkFSQ0gxNzFMb2dnaW5nLXRvLUEwOVNlY3VyaXR5TG9nZ2luZ2FuZE1vbml0b3JpbmdGYWlsdXJlc19yZXNvbHZlIiBzdHlsZT0ic3Ryb2tlOiMwMDAwMDA7c3Ryb2tlLXdpZHRoOjIuMDsiLz48cG9seWdvbiBmaWxsPSIjMDAwMDAwIiBwb2ludHM9IjYyOC4yMSw1ODAuOTcsNjI4LjQ5NDUsNTcxLjEyNTMsNjI2LjMxMjEsNTc2LjM0NDIsNjIxLjA5MzIsNTc0LjE2MTgsNjI4LjIxLDU4MC45NyIgc3R5bGU9InN0cm9rZTojMDAwMDAwO3N0cm9rZS13aWR0aDoyLjA7Ii8+PHRleHQgZmlsbD0iIzAwMDAwMCIgZm9udC1mYW1pbHk9InNhbnMtc2VyaWYiIGZvbnQtc2l6ZT0iMTIiIGxlbmd0aEFkanVzdD0ic3BhY2luZyIgdGV4dExlbmd0aD0iNCIgeD0iNTk0LjUiIHk9IjQ5OS4xMzg3Ij4mIzE2MDs8L3RleHQ+PC9nPjwhLS1saW5rIEEwNEluc2VjdXJlRGVzaWduX3Jlc29sdmUgdG8gQTA0SW5zZWN1cmVEZXNpZ24tLT48ZyBpZD0ibGlua19BMDRJbnNlY3VyZURlc2lnbl9yZXNvbHZlX0EwNEluc2VjdXJlRGVzaWduIj48cGF0aCBkPSJNMTI0NC44Nyw1OTkuMDYgQzEyNDIuOTgsNjIzLjMyIDEyMzcuNzA2Miw2OTEuMTQ4MSAxMjMzLjc5NjIsNzQxLjMxODEgIiBmaWxsPSJub25lIiBpZD0iQTA0SW5zZWN1cmVEZXNpZ25fcmVzb2x2ZS10by1BMDRJbnNlY3VyZURlc2lnbiIgc3R5bGU9InN0cm9rZTojMDAwMDAwO3N0cm9rZS13aWR0aDoyLjA7Ii8+PHBvbHlnb24gZmlsbD0iIzAwMDAwMCIgcG9pbnRzPSIxMjMzLjMzLDc0Ny4zLDEyMzguMDE3Miw3MzguNjM4LDEyMzMuNzE4NSw3NDIuMzE1MSwxMjMwLjA0MTQsNzM4LjAxNjQsMTIzMy4zMyw3NDcuMyIgc3R5bGU9InN0cm9rZTojMDAwMDAwO3N0cm9rZS13aWR0aDoyLjA7Ii8+PHRleHQgZmlsbD0iIzAwMDAwMCIgZm9udC1mYW1pbHk9InNhbnMtc2VyaWYiIGZvbnQtc2l6ZT0iMTIiIGxlbmd0aEFkanVzdD0ic3BhY2luZyIgdGV4dExlbmd0aD0iNCIgeD0iMTIzOS41IiB5PSI2OTAuMTM4NyI+JiMxNjA7PC90ZXh0PjwvZz48IS0tbGluayBBUkNIMTE2RGVzaWduYW5kQXJjaGl0ZWN0U2VjdXJpdHlJbiB0byBBMDRJbnNlY3VyZURlc2lnbl9yZXNvbHZlLS0+PGcgaWQ9ImxpbmtfQVJDSDExNkRlc2lnbmFuZEFyY2hpdGVjdFNlY3VyaXR5SW5fQTA0SW5zZWN1cmVEZXNpZ25fcmVzb2x2ZSI+PHBhdGggZD0iTTEzMzguMjIsNDU3LjI2IEMxMzA1Ljg0LDUwMy4yNyAxMjY5LjMxMjMsNTU1LjE2MjcgMTI1NC42NzIzLDU3NS45NzI3ICIgZmlsbD0ibm9uZSIgaWQ9IkFSQ0gxMTZEZXNpZ25hbmRBcmNoaXRlY3RTZWN1cml0eUluLXRvLUEwNEluc2VjdXJlRGVzaWduX3Jlc29sdmUiIHN0eWxlPSJzdHJva2U6IzAwMDAwMDtzdHJva2Utd2lkdGg6Mi4wOyIvPjxwb2x5Z29uIGZpbGw9IiMwMDAwMDAiIHBvaW50cz0iMTI1MS4yMiw1ODAuODgsMTI1OS42Nyw1NzUuODIwNiwxMjU0LjA5NjksNTc2Ljc5MDYsMTI1My4xMjY5LDU3MS4yMTc1LDEyNTEuMjIsNTgwLjg4IiBzdHlsZT0ic3Ryb2tlOiMwMDAwMDA7c3Ryb2tlLXdpZHRoOjIuMDsiLz48dGV4dCBmaWxsPSIjMDAwMDAwIiBmb250LWZhbWlseT0ic2Fucy1zZXJpZiIgZm9udC1zaXplPSIxMiIgbGVuZ3RoQWRqdXN0PSJzcGFjaW5nIiB0ZXh0TGVuZ3RoPSI0IiB4PSIxMzE2LjUiIHk9IjQ5OS4xMzg3Ij4mIzE2MDs8L3RleHQ+PC9nPjwhLS1saW5rIEFSQ0gxMTNGZWF0dXJlc2FuZFVzZXJzdG9yaWVzIHRvIEEwNEluc2VjdXJlRGVzaWduX3Jlc29sdmUtLT48ZyBpZD0ibGlua19BUkNIMTEzRmVhdHVyZXNhbmRVc2Vyc3Rvcmllc19BMDRJbnNlY3VyZURlc2lnbl9yZXNvbHZlIj48cGF0aCBkPSJNMTAxMC4yMiw0NDIuNSBDMTAxNS44OSw0NDcuNTggMTAyMS43MSw0NTIuNTIgMTAyNy41LDQ1NyBDMTEwMi42OSw1MTUuMjcgMTE5OS45OTQ5LDU2Ni4wNjM5IDEyMzAuOTQ0OSw1ODEuNzAzOSAiIGZpbGw9Im5vbmUiIGlkPSJBUkNIMTEzRmVhdHVyZXNhbmRVc2Vyc3Rvcmllcy10by1BMDRJbnNlY3VyZURlc2lnbl9yZXNvbHZlIiBzdHlsZT0ic3Ryb2tlOiMwMDAwMDA7c3Ryb2tlLXdpZHRoOjIuMDsiLz48cG9seWdvbiBmaWxsPSIjMDAwMDAwIiBwb2ludHM9IjEyMzYuMyw1ODQuNDEsMTIzMC4wNzE0LDU3Ni43ODA4LDEyMzEuODM3NCw1ODIuMTU0OSwxMjI2LjQ2MzMsNTgzLjkyMDksMTIzNi4zLDU4NC40MSIgc3R5bGU9InN0cm9rZTojMDAwMDAwO3N0cm9rZS13aWR0aDoyLjA7Ii8+PHRleHQgZmlsbD0iIzAwMDAwMCIgZm9udC1mYW1pbHk9InNhbnMtc2VyaWYiIGZvbnQtc2l6ZT0iMTIiIGxlbmd0aEFkanVzdD0ic3BhY2luZyIgdGV4dExlbmd0aD0iNCIgeD0iMTA5MS41IiB5PSI0OTkuMTM4NyI+JiMxNjA7PC90ZXh0PjwvZz48IS0tbGluayBBUkNIMTEyVGhyZWF0bW9kZWxpbmcgdG8gQTA0SW5zZWN1cmVEZXNpZ25fcmVzb2x2ZS0tPjxnIGlkPSJsaW5rX0FSQ0gxMTJUaHJlYXRtb2RlbGluZ19BMDRJbnNlY3VyZURlc2lnbl9yZXNvbHZlIj48cGF0aCBkPSJNMTI0OS40NSw0MzIuOSBDMTI0OC4yNCw0ODAuNjQgMTI0Ni40OTE2LDU0OS43MzE5IDEyNDUuODYxNiw1NzQuNjUxOSAiIGZpbGw9Im5vbmUiIGlkPSJBUkNIMTEyVGhyZWF0bW9kZWxpbmctdG8tQTA0SW5zZWN1cmVEZXNpZ25fcmVzb2x2ZSIgc3R5bGU9InN0cm9rZTojMDAwMDAwO3N0cm9rZS13aWR0aDoyLjA7Ii8+PHBvbHlnb24gZmlsbD0iIzAwMDAwMCIgcG9pbnRzPSIxMjQ1LjcxLDU4MC42NSwxMjQ5LjkzNjIsNTcxLjc1NCwxMjQ1LjgzNjQsNTc1LjY1MTYsMTI0MS45Mzg3LDU3MS41NTE4LDEyNDUuNzEsNTgwLjY1IiBzdHlsZT0ic3Ryb2tlOiMwMDAwMDA7c3Ryb2tlLXdpZHRoOjIuMDsiLz48dGV4dCBmaWxsPSIjMDAwMDAwIiBmb250LWZhbWlseT0ic2Fucy1zZXJpZiIgZm9udC1zaXplPSIxMiIgbGVuZ3RoQWRqdXN0PSJzcGFjaW5nIiB0ZXh0TGVuZ3RoPSI0IiB4PSIxMjQ5LjUiIHk9IjQ5OS4xMzg3Ij4mIzE2MDs8L3RleHQ+PC9nPjwhLS1saW5rIEEwNlZ1bG5lcmFibGVhbmRPdXRkYXRlZENvbXBvbmVudHNfcmVzb2x2ZSB0byBBMDZWdWxuZXJhYmxlYW5kT3V0ZGF0ZWRDb21wb25lbnRzLS0+PGcgaWQ9ImxpbmtfQTA2VnVsbmVyYWJsZWFuZE91dGRhdGVkQ29tcG9uZW50c19yZXNvbHZlX0EwNlZ1bG5lcmFibGVhbmRPdXRkYXRlZENvbXBvbmVudHMiPjxwYXRoIGQ9Ik0xMzkzLjEzLDU5OS4wNiBDMTM4OS40Miw2MjAuOCAxMzc5Ljk1NzksNjc2LjQwNTMgMTM3MS42Njc5LDcyNS4wNTUzICIgZmlsbD0ibm9uZSIgaWQ9IkEwNlZ1bG5lcmFibGVhbmRPdXRkYXRlZENvbXBvbmVudHNfcmVzb2x2ZS10by1BMDZWdWxuZXJhYmxlYW5kT3V0ZGF0ZWRDb21wb25lbnRzIiBzdHlsZT0ic3Ryb2tlOiMwMDAwMDA7c3Ryb2tlLXdpZHRoOjIuMDsiLz48cG9seWdvbiBmaWxsPSIjMDAwMDAwIiBwb2ludHM9IjEzNzAuNjYsNzMwLjk3LDEzNzYuMTE1LDcyMi43Njk4LDEzNzEuNDk5OSw3MjYuMDQxLDEzNjguMjI4Nyw3MjEuNDI2LDEzNzAuNjYsNzMwLjk3IiBzdHlsZT0ic3Ryb2tlOiMwMDAwMDA7c3Ryb2tlLXdpZHRoOjIuMDsiLz48dGV4dCBmaWxsPSIjMDAwMDAwIiBmb250LWZhbWlseT0ic2Fucy1zZXJpZiIgZm9udC1zaXplPSIxMiIgbGVuZ3RoQWRqdXN0PSJzcGFjaW5nIiB0ZXh0TGVuZ3RoPSI0IiB4PSIxMzgwLjUiIHk9IjY5MC4xMzg3Ij4mIzE2MDs8L3RleHQ+PC9nPjwhLS1saW5rIEFSQ0gxMTFTRExDIHRvIEEwNlZ1bG5lcmFibGVhbmRPdXRkYXRlZENvbXBvbmVudHNfcmVzb2x2ZS0tPjxnIGlkPSJsaW5rX0FSQ0gxMTFTRExDX0EwNlZ1bG5lcmFibGVhbmRPdXRkYXRlZENvbXBvbmVudHNfcmVzb2x2ZSI+PHBhdGggZD0iTTE0OTcuNzUsNDI0LjU2IEMxNDY4LjI0LDQ3MS41NiAxNDE5LjExMTIsNTQ5LjgwOSAxNDAyLjczMTIsNTc1Ljg4OSAiIGZpbGw9Im5vbmUiIGlkPSJBUkNIMTExU0RMQy10by1BMDZWdWxuZXJhYmxlYW5kT3V0ZGF0ZWRDb21wb25lbnRzX3Jlc29sdmUiIHN0eWxlPSJzdHJva2U6IzAwMDAwMDtzdHJva2Utd2lkdGg6Mi4wOyIvPjxwb2x5Z29uIGZpbGw9IiMwMDAwMDAiIHBvaW50cz0iMTM5OS41NCw1ODAuOTcsMTQwNy43MTQxLDU3NS40NzYsMTQwMi4xOTkzLDU3Ni43MzU5LDE0MDAuOTM5NSw1NzEuMjIxMSwxMzk5LjU0LDU4MC45NyIgc3R5bGU9InN0cm9rZTojMDAwMDAwO3N0cm9rZS13aWR0aDoyLjA7Ii8+PHRleHQgZmlsbD0iIzAwMDAwMCIgZm9udC1mYW1pbHk9InNhbnMtc2VyaWYiIGZvbnQtc2l6ZT0iMTIiIGxlbmd0aEFkanVzdD0ic3BhY2luZyIgdGV4dExlbmd0aD0iNCIgeD0iMTQ1Ny41IiB5PSI0OTkuMTM4NyI+JiMxNjA7PC90ZXh0PjwvZz48IS0tbGluayBBMDNJbmplY3Rpb25fcmVzb2x2ZSB0byBBMDNJbmplY3Rpb24tLT48ZyBpZD0ibGlua19BMDNJbmplY3Rpb25fcmVzb2x2ZV9BMDNJbmplY3Rpb24iPjxwYXRoIGQ9Ik01NDAuMjIsNTk5LjA2IEM1NDUuNzEsNjI0LjY2IDU2MS43NDQzLDY5OS41NDI5IDU3Mi40MzQzLDc0OS40OTI5ICIgZmlsbD0ibm9uZSIgaWQ9IkEwM0luamVjdGlvbl9yZXNvbHZlLXRvLUEwM0luamVjdGlvbiIgc3R5bGU9InN0cm9rZTojMDAwMDAwO3N0cm9rZS13aWR0aDoyLjA7Ii8+PHBvbHlnb24gZmlsbD0iIzAwMDAwMCIgcG9pbnRzPSI1NzMuNjksNzU1LjM2LDU3NS43MTgsNzQ1LjcyMjIsNTcyLjY0MzYsNzUwLjQ3MDcsNTY3Ljg5NTEsNzQ3LjM5NjQsNTczLjY5LDc1NS4zNiIgc3R5bGU9InN0cm9rZTojMDAwMDAwO3N0cm9rZS13aWR0aDoyLjA7Ii8+PHRleHQgZmlsbD0iIzAwMDAwMCIgZm9udC1mYW1pbHk9InNhbnMtc2VyaWYiIGZvbnQtc2l6ZT0iMTIiIGxlbmd0aEFkanVzdD0ic3BhY2luZyIgdGV4dExlbmd0aD0iNCIgeD0iNTYwLjUiIHk9IjY5MC4xMzg3Ij4mIzE2MDs8L3RleHQ+PC9nPjwhLS1saW5rIEFSQ0gxNTNJbnB1dHZhbGlkYXRpb24gdG8gQTAzSW5qZWN0aW9uX3Jlc29sdmUtLT48ZyBpZD0ibGlua19BUkNIMTUzSW5wdXR2YWxpZGF0aW9uX0EwM0luamVjdGlvbl9yZXNvbHZlIj48cGF0aCBkPSJNMzIwLjgsNDMyLjY5IEMzMjkuNzgsNDQxLjI1IDMzOS42Miw0NDkuODQgMzQ5LjUsNDU3IEM0MDcuOTMsNDk5LjM1IDQzNy45MSw0ODUuOTkgNDkzLjUsNTMyIEM1MTAuOTgsNTQ2LjQ3IDUyMi45NTk2LDU2My42NzYgNTMwLjQwOTYsNTc1LjY0NiAiIGZpbGw9Im5vbmUiIGlkPSJBUkNIMTUzSW5wdXR2YWxpZGF0aW9uLXRvLUEwM0luamVjdGlvbl9yZXNvbHZlIiBzdHlsZT0ic3Ryb2tlOiMwMDAwMDA7c3Ryb2tlLXdpZHRoOjIuMDsiLz48cG9seWdvbiBmaWxsPSIjMDAwMDAwIiBwb2ludHM9IjUzMy41OCw1ODAuNzQsNTMyLjIyMDMsNTcwLjk4NTQsNTMwLjkzOCw1NzYuNDk1LDUyNS40Mjg0LDU3NS4yMTI3LDUzMy41OCw1ODAuNzQiIHN0eWxlPSJzdHJva2U6IzAwMDAwMDtzdHJva2Utd2lkdGg6Mi4wOyIvPjx0ZXh0IGZpbGw9IiMwMDAwMDAiIGZvbnQtZmFtaWx5PSJzYW5zLXNlcmlmIiBmb250LXNpemU9IjEyIiBsZW5ndGhBZGp1c3Q9InNwYWNpbmciIHRleHRMZW5ndGg9IjQiIHg9IjQ0NS41IiB5PSI0OTkuMTM4NyI+JiMxNjA7PC90ZXh0PjwvZz48IS0tbGluayBBUkNIMTU0T3V0cHV0ZW5jb2RpbmcgdG8gQTAzSW5qZWN0aW9uX3Jlc29sdmUtLT48ZyBpZD0ibGlua19BUkNIMTU0T3V0cHV0ZW5jb2RpbmdfQTAzSW5qZWN0aW9uX3Jlc29sdmUiPjxwYXRoIGQ9Ik00NDIuMDgsNDMyLjkgQzQ3MS41Niw0ODAuNjQgNTE0Ljc5NzMsNTUwLjYyNTEgNTMwLjE4NzMsNTc1LjU0NTEgIiBmaWxsPSJub25lIiBpZD0iQVJDSDE1NE91dHB1dGVuY29kaW5nLXRvLUEwM0luamVjdGlvbl9yZXNvbHZlIiBzdHlsZT0ic3Ryb2tlOiMwMDAwMDA7c3Ryb2tlLXdpZHRoOjIuMDsiLz48cG9seWdvbiBmaWxsPSIjMDAwMDAwIiBwb2ludHM9IjUzMy4zNCw1ODAuNjUsNTMyLjAxNDMsNTcwLjg5MDgsNTMwLjcxMjgsNTc2LjM5NTksNTI1LjIwNzcsNTc1LjA5NDQsNTMzLjM0LDU4MC42NSIgc3R5bGU9InN0cm9rZTojMDAwMDAwO3N0cm9rZS13aWR0aDoyLjA7Ii8+PHRleHQgZmlsbD0iIzAwMDAwMCIgZm9udC1mYW1pbHk9InNhbnMtc2VyaWYiIGZvbnQtc2l6ZT0iMTIiIGxlbmd0aEFkanVzdD0ic3BhY2luZyIgdGV4dExlbmd0aD0iNCIgeD0iNDgyLjUiIHk9IjQ5OS4xMzg3Ij4mIzE2MDs8L3RleHQ+PC9nPjwhLS1saW5rIEV4dGVybmFsc291cmNlc3VuYXZhaWxhYmxlX3Jlc29sdmUgdG8gRXh0ZXJuYWxzb3VyY2VzdW5hdmFpbGFibGUtLT48ZyBpZD0ibGlua19FeHRlcm5hbHNvdXJjZXN1bmF2YWlsYWJsZV9yZXNvbHZlX0V4dGVybmFsc291cmNlc3VuYXZhaWxhYmxlIj48cGF0aCBkPSJNMjEzMC41LDIyNC4zNyBDMjE0MS4wMywyNDYuMzcgMjE2Ny40MzAzLDMwMS41NTc2IDIxODcuMjEwMywzNDIuODk3NiAiIGZpbGw9Im5vbmUiIGlkPSJFeHRlcm5hbHNvdXJjZXN1bmF2YWlsYWJsZV9yZXNvbHZlLXRvLUV4dGVybmFsc291cmNlc3VuYXZhaWxhYmxlIiBzdHlsZT0ic3Ryb2tlOiMwMDAwMDA7c3Ryb2tlLXdpZHRoOjIuMDsiLz48cG9seWdvbiBmaWxsPSIjMDAwMDAwIiBwb2ludHM9IjIxODkuOCwzNDguMzEsMjE4OS41MjM4LDMzOC40NjUsMjE4Ny42NDIsMzQzLjc5OTcsMjE4Mi4zMDczLDM0MS45MTc5LDIxODkuOCwzNDguMzEiIHN0eWxlPSJzdHJva2U6IzAwMDAwMDtzdHJva2Utd2lkdGg6Mi4wOyIvPjx0ZXh0IGZpbGw9IiMwMDAwMDAiIGZvbnQtZmFtaWx5PSJzYW5zLXNlcmlmIiBmb250LXNpemU9IjEyIiBsZW5ndGhBZGp1c3Q9InNwYWNpbmciIHRleHRMZW5ndGg9IjQiIHg9IjIxNjQuNSIgeT0iMjkxLjEzODciPiYjMTYwOzwvdGV4dD48L2c+PCEtLWxpbmsgSU5GTzNMb2NhbERhdGFzdG9yZSB0byBFeHRlcm5hbHNvdXJjZXN1bmF2YWlsYWJsZV9yZXNvbHZlLS0+PGcgaWQ9ImxpbmtfSU5GTzNMb2NhbERhdGFzdG9yZV9FeHRlcm5hbHNvdXJjZXN1bmF2YWlsYWJsZV9yZXNvbHZlIj48cGF0aCBkPSJNMjA3MS41OSwxMDYuMjUgQzIwODkuOTIsMTQyLjIyIDIxMTAuMzk0NSwxODIuNDA0NyAyMTE5LjY3NDUsMjAwLjYwNDcgIiBmaWxsPSJub25lIiBpZD0iSU5GTzNMb2NhbERhdGFzdG9yZS10by1FeHRlcm5hbHNvdXJjZXN1bmF2YWlsYWJsZV9yZXNvbHZlIiBzdHlsZT0ic3Ryb2tlOiMwMDAwMDA7c3Ryb2tlLXdpZHRoOjIuMDsiLz48cG9seWdvbiBmaWxsPSIjMDAwMDAwIiBwb2ludHM9IjIxMjIuNCwyMDUuOTUsMjEyMS44NzUzLDE5Ni4xMTUxLDIxMjAuMTI4OCwyMDEuNDk1NiwyMTE0Ljc0ODMsMTk5Ljc0OTEsMjEyMi40LDIwNS45NSIgc3R5bGU9InN0cm9rZTojMDAwMDAwO3N0cm9rZS13aWR0aDoyLjA7Ii8+PHRleHQgZmlsbD0iIzAwMDAwMCIgZm9udC1mYW1pbHk9InNhbnMtc2VyaWYiIGZvbnQtc2l6ZT0iMTIiIGxlbmd0aEFkanVzdD0ic3BhY2luZyIgdGV4dExlbmd0aD0iNCIgeD0iMjA5NS41IiB5PSIxNDguMTM4NyI+JiMxNjA7PC90ZXh0PjwvZz48IS0tbGluayBBMDVTZWN1cml0eU1pc2NvbmZpZ3VyYXRpb25fcmVzb2x2ZSB0byBBMDVTZWN1cml0eU1pc2NvbmZpZ3VyYXRpb24tLT48ZyBpZD0ibGlua19BMDVTZWN1cml0eU1pc2NvbmZpZ3VyYXRpb25fcmVzb2x2ZV9BMDVTZWN1cml0eU1pc2NvbmZpZ3VyYXRpb24iPjxwYXRoIGQ9Ik0xNTE4LjQyLDU5OS4wNiBDMTUxOC4xOSw2MjMuMzIgMTUxNy41Mjg2LDY5MS4xMzAzIDE1MTcuMDM4Niw3NDEuMzAwMyAiIGZpbGw9Im5vbmUiIGlkPSJBMDVTZWN1cml0eU1pc2NvbmZpZ3VyYXRpb25fcmVzb2x2ZS10by1BMDVTZWN1cml0eU1pc2NvbmZpZ3VyYXRpb24iIHN0eWxlPSJzdHJva2U6IzAwMDAwMDtzdHJva2Utd2lkdGg6Mi4wOyIvPjxwb2x5Z29uIGZpbGw9IiMwMDAwMDAiIHBvaW50cz0iMTUxNi45OCw3NDcuMywxNTIxLjA2NzcsNzM4LjMzOTUsMTUxNy4wMjg4LDc0Mi4zMDAyLDE1MTMuMDY4MSw3MzguMjYxNCwxNTE2Ljk4LDc0Ny4zIiBzdHlsZT0ic3Ryb2tlOiMwMDAwMDA7c3Ryb2tlLXdpZHRoOjIuMDsiLz48dGV4dCBmaWxsPSIjMDAwMDAwIiBmb250LWZhbWlseT0ic2Fucy1zZXJpZiIgZm9udC1zaXplPSIxMiIgbGVuZ3RoQWRqdXN0PSJzcGFjaW5nIiB0ZXh0TGVuZ3RoPSI0IiB4PSIxNTE5LjUiIHk9IjY5MC4xMzg3Ij4mIzE2MDs8L3RleHQ+PC9nPjwhLS1saW5rIEFSQ0gxMTFTRExDIHRvIEEwNVNlY3VyaXR5TWlzY29uZmlndXJhdGlvbl9yZXNvbHZlLS0+PGcgaWQ9ImxpbmtfQVJDSDExMVNETENfQTA1U2VjdXJpdHlNaXNjb25maWd1cmF0aW9uX3Jlc29sdmUiPjxwYXRoIGQ9Ik0xNTE4LjUsNDI0LjU2IEMxNTE4LjUsNDcxLjU2IDE1MTguNSw1NDguODkgMTUxOC41LDU3NC45NyAiIGZpbGw9Im5vbmUiIGlkPSJBUkNIMTExU0RMQy10by1BMDVTZWN1cml0eU1pc2NvbmZpZ3VyYXRpb25fcmVzb2x2ZSIgc3R5bGU9InN0cm9rZTojMDAwMDAwO3N0cm9rZS13aWR0aDoyLjA7Ii8+PHBvbHlnb24gZmlsbD0iIzAwMDAwMCIgcG9pbnRzPSIxNTE4LjUsNTgwLjk3LDE1MjIuNSw1NzEuOTcsMTUxOC41LDU3NS45NywxNTE0LjUsNTcxLjk3LDE1MTguNSw1ODAuOTciIHN0eWxlPSJzdHJva2U6IzAwMDAwMDtzdHJva2Utd2lkdGg6Mi4wOyIvPjx0ZXh0IGZpbGw9IiMwMDAwMDAiIGZvbnQtZmFtaWx5PSJzYW5zLXNlcmlmIiBmb250LXNpemU9IjEyIiBsZW5ndGhBZGp1c3Q9InNwYWNpbmciIHRleHRMZW5ndGg9IjQiIHg9IjE1MTkuNSIgeT0iNDk5LjEzODciPiYjMTYwOzwvdGV4dD48L2c+PCEtLWxpbmsgQTAyQ3J5cHRvZ3JhcGhpY0ZhaWx1cmVzX3Jlc29sdmUgdG8gQTAyQ3J5cHRvZ3JhcGhpY0ZhaWx1cmVzLS0+PGcgaWQ9ImxpbmtfQTAyQ3J5cHRvZ3JhcGhpY0ZhaWx1cmVzX3Jlc29sdmVfQTAyQ3J5cHRvZ3JhcGhpY0ZhaWx1cmVzIj48cGF0aCBkPSJNODI2LjAzLDU5OS4wNiBDODM2LjY2LDYyMy4zMiA4NjYuNTczMiw2OTEuNjMzOSA4ODguNTQzMiw3NDEuODAzOSAiIGZpbGw9Im5vbmUiIGlkPSJBMDJDcnlwdG9ncmFwaGljRmFpbHVyZXNfcmVzb2x2ZS10by1BMDJDcnlwdG9ncmFwaGljRmFpbHVyZXMiIHN0eWxlPSJzdHJva2U6IzAwMDAwMDtzdHJva2Utd2lkdGg6Mi4wOyIvPjxwb2x5Z29uIGZpbGw9IiMwMDAwMDAiIHBvaW50cz0iODkwLjk1LDc0Ny4zLDg5MS4wMDM5LDczNy40NTEzLDg4OC45NDQzLDc0Mi43MTk5LDg4My42NzU3LDc0MC42NjA0LDg5MC45NSw3NDcuMyIgc3R5bGU9InN0cm9rZTojMDAwMDAwO3N0cm9rZS13aWR0aDoyLjA7Ii8+PHRleHQgZmlsbD0iIzAwMDAwMCIgZm9udC1mYW1pbHk9InNhbnMtc2VyaWYiIGZvbnQtc2l6ZT0iMTIiIGxlbmd0aEFkanVzdD0ic3BhY2luZyIgdGV4dExlbmd0aD0iNCIgeD0iODY2LjUiIHk9IjY5MC4xMzg3Ij4mIzE2MDs8L3RleHQ+PC9nPjwhLS1saW5rIEFSQ0gxNjJLZXlwcm90ZWN0aW9uIHRvIEEwMkNyeXB0b2dyYXBoaWNGYWlsdXJlc19yZXNvbHZlLS0+PGcgaWQ9ImxpbmtfQVJDSDE2MktleXByb3RlY3Rpb25fQTAyQ3J5cHRvZ3JhcGhpY0ZhaWx1cmVzX3Jlc29sdmUiPjxwYXRoIGQ9Ik03MTMuNDMsNDMyLjkgQzc0Ni43OCw0ODAuNjQgNzk1LjgxMjQsNTUwLjgxMjQgODEzLjIzMjQsNTc1LjczMjQgIiBmaWxsPSJub25lIiBpZD0iQVJDSDE2MktleXByb3RlY3Rpb24tdG8tQTAyQ3J5cHRvZ3JhcGhpY0ZhaWx1cmVzX3Jlc29sdmUiIHN0eWxlPSJzdHJva2U6IzAwMDAwMDtzdHJva2Utd2lkdGg6Mi4wOyIvPjxwb2x5Z29uIGZpbGw9IiMwMDAwMDAiIHBvaW50cz0iODE2LjY3LDU4MC42NSw4MTQuNzkyLDU3MC45ODE4LDgxMy44MDUzLDU3Ni41NTIsODA4LjIzNTIsNTc1LjU2NTMsODE2LjY3LDU4MC42NSIgc3R5bGU9InN0cm9rZTojMDAwMDAwO3N0cm9rZS13aWR0aDoyLjA7Ii8+PHRleHQgZmlsbD0iIzAwMDAwMCIgZm9udC1mYW1pbHk9InNhbnMtc2VyaWYiIGZvbnQtc2l6ZT0iMTIiIGxlbmd0aEFkanVzdD0ic3BhY2luZyIgdGV4dExlbmd0aD0iNCIgeD0iNzU5LjUiIHk9IjQ5OS4xMzg3Ij4mIzE2MDs8L3RleHQ+PC9nPjwhLS1saW5rIEFSQ0gxNjNLZXlyZXBsYWNlbWVudCB0byBBMDJDcnlwdG9ncmFwaGljRmFpbHVyZXNfcmVzb2x2ZS0tPjxnIGlkPSJsaW5rX0FSQ0gxNjNLZXlyZXBsYWNlbWVudF9BMDJDcnlwdG9ncmFwaGljRmFpbHVyZXNfcmVzb2x2ZSI+PHBhdGggZD0iTTgyMi41LDQzMi45IEM4MjIuNSw0ODAuNjQgODIyLjUsNTQ5LjczIDgyMi41LDU3NC42NSAiIGZpbGw9Im5vbmUiIGlkPSJBUkNIMTYzS2V5cmVwbGFjZW1lbnQtdG8tQTAyQ3J5cHRvZ3JhcGhpY0ZhaWx1cmVzX3Jlc29sdmUiIHN0eWxlPSJzdHJva2U6IzAwMDAwMDtzdHJva2Utd2lkdGg6Mi4wOyIvPjxwb2x5Z29uIGZpbGw9IiMwMDAwMDAiIHBvaW50cz0iODIyLjUsNTgwLjY1LDgyNi41LDU3MS42NSw4MjIuNSw1NzUuNjUsODE4LjUsNTcxLjY1LDgyMi41LDU4MC42NSIgc3R5bGU9InN0cm9rZTojMDAwMDAwO3N0cm9rZS13aWR0aDoyLjA7Ii8+PHRleHQgZmlsbD0iIzAwMDAwMCIgZm9udC1mYW1pbHk9InNhbnMtc2VyaWYiIGZvbnQtc2l6ZT0iMTIiIGxlbmd0aEFkanVzdD0ic3BhY2luZyIgdGV4dExlbmd0aD0iNCIgeD0iODIzLjUiIHk9IjQ5OS4xMzg3Ij4mIzE2MDs8L3RleHQ+PC9nPjwhLS1saW5rIFVuYXV0aG9yaXplZGNoYW5nZXN0b2Fzc2V0aW5mb3JtYXRpb24gdG8gQWx3YXlzY3VycmVudGluZm9ybWF0aW9uLS0+PGcgaWQ9ImxpbmtfVW5hdXRob3JpemVkY2hhbmdlc3RvYXNzZXRpbmZvcm1hdGlvbl9BbHdheXNjdXJyZW50aW5mb3JtYXRpb24iPjxwYXRoIGQ9Ik0yMDY5LjUsNDQ4LjYzIEMyMDY5LjUsNDgwLjQxIDIwNjkuNSw1MTMuMjQgMjA2OS41LDU0MS45OSAiIGZpbGw9Im5vbmUiIGlkPSJVbmF1dGhvcml6ZWRjaGFuZ2VzdG9hc3NldGluZm9ybWF0aW9uLXRvLUFsd2F5c2N1cnJlbnRpbmZvcm1hdGlvbiIgc3R5bGU9InN0cm9rZTojMDAwMDAwO3N0cm9rZS13aWR0aDoxLjA7c3Ryb2tlLWRhc2hhcnJheTo3LjAsNy4wOyIvPjxwb2x5Z29uIGZpbGw9IiMwMDAwMDAiIHBvaW50cz0iMjA2OS41LDU0Ny45OSwyMDczLjUsNTM4Ljk5LDIwNjkuNSw1NDIuOTksMjA2NS41LDUzOC45OSwyMDY5LjUsNTQ3Ljk5IiBzdHlsZT0ic3Ryb2tlOiMwMDAwMDA7c3Ryb2tlLXdpZHRoOjEuMDsiLz48dGV4dCBmaWxsPSIjMDAwMDAwIiBmb250LWZhbWlseT0ic2Fucy1zZXJpZiIgZm9udC1zaXplPSIxMiIgbGVuZ3RoQWRqdXN0PSJzcGFjaW5nIiB0ZXh0TGVuZ3RoPSI2MSIgeD0iMjA3MC41IiB5PSI0OTkuMTM4NyI+T2JzdHJ1Y3RzPC90ZXh0PjwvZz48IS0tbGluayBFeHRlcm5hbHNvdXJjZXN1bmF2YWlsYWJsZSB0byBBbHdheXNjdXJyZW50aW5mb3JtYXRpb24tLT48ZyBpZD0ibGlua19FeHRlcm5hbHNvdXJjZXN1bmF2YWlsYWJsZV9BbHdheXNjdXJyZW50aW5mb3JtYXRpb24iPjxwYXRoIGQ9Ik0yMTg1LjQ2LDQzMi43MSBDMjE3Mi43Miw0NTMuODUgMjE1Ni40Myw0NzkuNzUgMjE0MC41LDUwMiBDMjEyOS40OSw1MTcuMzggMjEyMC40NDk2LDUyOC45NjI4IDIxMDguNzE5Niw1NDMuMTcyOCAiIGZpbGw9Im5vbmUiIGlkPSJFeHRlcm5hbHNvdXJjZXN1bmF2YWlsYWJsZS10by1BbHdheXNjdXJyZW50aW5mb3JtYXRpb24iIHN0eWxlPSJzdHJva2U6IzAwMDAwMDtzdHJva2Utd2lkdGg6MS4wO3N0cm9rZS1kYXNoYXJyYXk6Ny4wLDcuMDsiLz48cG9seWdvbiBmaWxsPSIjMDAwMDAwIiBwb2ludHM9IjIxMDQuOSw1NDcuOCwyMTEzLjcxNDIsNTQzLjQwNTcsMjEwOC4wODMsNTQzLjk0NCwyMTA3LjU0NDYsNTM4LjMxMjksMjEwNC45LDU0Ny44IiBzdHlsZT0ic3Ryb2tlOiMwMDAwMDA7c3Ryb2tlLXdpZHRoOjEuMDsiLz48dGV4dCBmaWxsPSIjMDAwMDAwIiBmb250LWZhbWlseT0ic2Fucy1zZXJpZiIgZm9udC1zaXplPSIxMiIgbGVuZ3RoQWRqdXN0PSJzcGFjaW5nIiB0ZXh0TGVuZ3RoPSI2MSIgeD0iMjE1Mi41IiB5PSI0OTkuMTM4NyI+T2JzdHJ1Y3RzPC90ZXh0PjwvZz48IS0tbGluayBMb3Nzb2ZpbmZyYXN0cnVjdHVyZSB0byBIaWdobHlBdmFpbGFibGUtLT48ZyBpZD0ibGlua19Mb3Nzb2ZpbmZyYXN0cnVjdHVyZV9IaWdobHlBdmFpbGFibGUiPjxwYXRoIGQ9Ik0yMjczLjkzLDk4LjI2IEMyMjY1LjM3LDEwOS45MyAyMjU2Ljg0LDEyMyAyMjUwLjUsMTM2IEMyMjQzLjY1LDE1MC4wMyAyMjQwLjA0MTcsMTYwLjczNTggMjIzNi41MjE3LDE3NC45NTU4ICIgZmlsbD0ibm9uZSIgaWQ9Ikxvc3NvZmluZnJhc3RydWN0dXJlLXRvLUhpZ2hseUF2YWlsYWJsZSIgc3R5bGU9InN0cm9rZTojMDAwMDAwO3N0cm9rZS13aWR0aDoxLjA7c3Ryb2tlLWRhc2hhcnJheTo3LjAsNy4wOyIvPjxwb2x5Z29uIGZpbGw9IiMwMDAwMDAiIHBvaW50cz0iMjIzNS4wOCwxODAuNzgsMjI0MS4xMjU0LDE3My4wMDQ4LDIyMzYuMjgxNCwxNzUuOTI2NSwyMjMzLjM1OTgsMTcxLjA4MjUsMjIzNS4wOCwxODAuNzgiIHN0eWxlPSJzdHJva2U6IzAwMDAwMDtzdHJva2Utd2lkdGg6MS4wOyIvPjx0ZXh0IGZpbGw9IiMwMDAwMDAiIGZvbnQtZmFtaWx5PSJzYW5zLXNlcmlmIiBmb250LXNpemU9IjEyIiBsZW5ndGhBZGp1c3Q9InNwYWNpbmciIHRleHRMZW5ndGg9IjYxIiB4PSIyMjUxLjUiIHk9IjE0OC4xMzg3Ij5PYnN0cnVjdHM8L3RleHQ+PC9nPjwhLS1saW5rIEluZm9ybWF0aW9ubm90c3VmZmljaWVudCB0byBFbmFibGVyaXNrYmFzZWRkZWNpc2lvbm1ha2luZy0tPjxnIGlkPSJsaW5rX0luZm9ybWF0aW9ubm90c3VmZmljaWVudF9FbmFibGVyaXNrYmFzZWRkZWNpc2lvbm1ha2luZyI+PHBhdGggZD0iTTMwNy4xMSwxMDExLjU3IEMzMjEuOTMsMTAxNy45OSAzMzguMzIsMTAyNC45MiAzNTMuNSwxMDMxIEM0NjguMDcsMTA3Ni44NiA1OTkuODAxNiwxMTI0LjA2NDMgNjY1Ljc1MTYsMTE0Ny4zMjQzICIgZmlsbD0ibm9uZSIgaWQ9IkluZm9ybWF0aW9ubm90c3VmZmljaWVudC10by1FbmFibGVyaXNrYmFzZWRkZWNpc2lvbm1ha2luZyIgc3R5bGU9InN0cm9rZTojMDAwMDAwO3N0cm9rZS13aWR0aDoxLjA7c3Ryb2tlLWRhc2hhcnJheTo3LjAsNy4wOyIvPjxwb2x5Z29uIGZpbGw9IiMwMDAwMDAiIHBvaW50cz0iNjcxLjQxLDExNDkuMzIsNjY0LjI1MjksMTE0Mi41NTQyLDY2Ni42OTQ3LDExNDcuNjU2OSw2NjEuNTkyLDExNTAuMDk4OCw2NzEuNDEsMTE0OS4zMiIgc3R5bGU9InN0cm9rZTojMDAwMDAwO3N0cm9rZS13aWR0aDoxLjA7Ii8+PHRleHQgZmlsbD0iIzAwMDAwMCIgZm9udC1mYW1pbHk9InNhbnMtc2VyaWYiIGZvbnQtc2l6ZT0iMTIiIGxlbmd0aEFkanVzdD0ic3BhY2luZyIgdGV4dExlbmd0aD0iNjEiIHg9IjQ2Mi41IiB5PSIxMDczLjEzODciPk9ic3RydWN0czwvdGV4dD48L2c+PCEtLWxpbmsgSW5mb3JtYXRpb25vdXRkYXRlZCB0byBFbmFibGVyaXNrYmFzZWRkZWNpc2lvbm1ha2luZy0tPjxnIGlkPSJsaW5rX0luZm9ybWF0aW9ub3V0ZGF0ZWRfRW5hYmxlcmlza2Jhc2VkZGVjaXNpb25tYWtpbmciPjxwYXRoIGQ9Ik0xMzgyLjc5LDEwMDEuNjkgQzEyNDguMDMsMTAzNC4wMiA4NzcuOTQ0NCwxMTIyLjgyMDEgNzU1LjQ1NDQsMTE1Mi4yMTAxICIgZmlsbD0ibm9uZSIgaWQ9IkluZm9ybWF0aW9ub3V0ZGF0ZWQtdG8tRW5hYmxlcmlza2Jhc2VkZGVjaXNpb25tYWtpbmciIHN0eWxlPSJzdHJva2U6IzAwMDAwMDtzdHJva2Utd2lkdGg6MS4wO3N0cm9rZS1kYXNoYXJyYXk6Ny4wLDcuMDsiLz48cG9seWdvbiBmaWxsPSIjMDAwMDAwIiBwb2ludHM9Ijc0OS42MiwxMTUzLjYxLDc1OS4zMDQ5LDExNTUuMzk5OCw3NTQuNDgyLDExNTIuNDQzNCw3NTcuNDM4MywxMTQ3LjYyMDYsNzQ5LjYyLDExNTMuNjEiIHN0eWxlPSJzdHJva2U6IzAwMDAwMDtzdHJva2Utd2lkdGg6MS4wOyIvPjx0ZXh0IGZpbGw9IiMwMDAwMDAiIGZvbnQtZmFtaWx5PSJzYW5zLXNlcmlmIiBmb250LXNpemU9IjEyIiBsZW5ndGhBZGp1c3Q9InNwYWNpbmciIHRleHRMZW5ndGg9IjYxIiB4PSIxMTM3LjUiIHk9IjEwNzMuMTM4NyI+T2JzdHJ1Y3RzPC90ZXh0PjwvZz48IS0tbGluayBBMDhTb2Z0d2FyZWFuZERhdGFJbnRlZ3JpdHlGYWlsdXJlcyB0byBDdXN0b21pemFibGUtLT48ZyBpZD0ibGlua19BMDhTb2Z0d2FyZWFuZERhdGFJbnRlZ3JpdHlGYWlsdXJlc19DdXN0b21pemFibGUiPjxwYXRoIGQ9Ik01MDEuMTQsODcyLjA0IEM1MTcuNjUsOTA0LjI5IDUzMy4xOTYxLDkzNC42NTkxIDU0NS4wNDYxLDk1Ny44MDkxICIgZmlsbD0ibm9uZSIgaWQ9IkEwOFNvZnR3YXJlYW5kRGF0YUludGVncml0eUZhaWx1cmVzLXRvLUN1c3RvbWl6YWJsZSIgc3R5bGU9InN0cm9rZTojMDAwMDAwO3N0cm9rZS13aWR0aDoxLjA7c3Ryb2tlLWRhc2hhcnJheTo3LjAsNy4wOyIvPjxwb2x5Z29uIGZpbGw9IiMwMDAwMDAiIHBvaW50cz0iNTQ3Ljc4LDk2My4xNSw1NDcuMjM5OCw5NTMuMzE2LDU0NS41MDE3LDk1OC42OTkyLDU0MC4xMTg1LDk1Ni45NjEyLDU0Ny43OCw5NjMuMTUiIHN0eWxlPSJzdHJva2U6IzAwMDAwMDtzdHJva2Utd2lkdGg6MS4wOyIvPjx0ZXh0IGZpbGw9IiMwMDAwMDAiIGZvbnQtZmFtaWx5PSJzYW5zLXNlcmlmIiBmb250LXNpemU9IjEyIiBsZW5ndGhBZGp1c3Q9InNwYWNpbmciIHRleHRMZW5ndGg9IjYxIiB4PSI1MjUuNSIgeT0iOTE0LjEzODciPk9ic3RydWN0czwvdGV4dD48L2c+PCEtLWxpbmsgQTA4U29mdHdhcmVhbmREYXRhSW50ZWdyaXR5RmFpbHVyZXMgdG8gRXh0ZW5kYWJsZS0tPjxnIGlkPSJsaW5rX0EwOFNvZnR3YXJlYW5kRGF0YUludGVncml0eUZhaWx1cmVzX0V4dGVuZGFibGUiPjxwYXRoIGQ9Ik00NDYuNDMsODcyLjA0IEM0MzguOTQsOTA0LjI5IDQzMi4wMDgyLDkzNC4xNTU3IDQyNi42MjgyLDk1Ny4zMDU3ICIgZmlsbD0ibm9uZSIgaWQ9IkEwOFNvZnR3YXJlYW5kRGF0YUludGVncml0eUZhaWx1cmVzLXRvLUV4dGVuZGFibGUiIHN0eWxlPSJzdHJva2U6IzAwMDAwMDtzdHJva2Utd2lkdGg6MS4wO3N0cm9rZS1kYXNoYXJyYXk6Ny4wLDcuMDsiLz48cG9seWdvbiBmaWxsPSIjMDAwMDAwIiBwb2ludHM9IjQyNS4yNyw5NjMuMTUsNDMxLjIwMzUsOTU1LjI4OTEsNDI2LjQwMTgsOTU4LjI3OTgsNDIzLjQxMTEsOTUzLjQ3ODIsNDI1LjI3LDk2My4xNSIgc3R5bGU9InN0cm9rZTojMDAwMDAwO3N0cm9rZS13aWR0aDoxLjA7Ii8+PHRleHQgZmlsbD0iIzAwMDAwMCIgZm9udC1mYW1pbHk9InNhbnMtc2VyaWYiIGZvbnQtc2l6ZT0iMTIiIGxlbmd0aEFkanVzdD0ic3BhY2luZyIgdGV4dExlbmd0aD0iNjEiIHg9IjQ0MC41IiB5PSI5MTQuMTM4NyI+T2JzdHJ1Y3RzPC90ZXh0PjwvZz48IS0tbGluayBBMDFCcm9rZW5BY2Nlc3NDb250cm9sIHRvIFNlY3VyZS0tPjxnIGlkPSJsaW5rX0EwMUJyb2tlbkFjY2Vzc0NvbnRyb2xfU2VjdXJlIj48cGF0aCBkPSJNMTYxOC41OSw4NTUuNTEgQzE2MTMuMSw4NjEuNjggMTYwNy4wNiw4NjcuMzggMTYwMC41LDg3MiBDMTUyNC41Myw5MjUuNTkgMTI0NC43MzIyLDk2OC41NjkyIDExNDUuMDIyMiw5ODIuNTA5MiAiIGZpbGw9Im5vbmUiIGlkPSJBMDFCcm9rZW5BY2Nlc3NDb250cm9sLXRvLVNlY3VyZSIgc3R5bGU9InN0cm9rZTojMDAwMDAwO3N0cm9rZS13aWR0aDoxLjA7c3Ryb2tlLWRhc2hhcnJheTo3LjAsNy4wOyIvPjxwb2x5Z29uIGZpbGw9IiMwMDAwMDAiIHBvaW50cz0iMTEzOS4wOCw5ODMuMzQsMTE0OC41NDcxLDk4Ni4wNTUzLDExNDQuMDMxOCw5ODIuNjQ3NywxMTQ3LjQzOTUsOTc4LjEzMjQsMTEzOS4wOCw5ODMuMzQiIHN0eWxlPSJzdHJva2U6IzAwMDAwMDtzdHJva2Utd2lkdGg6MS4wOyIvPjx0ZXh0IGZpbGw9IiMwMDAwMDAiIGZvbnQtZmFtaWx5PSJzYW5zLXNlcmlmIiBmb250LXNpemU9IjEyIiBsZW5ndGhBZGp1c3Q9InNwYWNpbmciIHRleHRMZW5ndGg9IjYxIiB4PSIxNTM2LjUiIHk9IjkxNC4xMzg3Ij5PYnN0cnVjdHM8L3RleHQ+PC9nPjwhLS1saW5rIEEwOFNvZnR3YXJlYW5kRGF0YUludGVncml0eUZhaWx1cmVzIHRvIFNlY3VyZS0tPjxnIGlkPSJsaW5rX0EwOFNvZnR3YXJlYW5kRGF0YUludGVncml0eUZhaWx1cmVzX1NlY3VyZSI+PHBhdGggZD0iTTUwMy41NCw4NTMuNjcgQzUxMC4yOCw4NjAuNTMgNTE3LjY2LDg2Ni45MSA1MjUuNSw4NzIgQzYxNy40Miw5MzEuNjMgOTUzLjUzNDUsOTcxLjkwNzUgMTA2My45MzQ1LDk4My43OTc1ICIgZmlsbD0ibm9uZSIgaWQ9IkEwOFNvZnR3YXJlYW5kRGF0YUludGVncml0eUZhaWx1cmVzLXRvLVNlY3VyZSIgc3R5bGU9InN0cm9rZTojMDAwMDAwO3N0cm9rZS13aWR0aDoxLjA7c3Ryb2tlLWRhc2hhcnJheTo3LjAsNy4wOyIvPjxwb2x5Z29uIGZpbGw9IiMwMDAwMDAiIHBvaW50cz0iMTA2OS45LDk4NC40NCwxMDYxLjM4MDEsOTc5LjQ5OTMsMTA2NC45Mjg3LDk4My45MDQ2LDEwNjAuNTIzNCw5ODcuNDUzMywxMDY5LjksOTg0LjQ0IiBzdHlsZT0ic3Ryb2tlOiMwMDAwMDA7c3Ryb2tlLXdpZHRoOjEuMDsiLz48dGV4dCBmaWxsPSIjMDAwMDAwIiBmb250LWZhbWlseT0ic2Fucy1zZXJpZiIgZm9udC1zaXplPSIxMiIgbGVuZ3RoQWRqdXN0PSJzcGFjaW5nIiB0ZXh0TGVuZ3RoPSI2MSIgeD0iNjQyLjUiIHk9IjkxNC4xMzg3Ij5PYnN0cnVjdHM8L3RleHQ+PC9nPjwhLS1saW5rIEEwOVNlY3VyaXR5TG9nZ2luZ2FuZE1vbml0b3JpbmdGYWlsdXJlcyB0byBTZWN1cmUtLT48ZyBpZD0ibGlua19BMDlTZWN1cml0eUxvZ2dpbmdhbmRNb25pdG9yaW5nRmFpbHVyZXNfU2VjdXJlIj48cGF0aCBkPSJNNzY5LjE1LDgzMS4wNCBDNzg5LjM5LDg0NC41MSA4MTMuNjUsODU5LjggODM2LjUsODcyIEM5MTcuNDQsOTE1LjIzIDEwMTIuMjkzMiw5NTMuMTgzNiAxMDY0LjIwMzIsOTcyLjk2MzYgIiBmaWxsPSJub25lIiBpZD0iQTA5U2VjdXJpdHlMb2dnaW5nYW5kTW9uaXRvcmluZ0ZhaWx1cmVzLXRvLVNlY3VyZSIgc3R5bGU9InN0cm9rZTojMDAwMDAwO3N0cm9rZS13aWR0aDoxLjA7c3Ryb2tlLWRhc2hhcnJheTo3LjAsNy4wOyIvPjxwb2x5Z29uIGZpbGw9IiMwMDAwMDAiIHBvaW50cz0iMTA2OS44MSw5NzUuMSwxMDYyLjgyNDEsOTY4LjE1NzUsMTA2NS4xMzc3LDk3My4zMTk2LDEwNTkuOTc1Niw5NzUuNjMzMiwxMDY5LjgxLDk3NS4xIiBzdHlsZT0ic3Ryb2tlOiMwMDAwMDA7c3Ryb2tlLXdpZHRoOjEuMDsiLz48dGV4dCBmaWxsPSIjMDAwMDAwIiBmb250LWZhbWlseT0ic2Fucy1zZXJpZiIgZm9udC1zaXplPSIxMiIgbGVuZ3RoQWRqdXN0PSJzcGFjaW5nIiB0ZXh0TGVuZ3RoPSI2MSIgeD0iOTI0LjUiIHk9IjkxNC4xMzg3Ij5PYnN0cnVjdHM8L3RleHQ+PC9nPjwhLS1saW5rIEEwNEluc2VjdXJlRGVzaWduIHRvIFNlY3VyZS0tPjxnIGlkPSJsaW5rX0EwNEluc2VjdXJlRGVzaWduX1NlY3VyZSI+PHBhdGggZD0iTTEyMTEuNzcsODQ3LjU5IEMxMjAyLjYxLDg2OS43OCAxMTkwLjI1LDg5NS43MyAxMTc1LjUsOTE3IEMxMTYzLjY4LDkzNC4wNCAxMTUxLjkxMTksOTQ2LjUxMzYgMTEzNy45OTE5LDk1OS4zNDM2ICIgZmlsbD0ibm9uZSIgaWQ9IkEwNEluc2VjdXJlRGVzaWduLXRvLVNlY3VyZSIgc3R5bGU9InN0cm9rZTojMDAwMDAwO3N0cm9rZS13aWR0aDoxLjA7c3Ryb2tlLWRhc2hhcnJheTo3LjAsNy4wOyIvPjxwb2x5Z29uIGZpbGw9IiMwMDAwMDAiIHBvaW50cz0iMTEzMy41OCw5NjMuNDEsMTE0Mi45MDg3LDk2MC4yNTE3LDExMzcuMjU2NSw5NjAuMDIxMywxMTM3LjQ4NjksOTU0LjM2OTIsMTEzMy41OCw5NjMuNDEiIHN0eWxlPSJzdHJva2U6IzAwMDAwMDtzdHJva2Utd2lkdGg6MS4wOyIvPjx0ZXh0IGZpbGw9IiMwMDAwMDAiIGZvbnQtZmFtaWx5PSJzYW5zLXNlcmlmIiBmb250LXNpemU9IjEyIiBsZW5ndGhBZGp1c3Q9InNwYWNpbmciIHRleHRMZW5ndGg9IjYxIiB4PSIxMTg2LjUiIHk9IjkxNC4xMzg3Ij5PYnN0cnVjdHM8L3RleHQ+PC9nPjwhLS1saW5rIEEwNlZ1bG5lcmFibGVhbmRPdXRkYXRlZENvbXBvbmVudHMgdG8gU2VjdXJlLS0+PGcgaWQ9ImxpbmtfQTA2VnVsbmVyYWJsZWFuZE91dGRhdGVkQ29tcG9uZW50c19TZWN1cmUiPjxwYXRoIGQ9Ik0xMzEwLjk3LDg2NC4xMSBDMTI5NS4wNCw4ODIuNzcgMTI3Ni4zLDkwMi4wNyAxMjU2LjUsOTE3IEMxMjIwLjExLDk0NC40NCAxMTc3LjA0MDgsOTYyLjgyNTMgMTE0NC42ODA4LDk3NC41NTUzICIgZmlsbD0ibm9uZSIgaWQ9IkEwNlZ1bG5lcmFibGVhbmRPdXRkYXRlZENvbXBvbmVudHMtdG8tU2VjdXJlIiBzdHlsZT0ic3Ryb2tlOiMwMDAwMDA7c3Ryb2tlLXdpZHRoOjEuMDtzdHJva2UtZGFzaGFycmF5OjcuMCw3LjA7Ii8+PHBvbHlnb24gZmlsbD0iIzAwMDAwMCIgcG9pbnRzPSIxMTM5LjA0LDk3Ni42LDExNDguODY0NCw5NzcuMjkzNSwxMTQzLjc0MDcsOTc0Ljg5NjEsMTE0Ni4xMzgxLDk2OS43NzI0LDExMzkuMDQsOTc2LjYiIHN0eWxlPSJzdHJva2U6IzAwMDAwMDtzdHJva2Utd2lkdGg6MS4wOyIvPjx0ZXh0IGZpbGw9IiMwMDAwMDAiIGZvbnQtZmFtaWx5PSJzYW5zLXNlcmlmIiBmb250LXNpemU9IjEyIiBsZW5ndGhBZGp1c3Q9InNwYWNpbmciIHRleHRMZW5ndGg9IjYxIiB4PSIxMjc0LjUiIHk9IjkxNC4xMzg3Ij5PYnN0cnVjdHM8L3RleHQ+PC9nPjwhLS1saW5rIEEwM0luamVjdGlvbiB0byBTZWN1cmUtLT48ZyBpZD0ibGlua19BMDNJbmplY3Rpb25fU2VjdXJlIj48cGF0aCBkPSJNNjE3LjYsODM5Ljc3IEM2MjkuNTIsODUxLjY0IDY0My42Miw4NjMuNjMgNjU4LjUsODcyIEM2OTUuMDcsODkyLjU2IDk2NS4yNzM0LDk1NS45NTIxIDEwNjMuODIzNCw5NzguNjcyMSAiIGZpbGw9Im5vbmUiIGlkPSJBMDNJbmplY3Rpb24tdG8tU2VjdXJlIiBzdHlsZT0ic3Ryb2tlOiMwMDAwMDA7c3Ryb2tlLXdpZHRoOjEuMDtzdHJva2UtZGFzaGFycmF5OjcuMCw3LjA7Ii8+PHBvbHlnb24gZmlsbD0iIzAwMDAwMCIgcG9pbnRzPSIxMDY5LjY3LDk4MC4wMiwxMDYxLjc5ODYsOTc0LjEwMDQsMTA2NC43OTc4LDk3OC44OTY3LDEwNjAuMDAxNCw5ODEuODk1OSwxMDY5LjY3LDk4MC4wMiIgc3R5bGU9InN0cm9rZTojMDAwMDAwO3N0cm9rZS13aWR0aDoxLjA7Ii8+PHRleHQgZmlsbD0iIzAwMDAwMCIgZm9udC1mYW1pbHk9InNhbnMtc2VyaWYiIGZvbnQtc2l6ZT0iMTIiIGxlbmd0aEFkanVzdD0ic3BhY2luZyIgdGV4dExlbmd0aD0iNjEiIHg9Ijc5OS41IiB5PSI5MTQuMTM4NyI+T2JzdHJ1Y3RzPC90ZXh0PjwvZz48IS0tbGluayBBMDVTZWN1cml0eU1pc2NvbmZpZ3VyYXRpb24gdG8gU2VjdXJlLS0+PGcgaWQ9ImxpbmtfQTA1U2VjdXJpdHlNaXNjb25maWd1cmF0aW9uX1NlY3VyZSI+PHBhdGggZD0iTTE0NjMuNjIsODQ3LjU1IEMxNDUzLjMsODU2LjE1IDE0NDIuMzIsODY0LjY3IDE0MzEuNSw4NzIgQzEzMzYuNDgsOTM2LjMzIDEyMDcuNjgyOCw5NjcuOTc5NyAxMTQ0Ljk4MjgsOTgwLjU1OTcgIiBmaWxsPSJub25lIiBpZD0iQTA1U2VjdXJpdHlNaXNjb25maWd1cmF0aW9uLXRvLVNlY3VyZSIgc3R5bGU9InN0cm9rZTojMDAwMDAwO3N0cm9rZS13aWR0aDoxLjA7c3Ryb2tlLWRhc2hhcnJheTo3LjAsNy4wOyIvPjxwb2x5Z29uIGZpbGw9IiMwMDAwMDAiIHBvaW50cz0iMTEzOS4xLDk4MS43NCwxMTQ4LjcxMSw5ODMuODkxNCwxMTQ0LjAwMjMsOTgwLjc1NjQsMTE0Ny4xMzczLDk3Ni4wNDc3LDExMzkuMSw5ODEuNzQiIHN0eWxlPSJzdHJva2U6IzAwMDAwMDtzdHJva2Utd2lkdGg6MS4wOyIvPjx0ZXh0IGZpbGw9IiMwMDAwMDAiIGZvbnQtZmFtaWx5PSJzYW5zLXNlcmlmIiBmb250LXNpemU9IjEyIiBsZW5ndGhBZGp1c3Q9InNwYWNpbmciIHRleHRMZW5ndGg9IjYxIiB4PSIxMzc1LjUiIHk9IjkxNC4xMzg3Ij5PYnN0cnVjdHM8L3RleHQ+PC9nPjwhLS1saW5rIEEwMkNyeXB0b2dyYXBoaWNGYWlsdXJlcyB0byBTZWN1cmUtLT48ZyBpZD0ibGlua19BMDJDcnlwdG9ncmFwaGljRmFpbHVyZXNfU2VjdXJlIj48cGF0aCBkPSJNOTYyLjQ0LDg0Ny43OSBDMTAwMCw4ODQuODYgMTA0NS42MSw5MjkuODc0OSAxMDc1LjE3LDk1OS4wNTQ5ICIgZmlsbD0ibm9uZSIgaWQ9IkEwMkNyeXB0b2dyYXBoaWNGYWlsdXJlcy10by1TZWN1cmUiIHN0eWxlPSJzdHJva2U6IzAwMDAwMDtzdHJva2Utd2lkdGg6MS4wO3N0cm9rZS1kYXNoYXJyYXk6Ny4wLDcuMDsiLz48cG9seWdvbiBmaWxsPSIjMDAwMDAwIiBwb2ludHM9IjEwNzkuNDQsOTYzLjI3LDEwNzUuODQ1MSw5NTQuMTAwNywxMDc1Ljg4MTcsOTU5Ljc1NzQsMTA3MC4yMjQ5LDk1OS43OTQsMTA3OS40NCw5NjMuMjciIHN0eWxlPSJzdHJva2U6IzAwMDAwMDtzdHJva2Utd2lkdGg6MS4wOyIvPjx0ZXh0IGZpbGw9IiMwMDAwMDAiIGZvbnQtZmFtaWx5PSJzYW5zLXNlcmlmIiBmb250LXNpemU9IjEyIiBsZW5ndGhBZGp1c3Q9InNwYWNpbmciIHRleHRMZW5ndGg9IjYxIiB4PSIxMDMyLjUiIHk9IjkxNC4xMzg3Ij5PYnN0cnVjdHM8L3RleHQ+PC9nPjwhLS1saW5rIEExMFNlcnZlclNpZGVSZXF1ZXN0Rm9yZ2VyeSB0byBTZWN1cmUtLT48ZyBpZD0ibGlua19BMTBTZXJ2ZXJTaWRlUmVxdWVzdEZvcmdlcnlfU2VjdXJlIj48cGF0aCBkPSJNMTEwNC41LDg1NS42MSBDMTEwNC41LDg5MS41OCAxMTA0LjUsOTMwLjE4IDExMDQuNSw5NTcuMzQgIiBmaWxsPSJub25lIiBpZD0iQTEwU2VydmVyU2lkZVJlcXVlc3RGb3JnZXJ5LXRvLVNlY3VyZSIgc3R5bGU9InN0cm9rZTojMDAwMDAwO3N0cm9rZS13aWR0aDoxLjA7c3Ryb2tlLWRhc2hhcnJheTo3LjAsNy4wOyIvPjxwb2x5Z29uIGZpbGw9IiMwMDAwMDAiIHBvaW50cz0iMTEwNC41LDk2My4zNCwxMTA4LjUsOTU0LjM0LDExMDQuNSw5NTguMzQsMTEwMC41LDk1NC4zNCwxMTA0LjUsOTYzLjM0IiBzdHlsZT0ic3Ryb2tlOiMwMDAwMDA7c3Ryb2tlLXdpZHRoOjEuMDsiLz48dGV4dCBmaWxsPSIjMDAwMDAwIiBmb250LWZhbWlseT0ic2Fucy1zZXJpZiIgZm9udC1zaXplPSIxMiIgbGVuZ3RoQWRqdXN0PSJzcGFjaW5nIiB0ZXh0TGVuZ3RoPSI2MSIgeD0iMTEwNS41IiB5PSI5MTQuMTM4NyI+T2JzdHJ1Y3RzPC90ZXh0PjwvZz48IS0tbGluayBSZXNpbGllbnQgdG8gRXh0ZXJuYWxzb3VyY2VzdW5hdmFpbGFibGVfcmVzb2x2ZS0tPjxnIGlkPSJsaW5rX1Jlc2lsaWVudF9FeHRlcm5hbHNvdXJjZXN1bmF2YWlsYWJsZV9yZXNvbHZlIj48cGF0aCBkPSJNMjE1MC4xMiw4MS41MyBDMjE0My43LDExNy41OCAyMTMzLjA3MywxNzcuMTUzMSAyMTI5LjAwMywxOTkuOTgzMSAiIGZpbGw9Im5vbmUiIGlkPSJSZXNpbGllbnQtdG8tRXh0ZXJuYWxzb3VyY2VzdW5hdmFpbGFibGVfcmVzb2x2ZSIgc3R5bGU9InN0cm9rZTojMDAwMDAwO3N0cm9rZS13aWR0aDoyLjA7Ii8+PHBvbHlnb24gZmlsbD0iIzAwMDAwMCIgcG9pbnRzPSIyMTI3Ljk1LDIwNS44OSwyMTMzLjQ2NzUsMTk3LjczMTcsMjEyOC44Mjc1LDIwMC45Njc2LDIxMjUuNTkxNywxOTYuMzI3NywyMTI3Ljk1LDIwNS44OSIgc3R5bGU9InN0cm9rZTojMDAwMDAwO3N0cm9rZS13aWR0aDoyLjA7Ii8+PHRleHQgZmlsbD0iIzAwMDAwMCIgZm9udC1mYW1pbHk9InNhbnMtc2VyaWYiIGZvbnQtc2l6ZT0iMTIiIGxlbmd0aEFkanVzdD0ic3BhY2luZyIgdGV4dExlbmd0aD0iNCIgeD0iMjE0MS41IiB5PSIxNDguMTM4NyI+JiMxNjA7PC90ZXh0PjwvZz48IS0tbGluayBJbmZvcm1hdGlvbm5vdHN1ZmZpY2llbnRfcmVzb2x2ZSB0byBJbmZvcm1hdGlvbm5vdHN1ZmZpY2llbnQtLT48ZyBpZD0ibGlua19JbmZvcm1hdGlvbm5vdHN1ZmZpY2llbnRfcmVzb2x2ZV9JbmZvcm1hdGlvbm5vdHN1ZmZpY2llbnQiPjxwYXRoIGQ9Ik0yMDEuMDgsODA2LjY0IEMyMDguNjEsODMwLjQ1IDIyOS4xNzkxLDg5NS4zODk4IDI0My42NjkxLDk0MS4xNTk4ICIgZmlsbD0ibm9uZSIgaWQ9IkluZm9ybWF0aW9ubm90c3VmZmljaWVudF9yZXNvbHZlLXRvLUluZm9ybWF0aW9ubm90c3VmZmljaWVudCIgc3R5bGU9InN0cm9rZTojMDAwMDAwO3N0cm9rZS13aWR0aDoyLjA7Ii8+PHBvbHlnb24gZmlsbD0iIzAwMDAwMCIgcG9pbnRzPSIyNDUuNDgsOTQ2Ljg4LDI0Ni41NzcxLDkzNy4wOTI0LDI0My45NzA5LDk0Mi4xMTMyLDIzOC45NTAyLDkzOS41MDcsMjQ1LjQ4LDk0Ni44OCIgc3R5bGU9InN0cm9rZTojMDAwMDAwO3N0cm9rZS13aWR0aDoyLjA7Ii8+PHRleHQgZmlsbD0iIzAwMDAwMCIgZm9udC1mYW1pbHk9InNhbnMtc2VyaWYiIGZvbnQtc2l6ZT0iMTIiIGxlbmd0aEFkanVzdD0ic3BhY2luZyIgdGV4dExlbmd0aD0iNCIgeD0iMjM3LjUiIHk9IjkxNC4xMzg3Ij4mIzE2MDs8L3RleHQ+PC9nPjwhLS1saW5rIFJlcHJlc2VudGRlcGVuZGVuY2llc2JldHdlZW5hc3NldHMgdG8gSW5mb3JtYXRpb25ub3RzdWZmaWNpZW50X3Jlc29sdmUtLT48ZyBpZD0ibGlua19SZXByZXNlbnRkZXBlbmRlbmNpZXNiZXR3ZWVuYXNzZXRzX0luZm9ybWF0aW9ubm90c3VmZmljaWVudF9yZXNvbHZlIj48cGF0aCBkPSJNMTk4LjUsNjQwLjIyIEMxOTguNSw2OTAuMzMgMTk4LjUsNzU4IDE5OC41LDc4Mi4zNiAiIGZpbGw9Im5vbmUiIGlkPSJSZXByZXNlbnRkZXBlbmRlbmNpZXNiZXR3ZWVuYXNzZXRzLXRvLUluZm9ybWF0aW9ubm90c3VmZmljaWVudF9yZXNvbHZlIiBzdHlsZT0ic3Ryb2tlOiMwMDAwMDA7c3Ryb2tlLXdpZHRoOjIuMDsiLz48cG9seWdvbiBmaWxsPSIjMDAwMDAwIiBwb2ludHM9IjE5OC41LDc4OC4zNiwyMDIuNSw3NzkuMzYsMTk4LjUsNzgzLjM2LDE5NC41LDc3OS4zNiwxOTguNSw3ODguMzYiIHN0eWxlPSJzdHJva2U6IzAwMDAwMDtzdHJva2Utd2lkdGg6Mi4wOyIvPjx0ZXh0IGZpbGw9IiMwMDAwMDAiIGZvbnQtZmFtaWx5PSJzYW5zLXNlcmlmIiBmb250LXNpemU9IjEyIiBsZW5ndGhBZGp1c3Q9InNwYWNpbmciIHRleHRMZW5ndGg9IjQiIHg9IjE5OS41IiB5PSI2OTAuMTM4NyI+JiMxNjA7PC90ZXh0PjwvZz48IS0tbGluayBSZXByZXNlbnRkaWZmZXJlbnR0eXBlc29mYXNzZXRzIHRvIEluZm9ybWF0aW9ubm90c3VmZmljaWVudF9yZXNvbHZlLS0+PGcgaWQ9ImxpbmtfUmVwcmVzZW50ZGlmZmVyZW50dHlwZXNvZmFzc2V0c19JbmZvcm1hdGlvbm5vdHN1ZmZpY2llbnRfcmVzb2x2ZSI+PHBhdGggZD0iTTMwMC45NSw2NDguMjQgQzI2Ni42NCw2OTcuODkgMjIzLjQ4MjEsNzYwLjM1NDcgMjA3LjUzMjEsNzgzLjQyNDcgIiBmaWxsPSJub25lIiBpZD0iUmVwcmVzZW50ZGlmZmVyZW50dHlwZXNvZmFzc2V0cy10by1JbmZvcm1hdGlvbm5vdHN1ZmZpY2llbnRfcmVzb2x2ZSIgc3R5bGU9InN0cm9rZTojMDAwMDAwO3N0cm9rZS13aWR0aDoyLjA7Ii8+PHBvbHlnb24gZmlsbD0iIzAwMDAwMCIgcG9pbnRzPSIyMDQuMTIsNzg4LjM2LDIxMi41Mjg0LDc4My4yMzE4LDIwNi45NjM1LDc4NC4yNDcyLDIwNS45NDgsNzc4LjY4MjMsMjA0LjEyLDc4OC4zNiIgc3R5bGU9InN0cm9rZTojMDAwMDAwO3N0cm9rZS13aWR0aDoyLjA7Ii8+PHRleHQgZmlsbD0iIzAwMDAwMCIgZm9udC1mYW1pbHk9InNhbnMtc2VyaWYiIGZvbnQtc2l6ZT0iMTIiIGxlbmd0aEFkanVzdD0ic3BhY2luZyIgdGV4dExlbmd0aD0iNCIgeD0iMjc5LjUiIHk9IjY5MC4xMzg3Ij4mIzE2MDs8L3RleHQ+PC9nPjwhLS1saW5rIEluZm9ybWF0aW9ub3V0ZGF0ZWRfcmVzb2x2ZSB0byBJbmZvcm1hdGlvbm91dGRhdGVkLS0+PGcgaWQ9ImxpbmtfSW5mb3JtYXRpb25vdXRkYXRlZF9yZXNvbHZlX0luZm9ybWF0aW9ub3V0ZGF0ZWQiPjxwYXRoIGQ9Ik0xODA4LjI1LDgwNi43NSBDMTc4OC45Nyw4MjguMTcgMTczNC4wMSw4ODYuMDMgMTY3Ni41LDkxNyBDMTYxMy4xNCw5NTEuMTIgMTUzNy4zOTY1LDk2OS40MjA1IDE0ODYuMjE2NSw5NzkuMDUwNSAiIGZpbGw9Im5vbmUiIGlkPSJJbmZvcm1hdGlvbm91dGRhdGVkX3Jlc29sdmUtdG8tSW5mb3JtYXRpb25vdXRkYXRlZCIgc3R5bGU9InN0cm9rZTojMDAwMDAwO3N0cm9rZS13aWR0aDoyLjA7Ii8+PHBvbHlnb24gZmlsbD0iIzAwMDAwMCIgcG9pbnRzPSIxNDgwLjMyLDk4MC4xNiwxNDg5LjkwNDQsOTgyLjQyNjgsMTQ4NS4yMzM4LDk3OS4yMzU0LDE0ODguNDI1MSw5NzQuNTY0OCwxNDgwLjMyLDk4MC4xNiIgc3R5bGU9InN0cm9rZTojMDAwMDAwO3N0cm9rZS13aWR0aDoyLjA7Ii8+PHRleHQgZmlsbD0iIzAwMDAwMCIgZm9udC1mYW1pbHk9InNhbnMtc2VyaWYiIGZvbnQtc2l6ZT0iMTIiIGxlbmd0aEFkanVzdD0ic3BhY2luZyIgdGV4dExlbmd0aD0iNCIgeD0iMTY5OS41IiB5PSI5MTQuMTM4NyI+JiMxNjA7PC90ZXh0PjwvZz48IS0tbGluayBBbHdheXNjdXJyZW50aW5mb3JtYXRpb24gdG8gSW5mb3JtYXRpb25vdXRkYXRlZF9yZXNvbHZlLS0+PGcgaWQ9ImxpbmtfQWx3YXlzY3VycmVudGluZm9ybWF0aW9uX0luZm9ybWF0aW9ub3V0ZGF0ZWRfcmVzb2x2ZSI+PHBhdGggZD0iTTIwMjAuODMsNjMwLjM4IEMxOTU4Ljg5LDY4MC40OSAxODYwLjgyMzksNzU5LjgyNTQgMTgyOS41MTM5LDc4NS4xNjU0ICIgZmlsbD0ibm9uZSIgaWQ9IkFsd2F5c2N1cnJlbnRpbmZvcm1hdGlvbi10by1JbmZvcm1hdGlvbm91dGRhdGVkX3Jlc29sdmUiIHN0eWxlPSJzdHJva2U6IzAwMDAwMDtzdHJva2Utd2lkdGg6Mi4wOyIvPjxwb2x5Z29uIGZpbGw9IiMwMDAwMDAiIHBvaW50cz0iMTgyNC44NSw3ODguOTQsMTgzNC4zNjIzLDc4Ni4zODczLDE4MjguNzM2Niw3ODUuNzk0NSwxODI5LjMyOTUsNzgwLjE2ODgsMTgyNC44NSw3ODguOTQiIHN0eWxlPSJzdHJva2U6IzAwMDAwMDtzdHJva2Utd2lkdGg6Mi4wOyIvPjx0ZXh0IGZpbGw9IiMwMDAwMDAiIGZvbnQtZmFtaWx5PSJzYW5zLXNlcmlmIiBmb250LXNpemU9IjEyIiBsZW5ndGhBZGp1c3Q9InNwYWNpbmciIHRleHRMZW5ndGg9IjQiIHg9IjE5NTkuNSIgeT0iNjkwLjEzODciPiYjMTYwOzwvdGV4dD48L2c+PCEtLWxpbmsgUHJlc2VudHJlbGV2YW50aW5mb3JtYXRpb24gdG8gSW5mb3JtYXRpb25ub3RzdWZmaWNpZW50X3Jlc29sdmUtLT48ZyBpZD0ibGlua19QcmVzZW50cmVsZXZhbnRpbmZvcm1hdGlvbl9JbmZvcm1hdGlvbm5vdHN1ZmZpY2llbnRfcmVzb2x2ZSI+PHBhdGggZD0iTTgzLjI5LDYzMi4wOSBDMTE4LjI2LDY4MS45OSAxNzEuMzQ2Nyw3NTcuNzU2NCAxODkuMzU2Nyw3ODMuNDU2NCAiIGZpbGw9Im5vbmUiIGlkPSJQcmVzZW50cmVsZXZhbnRpbmZvcm1hdGlvbi10by1JbmZvcm1hdGlvbm5vdHN1ZmZpY2llbnRfcmVzb2x2ZSIgc3R5bGU9InN0cm9rZTojMDAwMDAwO3N0cm9rZS13aWR0aDoyLjA7Ii8+PHBvbHlnb24gZmlsbD0iIzAwMDAwMCIgcG9pbnRzPSIxOTIuOCw3ODguMzcsMTkwLjkxMDcsNzc4LjcwNCwxODkuOTMwNiw3ODQuMjc1MywxODQuMzU5Myw3ODMuMjk1MiwxOTIuOCw3ODguMzciIHN0eWxlPSJzdHJva2U6IzAwMDAwMDtzdHJva2Utd2lkdGg6Mi4wOyIvPjx0ZXh0IGZpbGw9IiMwMDAwMDAiIGZvbnQtZmFtaWx5PSJzYW5zLXNlcmlmIiBmb250LXNpemU9IjEyIiBsZW5ndGhBZGp1c3Q9InNwYWNpbmciIHRleHRMZW5ndGg9IjQiIHg9IjEyMy41IiB5PSI2OTAuMTM4NyI+JiMxNjA7PC90ZXh0PjwvZz48IS0tbGluayBBMDFCcm9rZW5BY2Nlc3NDb250cm9sX2FuZCB0byBBMDFCcm9rZW5BY2Nlc3NDb250cm9sLS0+PGcgaWQ9ImxpbmtfQTAxQnJva2VuQWNjZXNzQ29udHJvbF9hbmRfQTAxQnJva2VuQWNjZXNzQ29udHJvbCI+PHBhdGggZD0iTTE4MjguMzcsNTk5LjA2IEMxODA1LjQ5LDYyNC44OCAxNzM2LjkwOCw3MDIuMzE4MyAxNjkyLjc2OCw3NTIuMTU4MyAiIGZpbGw9Im5vbmUiIGlkPSJBMDFCcm9rZW5BY2Nlc3NDb250cm9sX2FuZC10by1BMDFCcm9rZW5BY2Nlc3NDb250cm9sIiBzdHlsZT0ic3Ryb2tlOiMwMDAwMDA7c3Ryb2tlLXdpZHRoOjIuMDsiLz48cG9seWdvbiBmaWxsPSIjMDAwMDAwIiBwb2ludHM9IjE2ODguNzksNzU2LjY1LDE2OTcuNzUxNSw3NTIuNTY0NCwxNjkyLjEwNSw3NTIuOTA2OSwxNjkxLjc2MjUsNzQ3LjI2MDQsMTY4OC43OSw3NTYuNjUiIHN0eWxlPSJzdHJva2U6IzAwMDAwMDtzdHJva2Utd2lkdGg6Mi4wOyIvPjx0ZXh0IGZpbGw9IiMwMDAwMDAiIGZvbnQtZmFtaWx5PSJzYW5zLXNlcmlmIiBmb250LXNpemU9IjEyIiBsZW5ndGhBZGp1c3Q9InNwYWNpbmciIHRleHRMZW5ndGg9IjQiIHg9IjE3NTYuNSIgeT0iNjkwLjEzODciPiYjMTYwOzwvdGV4dD48L2c+PCEtLWxpbmsgQWNjZXNzdG9zZW5zaXRpdmVhc3NldGluZm9ybWF0aW9uIHRvIEEwMUJyb2tlbkFjY2Vzc0NvbnRyb2xfYW5kLS0+PGcgaWQ9ImxpbmtfQWNjZXNzdG9zZW5zaXRpdmVhc3NldGluZm9ybWF0aW9uX0EwMUJyb2tlbkFjY2Vzc0NvbnRyb2xfYW5kIj48cGF0aCBkPSJNMTkwMi4zMSw0NDguNjMgQzE4NzkuODYsNDk1Ljc5IDE4NTIuNjE5Niw1NTMuMDQyOCAxODQyLjAxOTYsNTc1LjMwMjggIiBmaWxsPSJub25lIiBpZD0iQWNjZXNzdG9zZW5zaXRpdmVhc3NldGluZm9ybWF0aW9uLXRvLUEwMUJyb2tlbkFjY2Vzc0NvbnRyb2xfYW5kIiBzdHlsZT0ic3Ryb2tlOiMwMDAwMDA7c3Ryb2tlLXdpZHRoOjIuMDsiLz48cG9seWdvbiBmaWxsPSIjMDAwMDAwIiBwb2ludHM9IjE4MzkuNDQsNTgwLjcyLDE4NDYuOTIwOCw1NzQuMzE0LDE4NDEuNTg5Nyw1NzYuMjA1NywxODM5LjY5OCw1NzAuODc0NSwxODM5LjQ0LDU4MC43MiIgc3R5bGU9InN0cm9rZTojMDAwMDAwO3N0cm9rZS13aWR0aDoyLjA7Ii8+PHRleHQgZmlsbD0iIzAwMDAwMCIgZm9udC1mYW1pbHk9InNhbnMtc2VyaWYiIGZvbnQtc2l6ZT0iMTIiIGxlbmd0aEFkanVzdD0ic3BhY2luZyIgdGV4dExlbmd0aD0iNCIgeD0iMTg4My41IiB5PSI0OTkuMTM4NyI+JiMxNjA7PC90ZXh0PjwvZz48IS0tbGluayBVbmF1dGhvcml6ZWRjaGFuZ2VzdG9hc3NldGluZm9ybWF0aW9uIHRvIEEwMUJyb2tlbkFjY2Vzc0NvbnRyb2xfYW5kLS0+PGcgaWQ9ImxpbmtfVW5hdXRob3JpemVkY2hhbmdlc3RvYXNzZXRpbmZvcm1hdGlvbl9BMDFCcm9rZW5BY2Nlc3NDb250cm9sX2FuZCI+PHBhdGggZD0iTTIwMTIuNzEsNDQyLjEyIEMyMDA2LjkyLDQ0Ny4xOCAyMDAxLjExLDQ1Mi4yMSAxOTk1LjUsNDU3IEMxOTM4LjgzLDUwNS40MyAxODczLjg3MDUsNTU4LjA3MzYgMTg0OS4yODA1LDU3Ny45MDM2ICIgZmlsbD0ibm9uZSIgaWQ9IlVuYXV0aG9yaXplZGNoYW5nZXN0b2Fzc2V0aW5mb3JtYXRpb24tdG8tQTAxQnJva2VuQWNjZXNzQ29udHJvbF9hbmQiIHN0eWxlPSJzdHJva2U6IzAwMDAwMDtzdHJva2Utd2lkdGg6Mi4wOyIvPjxwb2x5Z29uIGZpbGw9IiMwMDAwMDAiIHBvaW50cz0iMTg0NC42MSw1ODEuNjcsMTg1NC4xMjY4LDU3OS4xMzQsMTg0OC41MDIxLDU3OC41MzEzLDE4NDkuMTA0OCw1NzIuOTA2NiwxODQ0LjYxLDU4MS42NyIgc3R5bGU9InN0cm9rZTojMDAwMDAwO3N0cm9rZS13aWR0aDoyLjA7Ii8+PHRleHQgZmlsbD0iIzAwMDAwMCIgZm9udC1mYW1pbHk9InNhbnMtc2VyaWYiIGZvbnQtc2l6ZT0iMTIiIGxlbmd0aEFkanVzdD0ic3BhY2luZyIgdGV4dExlbmd0aD0iNCIgeD0iMTk1Ny41IiB5PSI0OTkuMTM4NyI+JiMxNjA7PC90ZXh0PjwvZz48IS0tbGluayBBMDdJZGVudGlmaWNhdGlvbmFuZEF1dGhlbnRpY2F0aW9uRmFpbHVyZXMgdG8gQTAxQnJva2VuQWNjZXNzQ29udHJvbF9hbmQtLT48ZyBpZD0ibGlua19BMDdJZGVudGlmaWNhdGlvbmFuZEF1dGhlbnRpY2F0aW9uRmFpbHVyZXNfQTAxQnJva2VuQWNjZXNzQ29udHJvbF9hbmQiPjxwYXRoIGQ9Ik0xMTY1Ljc0LDQ0Ny45NiBDMTE3MS40OCw0NTEuNDggMTE3Ny40Miw0NTQuNTcgMTE4My41LDQ1NyBDMTM4My42Myw1MzYuOTggMTQ2MS44NCw0MjIuNTMgMTY2Ny41LDQ4NyBDMTczNC41Nyw1MDguMDMgMTc5Ny44NzIxLDU1Ny40MTcyIDE4MjEuODQyMSw1NzcuNDA3MiAiIGZpbGw9Im5vbmUiIGlkPSJBMDdJZGVudGlmaWNhdGlvbmFuZEF1dGhlbnRpY2F0aW9uRmFpbHVyZXMtdG8tQTAxQnJva2VuQWNjZXNzQ29udHJvbF9hbmQiIHN0eWxlPSJzdHJva2U6IzAwMDAwMDtzdHJva2Utd2lkdGg6Mi4wOyIvPjxwb2x5Z29uIGZpbGw9IiMwMDAwMDAiIHBvaW50cz0iMTgyNi40NSw1ODEuMjUsMTgyMi4xLDU3Mi40MTM4LDE4MjIuNjEwMSw1NzguMDQ3NywxODE2Ljk3NjMsNTc4LjU1NzcsMTgyNi40NSw1ODEuMjUiIHN0eWxlPSJzdHJva2U6IzAwMDAwMDtzdHJva2Utd2lkdGg6Mi4wOyIvPjx0ZXh0IGZpbGw9IiMwMDAwMDAiIGZvbnQtZmFtaWx5PSJzYW5zLXNlcmlmIiBmb250LXNpemU9IjEyIiBsZW5ndGhBZGp1c3Q9InNwYWNpbmciIHRleHRMZW5ndGg9IjQiIHg9IjE3MDMuNSIgeT0iNDk5LjEzODciPiYjMTYwOzwvdGV4dD48L2c+PCEtLWxpbmsgQTA5U2VjdXJpdHlMb2dnaW5nYW5kTW9uaXRvcmluZ0ZhaWx1cmVzX2FuZCB0byBBMDlTZWN1cml0eUxvZ2dpbmdhbmRNb25pdG9yaW5nRmFpbHVyZXMtLT48ZyBpZD0ibGlua19BMDlTZWN1cml0eUxvZ2dpbmdhbmRNb25pdG9yaW5nRmFpbHVyZXNfYW5kX0EwOVNlY3VyaXR5TG9nZ2luZ2FuZE1vbml0b3JpbmdGYWlsdXJlcyI+PHBhdGggZD0iTTcyMi41LDU5OS4wNiBDNzIyLjUsNjE5LjYxIDcyMi41LDY2OS43MiA3MjIuNSw3MTYuODkgIiBmaWxsPSJub25lIiBpZD0iQTA5U2VjdXJpdHlMb2dnaW5nYW5kTW9uaXRvcmluZ0ZhaWx1cmVzX2FuZC10by1BMDlTZWN1cml0eUxvZ2dpbmdhbmRNb25pdG9yaW5nRmFpbHVyZXMiIHN0eWxlPSJzdHJva2U6IzAwMDAwMDtzdHJva2Utd2lkdGg6Mi4wOyIvPjxwb2x5Z29uIGZpbGw9IiMwMDAwMDAiIHBvaW50cz0iNzIyLjUsNzIyLjg5LDcyNi41LDcxMy44OSw3MjIuNSw3MTcuODksNzE4LjUsNzEzLjg5LDcyMi41LDcyMi44OSIgc3R5bGU9InN0cm9rZTojMDAwMDAwO3N0cm9rZS13aWR0aDoyLjA7Ii8+PHRleHQgZmlsbD0iIzAwMDAwMCIgZm9udC1mYW1pbHk9InNhbnMtc2VyaWYiIGZvbnQtc2l6ZT0iMTIiIGxlbmd0aEFkanVzdD0ic3BhY2luZyIgdGV4dExlbmd0aD0iNCIgeD0iNzIzLjUiIHk9IjY5MC4xMzg3Ij4mIzE2MDs8L3RleHQ+PC9nPjwhLS1saW5rIEEwN0lkZW50aWZpY2F0aW9uYW5kQXV0aGVudGljYXRpb25GYWlsdXJlcyB0byBBMDlTZWN1cml0eUxvZ2dpbmdhbmRNb25pdG9yaW5nRmFpbHVyZXNfYW5kLS0+PGcgaWQ9ImxpbmtfQTA3SWRlbnRpZmljYXRpb25hbmRBdXRoZW50aWNhdGlvbkZhaWx1cmVzX0EwOVNlY3VyaXR5TG9nZ2luZ2FuZE1vbml0b3JpbmdGYWlsdXJlc19hbmQiPjxwYXRoIGQ9Ik0xMDQ1LjE0LDQ0Ny42OCBDMTAzOS40Myw0NTEuMjYgMTAzMy41Miw0NTQuNDUgMTAyNy41LDQ1NyBDOTY4LjI2LDQ4Mi4xMyA3ODYuMzcsNDQyLjkyIDczOS41LDQ4NyBDNzEyLjk1LDUxMS45NyA3MTYuODU5Myw1NTUuNTU3NCA3MjAuMDA5Myw1NzQuOTc3NCAiIGZpbGw9Im5vbmUiIGlkPSJBMDdJZGVudGlmaWNhdGlvbmFuZEF1dGhlbnRpY2F0aW9uRmFpbHVyZXMtdG8tQTA5U2VjdXJpdHlMb2dnaW5nYW5kTW9uaXRvcmluZ0ZhaWx1cmVzX2FuZCIgc3R5bGU9InN0cm9rZTojMDAwMDAwO3N0cm9rZS13aWR0aDoyLjA7Ii8+PHBvbHlnb24gZmlsbD0iIzAwMDAwMCIgcG9pbnRzPSI3MjAuOTcsNTgwLjksNzIzLjQ3NzQsNTcxLjM3NTcsNzIwLjE2OTQsNTc1Ljk2NDUsNzE1LjU4MDYsNTcyLjY1NjYsNzIwLjk3LDU4MC45IiBzdHlsZT0ic3Ryb2tlOiMwMDAwMDA7c3Ryb2tlLXdpZHRoOjIuMDsiLz48dGV4dCBmaWxsPSIjMDAwMDAwIiBmb250LWZhbWlseT0ic2Fucy1zZXJpZiIgZm9udC1zaXplPSIxMiIgbGVuZ3RoQWRqdXN0PSJzcGFjaW5nIiB0ZXh0TGVuZ3RoPSI0IiB4PSI3NDAuNSIgeT0iNDk5LjEzODciPiYjMTYwOzwvdGV4dD48L2c+PCEtLWxpbmsgRXh0ZXJuYWxzb3VyY2VzdW5hdmFpbGFibGVfYW5kIHRvIEV4dGVybmFsc291cmNlc3VuYXZhaWxhYmxlLS0+PGcgaWQ9ImxpbmtfRXh0ZXJuYWxzb3VyY2VzdW5hdmFpbGFibGVfYW5kX0V4dGVybmFsc291cmNlc3VuYXZhaWxhYmxlIj48cGF0aCBkPSJNMjMyNS42MiwyMjQuMzcgQzIzMTAuMTUsMjQ2LjM3IDIyNzAuOTgxMywzMDIuMDYyIDIyNDEuOTExMywzNDMuNDAyICIgZmlsbD0ibm9uZSIgaWQ9IkV4dGVybmFsc291cmNlc3VuYXZhaWxhYmxlX2FuZC10by1FeHRlcm5hbHNvdXJjZXN1bmF2YWlsYWJsZSIgc3R5bGU9InN0cm9rZTojMDAwMDAwO3N0cm9rZS13aWR0aDoyLjA7Ii8+PHBvbHlnb24gZmlsbD0iIzAwMDAwMCIgcG9pbnRzPSIyMjM4LjQ2LDM0OC4zMSwyMjQ2LjkwODksMzQzLjI0ODgsMjI0MS4zMzYxLDM0NC4yMiwyMjQwLjM2NDksMzM4LjY0NzEsMjIzOC40NiwzNDguMzEiIHN0eWxlPSJzdHJva2U6IzAwMDAwMDtzdHJva2Utd2lkdGg6Mi4wOyIvPjx0ZXh0IGZpbGw9IiMwMDAwMDAiIGZvbnQtZmFtaWx5PSJzYW5zLXNlcmlmIiBmb250LXNpemU9IjEyIiBsZW5ndGhBZGp1c3Q9InNwYWNpbmciIHRleHRMZW5ndGg9IjQiIHg9IjIyODYuNSIgeT0iMjkxLjEzODciPiYjMTYwOzwvdGV4dD48L2c+PCEtLWxpbmsgTG9zc29maW5mcmFzdHJ1Y3R1cmUgdG8gRXh0ZXJuYWxzb3VyY2VzdW5hdmFpbGFibGVfYW5kLS0+PGcgaWQ9ImxpbmtfTG9zc29maW5mcmFzdHJ1Y3R1cmVfRXh0ZXJuYWxzb3VyY2VzdW5hdmFpbGFibGVfYW5kIj48cGF0aCBkPSJNMjMxNC41NCw5OC4yNSBDMjMxOS45NSwxMzUuMTQgMjMyNi41Njc3LDE4MC4zNzM3IDIzMjkuNDQ3NywxOTkuOTczNyAiIGZpbGw9Im5vbmUiIGlkPSJMb3Nzb2ZpbmZyYXN0cnVjdHVyZS10by1FeHRlcm5hbHNvdXJjZXN1bmF2YWlsYWJsZV9hbmQiIHN0eWxlPSJzdHJva2U6IzAwMDAwMDtzdHJva2Utd2lkdGg6Mi4wOyIvPjxwb2x5Z29uIGZpbGw9IiMwMDAwMDAiIHBvaW50cz0iMjMzMC4zMiwyMDUuOTEsMjMzMi45NjkxLDE5Ni40MjQxLDIzMjkuNTkzMSwyMDAuOTYzMSwyMzI1LjA1NDEsMTk3LjU4NzEsMjMzMC4zMiwyMDUuOTEiIHN0eWxlPSJzdHJva2U6IzAwMDAwMDtzdHJva2Utd2lkdGg6Mi4wOyIvPjx0ZXh0IGZpbGw9IiMwMDAwMDAiIGZvbnQtZmFtaWx5PSJzYW5zLXNlcmlmIiBmb250LXNpemU9IjEyIiBsZW5ndGhBZGp1c3Q9InNwYWNpbmciIHRleHRMZW5ndGg9IjQiIHg9IjIzMjMuNSIgeT0iMTQ4LjEzODciPiYjMTYwOzwvdGV4dD48L2c+PCEtLVNSQz1baExiSFN6aXMzN3hsaC1ad2pEbWpNTUd4b05ndHN2c05EQWt4UEVhYnd2dnVic0Nhc2tPZ1dudjk5TkZfc3N1X1FOelhlNFpQYVlMSUw5ZXRNbTAtVzAwOFdrMHQ3REF5b0RaaDd3YkNidG41RFZqLU1sdHd3VE1oUXc3djh6TFNtRnN2MEFLYnZRMl9WSkUza1AyaHloaWVUOFF5c1BsbE5qU19hbnRYbThWbzJNWVhicUJvQm9uQmJuR01KNmIxYk1BUXh1MENSZnNIVzZDYmUwTTFhZnIwTlMyaFJ0aHltdnNPd29TZzZPTmlXY2V3MHlxTWFrbEQ5VUx2OFBhb3NmMkRtN19fX2FFV3VhT3JXOGdEMTg2ajM4NmpyNDY0ZXExZUxTcGRGRUtDVENqUkkyTEdldGlIdF9zamNHSVFBcjc4YkFhMncyRFFHSHpvUFowaEFjOVBFZTR3WG5WcklZV2J2a1g1SVY1UmFNZlNiaTRwdHA2S3l6QjNUUGhWb0liZ25KV2cxZWVaMS1pQWc2TW80VG1vM1d0Y3c1bmtyYmVpOTVxbFVUZ0N1Q1g1aUM0STR4M2Z5VGl4YlhPY2xiVFlpVTJtbUQxVjItMFFxbXlNSklybGdwbm40V0lTWjRrT2RMb1N3a0hkQUp1cGlEdjFhZk9ZanZlSWZ5YW80QVdTTTM0NUdDemM2SU9LbnlHZ2dNWk81M1VKLU1HX0Q5VHF2WEdyWFRud2NlOW5RbmhGdTQtTVJXRF9GQXVLUjN5N1gyU3BKMF9xQlJqV1lZeVNtY0lCTzZjdUNJcXIwN0hJWFVZUWdySjBkMnlBa1NsNnV2RE04NWp5MFYzSkZ1ZVNjM0d4M0RycXUtaFVrTFlqMVEyeGQ2VEZkT3VUaV9EZzlNMllrSE5uZ3FrRXh2WHlQRkFFUC1vTV9MTFdxUm1LU2k3YWZqSUo3MUN1RDJpbkY4VTZZTzFabXUwdm5XUXdlTkI5TGdvNGxwcl9kcW1JY3JfbHA0UENJeWY3bVFrTDhDVFhTWkd2SWRQZk02Q2F1NVdGTmRxZWU4cG1fT3RxUFZTelBlXzg3eWpReW5mNVJiYi1GeUxJYjc5aE15UVpIM3JSbnVWTmx5UW1uWnh0SkhmWXJ5b1NNNW9qNmp3UmozT245anNNQ3NYdjJGd2gzMS1EY3BreW9fQkhxUlhUMkVnNnhxS3pqbG40UGk5cHUwUkttOTNWbXp1UFJiYlZDMlBELUpOTEl6SzhuQUdUMkNpS044S056aUxOUzNCMkFpSGZwaF9pSWdzcl9VSGVMOVFlNmg2TEVCc3pNY0o2M0NBOVFINTN0a3JReVcwQi1Yb0FYLWN3cTgtOGR4TFRFWlA3OGY4OXIxWTJuZFIybFBvdklOOXRTTkxVaXA0blBxUnZCTUhNSlVwYlIzYkJONmpNQy1WQ2M1RHpSa0xWTDF5T2NPRTNpTUJScTkwVmNxaVVRNERWUTR6anBzTGdYQmFrUWtwYkFsbVBENDktTWxMZExIRFB5VFZSaExiNzBUWGhfWTlUN1AxZ3p2RjFERW5WZWJUUGRfVjZidW9RUXZIMnk0LUFJTU1ZbTVKM1J4WVRBb3hkRVNFOXpvTjc2eEd6ZkUzUExlei1OLTk2cjJrSGlSb3ZhbjlKcG9zTG05T1VqQjBCQjYzUE5jeHFqVG9Ib0o4NDlnQkZad3JncU1mUnd6eFRmWTlOczJ0R2s5T3p1dVplR0VxeGtZUXVKNEhZYThnaWNKbWRmZjZuTDA5UlVqMmdCaDFYSGlyLWt4bVBOdWNLdmtQT0NUa1pUOHB2VjNXc2ZxOWdYWVhzdWNFZlV4N21wczZZOFhDZDdYWnNVNzB6d3VmR3J5ZXJ4dnF2Q2xNWXY0RE55elpqckEtZTlwYkZIeC1vcExlQU5IaktzRG15RE9LRFlUWFB4eVdqSnRMRmVZQlRyMl9pN05NNTdESXJmWnZUVk11UTh3SGF3dnBRLXRCM0pzRmRmcGV6UTV5TnMyMDNWbjRxSHgzeVlNdUtuYi1RWXloVWNCNmE0TjNLX1NjWUNNdTZ5eHAwRWk4NlpBRDNBY3lVeDhuS2pWNzNhempPcTlPM3RsRjVDanpDd3JaczR4UFFVek1ZUGVubHVEazE1akotM1dvUnZFaHAwcktpb3JaQTVMOU56QkVob3ZPMXltOVAyOUhDMTJlc0taNnN4MGlEcGRqcjFlQldVUmFPMURib21kYzFjUkIyRXZfcE1FRF9vdUo4UHVYenE3ME9DQlNXZ3h5Mms3X0ZyVHU0M0Vla2dzXzl2ZHZyd0ZIRGpkVW9XUFg1Y1hvOTVKdFZaeUpoYzU1N0lpUkNaSUVYY2JGc0lBN1dLM21JbV95ODRtU0dkY1B0T3hHb3kxT3pkclZMT1ZWN1NfbXFrQUNRZW13NVF3R1lIQ1JNazRybUJOWXZVYzN3WUo3eFlBTWk5T3hCNUJtVDdyUDFvcWFndGhzNm1iVnhlWGdBNjY1bFNWTHdCNlF2bFBnM1prSnBFSkQ3ZHp3aWFOdFV4U01BWUszOVBieWNqcXhpaVRzaDhTOW1OdG9nQ3NIZVFCaGFrZXVjTm1TTFExUDJNWmVZeUQ1d0h4QVNGVDhNc0NWQXpITXpndVRnY0hWNjdFQmtBTUpVem4taWNTenZEZDlZMHYtQ2Vid3JfR2V6aUY0anZzM2VlRy1fMFZwelFDSEQ0bGwzQ21aZFFvVVkwenFIUnprLVZtOGRJZnpCLWFNNzNtSHlaTndGaGVGXzBHMDBdLS0+PC9nPjwvc3ZnPg==;" parent="1" vertex="1">
            <mxGeometry x="0" y="0" width="2371px" height="1229px" as="geometry" />
          </mxCell>
        </UserObject>
      </root>
    </mxGraphModel>
  </diagram>
</mxfile>